<?xml version="1.0" standalone="no"?>
<!DOCTYPE svg PUBLIC "-//W3C//DTD SVG 1.1//EN" "http://www.w3.org/Graphics/SVG/1.1/DTD/svg11.dtd" >
<svg xmlns="http://www.w3.org/2000/svg" xmlns:xlink="http://www.w3.org/1999/xlink" version="1.1">
<metadata></metadata>
<defs>
<font id="siyamrupali" horiz-adv-x="1128" >
<font-face units-per-em="2048" ascent="1638" descent="-410" />
<missing-glyph horiz-adv-x="744" />
<glyph unicode=" "  horiz-adv-x="744" />
<glyph unicode="&#x09;" horiz-adv-x="744" />
<glyph unicode="&#xa0;" horiz-adv-x="744" />
<glyph unicode="!" horiz-adv-x="815" d="M390 222q0 46 32.5 78.5t78.5 32.5q45 0 78 -32.5t33 -78.5t-33 -78t-78 -32q-46 0 -78.5 32t-32.5 78zM413 1564h172l-19 -1030h-135z" />
<glyph unicode="&#x22;" horiz-adv-x="960" d="M196 1039v551h141v-551h-141zM622 1045v545h142v-545h-142z" />
<glyph unicode="#" horiz-adv-x="1382" d="M8 597v141h1289v-141h-1289zM108 1127v142h1261v-142h-1261zM235 58l271 1747l142 -22l-270 -1747zM760 58l271 1747l142 -22l-267 -1747z" />
<glyph unicode="$" d="M123 172v172q33 -16 76.5 -32.5t91.5 -29.5t98.5 -21.5t97.5 -8.5v434q-89 30 -154.5 63t-108.5 75.5t-64 97.5t-21 129q0 67 24.5 122.5t70 97t110 68t143.5 35.5v180h138v-176q100 -5 184.5 -26t151.5 -52l-66 -145q-56 25 -126 45.5t-144 26.5v-422q88 -31 155.5 -64 t113 -74.5t68.5 -95t23 -125.5q0 -70 -25 -127t-71.5 -99t-113 -69.5t-150.5 -39.5v-230h-138v221q-50 0 -101 4.5t-99 13.5t-90 22t-74 30zM315 1049q0 -36 8.5 -64.5t28.5 -52t53 -42.5t82 -36v369q-89 -16 -130.5 -60.5t-41.5 -113.5zM625 262q93 14 138.5 63t45.5 121 q0 33 -10 60.5t-31.5 50t-56.5 41.5t-86 37v-373z" />
<glyph unicode="%" horiz-adv-x="1705" d="M80 1083q0 178 93 280.5t251 102.5q153 0 237.5 -95t84.5 -267t-94.5 -275.5t-247.5 -103.5q-148 0 -236 97.5t-88 260.5zM213 1092q0 -121 54 -188.5t147 -67.5q94 0 147 70t53 194q0 121 -52.5 188.5t-143.5 67.5q-95 0 -150 -70.5t-55 -193.5zM342 63l878 1381 l104 -62l-880 -1382zM934 346q0 178 94 281.5t250 103.5q152 0 237 -96t85 -269q0 -171 -94.5 -274.5t-247.5 -103.5q-148 0 -236 98t-88 260zM1067 354q0 -119 54 -186.5t147 -67.5q94 0 147 70.5t53 193.5q0 122 -52.5 188t-143.5 66q-96 0 -150.5 -70t-54.5 -194z" />
<glyph unicode="&#x26;" horiz-adv-x="1448" d="M119 362q0 252 327 420q-155 198 -155 338q0 146 106.5 242t270.5 96q156 0 249 -85t93 -214q0 -127 -69 -216.5t-255 -182.5q206 -218 375 -383q110 162 115 381h151q-1 -272 -172 -486q41 -40 271 -272h-230l-154 158q-194 -182 -468 -182q-213 0 -334 109t-121 277z M286 368q0 -112 81.5 -183t206.5 -71q220 0 374 142q-140 142 -410 426q-252 -123 -252 -314zM454 1120q0 -109 142 -266q254 122 254 291q0 77 -52.5 129.5t-125.5 52.5q-100 0 -159 -58t-59 -149z" />
<glyph unicode="'" horiz-adv-x="425" d="M143 1045v561h142v-561h-142z" />
<glyph unicode="(" horiz-adv-x="921" d="M171 728q0 172 37.5 342.5t113 325t191.5 288.5t273 237l82 -111q-140 -87 -245 -206t-173.5 -260t-102.5 -297t-34 -317q0 -166 36 -330t105.5 -313.5t171.5 -278t234 -222.5l-89 -103q-146 108 -258 249t-187.5 302.5t-115 338t-39.5 355.5z" />
<glyph unicode=")" horiz-adv-x="921" d="M94 1810l83 111q150 -125 264 -269t189.5 -300.5t114 -322t38.5 -332.5q0 -164 -37 -326.5t-110.5 -318t-185 -299t-260.5 -270.5l-87 103q135 109 236 240.5t168.5 276.5t100.5 299t33 308q0 159 -34.5 314t-103 297t-171 266.5t-238.5 222.5z" />
<glyph unicode="*" horiz-adv-x="1382" d="M171 1538l72 116l379 -224v414h135v-422l388 193l66 -122l-373 -208l368 -224l-72 -116l-377 229v-433h-135v446l-379 -208l-66 121l364 219z" />
<glyph unicode="+" horiz-adv-x="1559" d="M82 657v142h625v614h143v-614h624v-142h-625v-633h-142v633h-625z" />
<glyph unicode="," horiz-adv-x="691" d="M174 -329q54 13 98.5 45t75.5 73t48.5 87.5t17.5 89.5q0 34 -10.5 63t-33 50.5t-57.5 34.5t-83 13h-22l43 134q78 0 136.5 -24.5t95.5 -65.5t55 -95t18 -112q0 -61 -19 -124t-56.5 -118t-92.5 -98.5t-127 -66.5z" />
<glyph unicode="-" horiz-adv-x="921" d="M119 552v142h683v-142h-683z" />
<glyph unicode="." horiz-adv-x="691" d="M188 119q0 34 12 63t33 50.5t50 34t63 12.5q72 0 116 -43.5t44 -116.5q0 -33 -12.5 -61t-35 -50t-51.5 -34.5t-61 -12.5q-33 0 -61.5 12.5t-50 34.5t-34 50t-12.5 61z" />
<glyph unicode="/" horiz-adv-x="768" d="M3 -235l685 2132l142 -45l-686 -2131z" />
<glyph unicode="0" d="M98 733q0 177 25.5 317t81 236.5t144 147.5t214.5 51q119 0 207 -50.5t146 -147t87 -236.5t29 -318q0 -177 -25.5 -317t-82 -237t-145.5 -148t-216 -51q-118 0 -205.5 51t-145 148t-86 237t-28.5 317zM283 733q0 -150 15 -262t48 -186.5t86.5 -112t130.5 -37.5t131 37 t88.5 111t50 186.5t15.5 263.5q0 150 -15.5 262t-50 186t-88.5 111t-131 37t-130.5 -37t-86.5 -111t-48 -186t-15 -262z" />
<glyph unicode="1" d="M178 1163l383 299h150v-1462h-176v913q0 43 0.5 92t2 97.5t3 93t2.5 78.5q-17 -18 -30 -31t-26.5 -25t-28.5 -25.5t-36 -31.5l-148 -121z" />
<glyph unicode="2" d="M96 0v156l350 381q75 81 134 148t100.5 131t63.5 128.5t22 140.5q0 59 -17 104t-48.5 76.5t-74.5 47.5t-96 16q-95 0 -171.5 -38.5t-145.5 -98.5l-102 119q40 36 86 67.5t99 54.5t112 36.5t124 13.5q96 0 173.5 -27t131.5 -77.5t83.5 -123t29.5 -163.5q0 -85 -26.5 -162 t-73 -151.5t-111 -149.5t-139.5 -156l-281 -299v-8h689v-166h-912z" />
<glyph unicode="3" d="M82 59v170q87 -46 188.5 -71t194.5 -25q92 0 159 20t110.5 57t64 91t20.5 121q0 68 -26.5 116.5t-75.5 80t-119.5 46.5t-159.5 15h-133v151h133q81 0 144 20t105.5 57t64.5 88t22 112q0 52 -18 93t-51 69.5t-79 43.5t-102 15q-107 0 -188.5 -33.5t-155.5 -87.5l-92 125 q38 31 84.5 58t101.5 47.5t117.5 32.5t132.5 12q108 0 189.5 -27t136.5 -75.5t83 -115t28 -145.5q0 -73 -23 -133t-64.5 -104t-99.5 -72.5t-129 -40.5v-6q177 -22 269 -112.5t92 -235.5q0 -96 -32.5 -176t-98.5 -138t-167 -90t-239 -32q-109 0 -205.5 17t-181.5 62z" />
<glyph unicode="4" d="M23 328v159l663 983h188v-976h213v-166h-213v-328h-176v328h-675zM201 494h497v356q0 56 1.5 117.5t3.5 120t4.5 109.5t3.5 85h-9q-7 -20 -17.5 -44.5t-23 -49t-25.5 -47.5t-24 -39z" />
<glyph unicode="5" d="M131 59v172q33 -23 77.5 -41t93.5 -30t98.5 -18.5t91.5 -6.5q79 0 141 18.5t105 57.5t66 98t23 140q0 143 -88 218.5t-256 75.5q-27 0 -58.5 -2.5t-63 -6.5t-60 -8.5t-49.5 -8.5l-90 57l55 688h690v-166h-532l-39 -419q32 6 84.5 13t124.5 7q99 0 184.5 -27.5t149 -81.5 t99.5 -134t36 -185q0 -114 -34 -205t-101 -154t-165.5 -96.5t-226.5 -33.5q-51 0 -100.5 5t-95 14.5t-86.5 24.5t-74 35z" />
<glyph unicode="6" d="M113 625q0 105 10.5 209t37 199.5t72.5 177.5t117 142.5t170 95t232 34.5q19 0 42 -1t46.5 -3.5t45 -6t38.5 -8.5v-155q-35 12 -79 18t-87 6q-90 0 -158.5 -21.5t-118.5 -60.5t-83.5 -93t-54.5 -119.5t-31 -139.5t-13 -154h12q20 36 48.5 67.5t66.5 54t85.5 35.5 t106.5 13q95 0 172 -29.5t131 -86.5t83.5 -139.5t29.5 -188.5q0 -114 -31 -205t-89 -154.5t-140 -97.5t-184 -34q-100 0 -187.5 39t-151.5 119t-101 201t-37 286zM295 506q0 -67 18.5 -133.5t55 -119.5t91.5 -86.5t128 -33.5q60 0 109.5 20.5t85.5 62t55.5 105t19.5 150.5 q0 70 -16.5 125.5t-49.5 94.5t-82.5 60t-115.5 21q-67 0 -122.5 -23.5t-94.5 -61t-60.5 -85.5t-21.5 -96z" />
<glyph unicode="7" d="M90 1296v166h940v-145l-555 -1317h-194l563 1296h-754z" />
<glyph unicode="8" d="M106 373q0 75 22.5 135t60.5 108t90 85t110 65q-49 31 -92 67.5t-74.5 81.5t-50 99.5t-18.5 120.5q0 87 33.5 152.5t90.5 109.5t131.5 66t155.5 22q84 0 158.5 -22t131 -66t89.5 -110t33 -154q0 -67 -20 -121t-55 -97.5t-83 -78t-104 -62.5q58 -31 113.5 -69t99 -85.5 t70 -106.5t26.5 -132q0 -92 -33.5 -166.5t-94 -126.5t-145 -80t-186.5 -28q-110 0 -195.5 27t-144 77.5t-89 123.5t-30.5 165zM285 371q0 -53 16 -97.5t50 -76t86 -49t124 -17.5q70 0 123.5 17.5t89.5 50t54 78.5t18 102q0 52 -19.5 94t-56 78t-87.5 68t-114 63l-30 14 q-126 -60 -190 -137.5t-64 -187.5zM332 1126q0 -57 17.5 -98t48.5 -73t74.5 -57.5t94.5 -49.5q48 22 90.5 48t74 59t49.5 75t18 96q0 101 -63 154t-173 53q-106 0 -168.5 -53t-62.5 -154z" />
<glyph unicode="9" d="M106 991q0 114 31.5 205.5t89 155t140 97.5t184.5 34q101 0 188 -39t151 -119t101 -201.5t37 -285.5q0 -105 -10.5 -209.5t-37 -199.5t-72.5 -177.5t-117 -142.5t-170 -94.5t-232 -34.5q-19 0 -42 1t-46 3.5t-45 5.5t-39 8v156q35 -13 79 -19t87 -6q135 0 222 47 t138 127.5t72.5 187.5t26.5 226h-13q-20 -36 -48 -67t-66 -54t-86 -36t-107 -13q-95 0 -172 29.5t-131 86.5t-83.5 139.5t-29.5 188.5zM283 991q0 -70 16.5 -125.5t49.5 -94.5t82.5 -60t115.5 -21q68 0 123 23.5t94 61t60.5 85.5t21.5 96q0 67 -18.5 133.5t-55 120 t-91.5 86.5t-128 33q-60 0 -109.5 -20t-85.5 -62t-55.5 -105.5t-19.5 -150.5z" />
<glyph unicode=":" horiz-adv-x="768" d="M208 191q0 33 12.5 62.5t34.5 51.5t51.5 35t62.5 13t62.5 -13t51.5 -35t35 -51.5t13 -62.5t-13 -62.5t-35 -51.5t-51.5 -34.5t-62.5 -12.5t-62.5 12.5t-51.5 34.5t-34.5 51.5t-12.5 62.5zM208 1104q0 33 12.5 62.5t34.5 51.5t51.5 35t62.5 13t62.5 -13t51.5 -35t35 -51.5 t13 -62.5t-13 -62.5t-35 -51.5t-51.5 -34.5t-62.5 -12.5t-62.5 12.5t-51.5 34.5t-34.5 51.5t-12.5 62.5z" />
<glyph unicode=";" horiz-adv-x="768" d="M153 169q77 43 127.5 65t73.5 22q50 0 89.5 -18.5t68 -51t43.5 -77t15 -96.5q0 -143 -92 -259q-28 -38 -80 -83t-127 -102l-83 110q243 172 243 337q0 80 -69 100l-43 -8l-87 -58zM187 997q0 33 12.5 62.5t34.5 51.5t51.5 35t62.5 13t62.5 -13t51.5 -35t35 -51.5 t13 -62.5t-13 -62.5t-35 -51.5t-51.5 -34.5t-62.5 -12.5t-62.5 12.5t-51.5 34.5t-34.5 51.5t-12.5 62.5z" />
<glyph unicode="&#x3c;" horiz-adv-x="1559" d="M74 647v141l1383 642l60 -142l-1208 -566l1200 -567l-60 -139z" />
<glyph unicode="=" horiz-adv-x="1559" d="M82 364v177h1395v-177h-1395zM82 902v177h1395v-177h-1395z" />
<glyph unicode="&#x3e;" horiz-adv-x="1559" d="M85 1288l62 142l1383 -642v-141l-1375 -631l-61 139l1199 567z" />
<glyph unicode="?" horiz-adv-x="853" d="M150 1289q0 47 29 85.5t73 66.5t94 43.5t91 15.5q61 0 122 -25.5t109.5 -68.5t79 -99.5t30.5 -118.5v-15q-6 -75 -27 -133.5t-57.5 -109t-87.5 -98.5t-116 -103q-103 -86 -103 -131q0 -73 69 -119l-82 -106q-59 39 -87.5 96t-28.5 133q0 57 27.5 103.5t70 89t91 83t91 85 t70.5 96.5t28 117q0 38 -16.5 71.5t-43.5 59t-61 40.5t-72 15q-19 0 -45.5 -8t-50.5 -21t-41.5 -27.5t-17.5 -27.5q0 -50 99 -74l-21 -138q-216 37 -216 223zM274 148q0 46 32.5 78.5t78.5 32.5q45 0 78 -32.5t33 -78.5t-33 -78t-78 -32q-46 0 -78.5 32t-32.5 78z" />
<glyph unicode="@" horiz-adv-x="1955" d="M172 606q0 366 233.5 607t596.5 241q340 0 563 -202t223 -527q0 -238 -117.5 -390.5t-286.5 -152.5q-219 0 -220 238h-5q-73 -238 -287 -238q-137 0 -220.5 101t-83.5 272q0 226 115.5 375.5t303.5 149.5q72 0 128.5 -37t72.5 -93h4q2 28 10 115h125q-47 -551 -47 -561 q0 -207 119 -207q108 0 179.5 117t71.5 303q0 275 -174 449t-482 174q-297 0 -491 -208t-194 -520q0 -307 184.5 -495.5t497.5 -188.5q247 0 422 82v-124q-173 -74 -432 -74q-364 0 -586.5 219.5t-222.5 574.5zM708 553q0 -118 51.5 -186t137.5 -68q124 0 196.5 123.5 t72.5 327.5q0 214 -181 214q-124 0 -200.5 -118t-76.5 -293z" />
<glyph unicode="A" horiz-adv-x="1245" d="M0 0l537 1468h170l538 -1468h-190l-160 453h-545l-162 -453h-188zM410 618h426l-148 424q-6 18 -14.5 44t-17.5 56t-18 62.5t-17 63.5q-7 -31 -16 -64t-18 -63.5t-17.5 -56t-14.5 -42.5z" />
<glyph unicode="B" horiz-adv-x="1272" d="M199 0v1462h399q128 0 225.5 -19.5t163 -63t98.5 -114t33 -173.5q0 -62 -19.5 -116t-56.5 -95t-91.5 -68.5t-123.5 -36.5v-10q69 -12 129.5 -34.5t105.5 -62t71 -99.5t26 -146q0 -100 -32.5 -178.5t-94 -133t-149.5 -83.5t-199 -29h-485zM385 158h266q88 0 147.5 20 t96 56t52.5 86.5t16 111.5q0 56 -16.5 103t-54 80.5t-99.5 52t-154 18.5h-254v-528zM385 842h244q84 0 141 15t92 44.5t50.5 74t15.5 103.5q0 120 -77 172t-243 52h-223v-461z" />
<glyph unicode="C" horiz-adv-x="1235" d="M125 733q0 166 43.5 304t128 237t209.5 154t287 55q108 0 206 -22t177 -64l-78 -156q-63 32 -137 55t-168 23q-107 0 -194 -40.5t-148.5 -116.5t-95 -185t-33.5 -246q0 -141 29.5 -250.5t88.5 -184.5t147 -114t206 -39q89 0 169 17.5t158 40.5v-162q-39 -15 -78 -26.5 t-81.5 -18.5t-91 -10.5t-107.5 -3.5q-164 0 -284 54t-198.5 153t-116.5 238t-38 308z" />
<glyph unicode="D" horiz-adv-x="1401" d="M199 0v1462h407q153 0 277 -46t211 -136.5t134.5 -224.5t47.5 -310q0 -185 -48 -324.5t-139 -233t-223.5 -140.5t-300.5 -47h-366zM385 160h162q264 0 398 146t134 433q0 146 -33 252.5t-96 175.5t-155 102.5t-209 33.5h-201v-1143z" />
<glyph unicode="E" horiz-adv-x="1081" d="M199 0v1462h759v-164h-573v-452h535v-162h-535v-520h573v-164h-759z" />
<glyph unicode="F" horiz-adv-x="1006" d="M199 0v1462h759v-164h-573v-516h535v-164h-535v-618h-186z" />
<glyph unicode="G" horiz-adv-x="1413" d="M125 733q0 172 47.5 311t138.5 236.5t224.5 150t304.5 52.5q111 0 213 -22t190 -64l-72 -162q-36 17 -77.5 32t-85.5 26.5t-90.5 18.5t-92.5 7q-122 0 -216 -40.5t-157.5 -116.5t-96.5 -185t-33 -246q0 -130 27.5 -238t87.5 -186t155 -121t229 -43q44 0 80.5 2.5 t67.5 6.5t58.5 9.5t53.5 10.5v436h-299v164h484v-717q-55 -18 -111 -32t-115 -23.5t-124 -14.5t-140 -5q-157 0 -278 52.5t-204 150t-126 237t-43 313.5z" />
<glyph unicode="H" horiz-adv-x="1436" d="M199 0v1462h186v-616h666v616h186v-1462h-186v682h-666v-682h-186z" />
<glyph unicode="I" horiz-adv-x="694" d="M82 0v102l172 41v1176l-172 41v102h530v-102l-172 -41v-1176l172 -41v-102h-530z" />
<glyph unicode="J" horiz-adv-x="555" d="M-184 -205q34 -9 73 -14.5t84 -5.5q37 0 74.5 9.5t68 34.5t49.5 69t19 112v1462h187v-1442q0 -105 -29.5 -182t-82 -127.5t-126 -75t-162.5 -24.5q-51 0 -89 6.5t-66 17.5v160z" />
<glyph unicode="K" horiz-adv-x="1186" d="M199 0v1462h186v-731l121 168l452 563h209l-520 -637l539 -825h-211l-451 698l-139 -114v-584h-186z" />
<glyph unicode="L" horiz-adv-x="1006" d="M199 0v1462h186v-1296h573v-166h-759z" />
<glyph unicode="M" horiz-adv-x="1782" d="M199 0v1462h276l412 -1192h6l414 1192h276v-1462h-186v887q0 52 2 119t5 128q4 71 7 144h-8l-447 -1278h-153l-443 1280h-8q6 -74 10 -147q4 -63 6.5 -132.5t2.5 -126.5v-874h-172z" />
<glyph unicode="N" horiz-adv-x="1493" d="M199 0v1462h213l716 -1204h7q-3 76 -7 150q-1 32 -2.5 65.5l-3 67t-2 64.5t-0.5 57v800h174v-1462h-215l-719 1210h-8q6 -77 10 -153q4 -65 6.5 -136t2.5 -128v-793h-172z" />
<glyph unicode="O" horiz-adv-x="1520" d="M125 735q0 170 38 308.5t117 236.5t199 151.5t283 53.5q155 0 272.5 -53.5t197.5 -152t120.5 -237t40.5 -309.5q0 -169 -40.5 -308t-120.5 -238t-198.5 -153t-273.5 -54q-163 0 -282.5 54t-198 153t-116.5 238.5t-38 309.5zM322 733q0 -137 26 -246.5t79.5 -186t136 -117 t196.5 -40.5t196.5 40.5t136 117t78.5 186t25 246.5q0 138 -25 247t-78 184.5t-135 116t-196 40.5t-197 -40.5t-137 -116t-80 -184.5t-26 -247z" />
<glyph unicode="P" horiz-adv-x="1180" d="M199 0v1462h362q134 0 231 -28.5t160 -83t93 -134.5t30 -182q0 -91 -27.5 -175t-90.5 -148.5t-166.5 -103t-255.5 -38.5h-150v-569h-186zM385 727h129q93 0 162.5 16t115 51.5t68.5 92t23 137.5q0 142 -82 210.5t-256 68.5h-160v-576z" />
<glyph unicode="Q" horiz-adv-x="1518" d="M125 735q0 170 38 308.5t117 236.5t199 151.5t283 53.5q155 0 272.5 -53.5t197.5 -152t120.5 -237t40.5 -309.5q0 -131 -24.5 -244t-72 -203.5t-118.5 -156.5t-164 -104q43 -94 111.5 -165.5t158.5 -131.5l-121 -142q-103 73 -189.5 172t-137.5 226q-17 -2 -37.5 -3 t-38.5 -1q-163 0 -282.5 54t-198 153t-116.5 238.5t-38 309.5zM322 733q0 -137 26 -246.5t79.5 -186t136 -117t196.5 -40.5t196.5 40.5t136 117t78.5 186t25 246.5q0 138 -25 247t-78 184.5t-135 116t-196 40.5t-197 -40.5t-137 -116t-80 -184.5t-26 -247z" />
<glyph unicode="R" horiz-adv-x="1208" d="M199 0v1462h356q266 0 393 -103t127 -312q0 -87 -24.5 -152t-65 -111.5t-92.5 -77.5t-107 -51l398 -655h-219l-351 604h-229v-604h-186zM385 762h164q90 0 153 17.5t103.5 52t59 86t18.5 120.5q0 72 -20.5 122t-62 82t-105 46.5t-150.5 14.5h-160v-541z" />
<glyph unicode="S" horiz-adv-x="1063" d="M104 49v178q34 -16 77.5 -31.5t91.5 -27.5t99 -19.5t101 -7.5q160 0 236.5 60t76.5 172q0 54 -14.5 94t-51 73.5t-97.5 65t-154 68.5q-89 35 -154.5 76.5t-108 93.5t-63 118t-20.5 150q0 88 32 157t90 116.5t138.5 72.5t177.5 25q119 0 214 -22.5t169 -57.5l-67 -156 q-65 29 -147.5 50.5t-170.5 21.5q-122 0 -189 -56.5t-67 -152.5q0 -57 15 -98.5t50 -75t92.5 -63t141.5 -62.5q91 -36 159.5 -74t114.5 -86t69.5 -111t23.5 -149q0 -97 -34.5 -173.5t-98.5 -129.5t-156 -80.5t-207 -27.5q-111 0 -207.5 17.5t-161.5 51.5z" />
<glyph unicode="T" horiz-adv-x="1063" d="M20 1298v164h1022v-164h-417v-1298h-187v1298h-418z" />
<glyph unicode="U" horiz-adv-x="1430" d="M184 520v942h187v-952q0 -175 86.5 -271t261.5 -96q89 0 153 27t105 76t61 117t21 149v952h186v-948q0 -114 -33 -212t-99.5 -170t-167 -113t-236.5 -41q-128 0 -226 38.5t-164.5 109.5t-100.5 170.5t-34 221.5z" />
<glyph unicode="V" horiz-adv-x="1163" d="M0 1462h197l295 -927q29 -91 50 -175.5t38 -158.5q15 74 38 158.5t54 181.5l293 921h198l-489 -1462h-187z" />
<glyph unicode="W" horiz-adv-x="1810" d="M20 1462h197l223 -889q12 -46 22 -95.5t18.5 -98.5t15.5 -94.5t12 -83.5q5 37 12.5 86t17.5 103t21.5 109.5t24.5 104.5l225 858h197l229 -856q15 -56 29.5 -112t27 -108.5t22 -99.5t15.5 -85q4 38 10 83t14 94.5t17.5 101t20.5 100.5l200 882h199l-367 -1462h-188 l-254 938q-14 51 -27 105t-24 101q-12 55 -23 107q-11 -51 -22 -106q-10 -47 -22.5 -103t-26.5 -110l-242 -932h-188z" />
<glyph unicode="X" horiz-adv-x="1120" d="M0 0l453 764l-422 698h198l332 -559l334 559h190l-421 -692l456 -770h-211l-354 635l-367 -635h-188z" />
<glyph unicode="Y" horiz-adv-x="1079" d="M0 1462h203l336 -739l340 739h200l-446 -893v-569h-187v559z" />
<glyph unicode="Z" horiz-adv-x="1104" d="M82 0v145l711 1151h-691v166h899v-145l-710 -1151h731v-166h-940z" />
<glyph unicode="[" horiz-adv-x="600" d="M176 -400v2315h374v-144h-232v-2032h233v-139h-375z" />
<glyph unicode="\" horiz-adv-x="776" d="M-50 1852l142 45l684 -2132l-140 -44z" />
<glyph unicode="]" horiz-adv-x="600" d="M96 -261h233v2032h-232v144h374v-2315h-375v139z" />
<glyph unicode="^" horiz-adv-x="1090" d="M41 549l459 924h102l447 -924h-161l-337 735l-349 -735h-161z" />
<glyph unicode="_" horiz-adv-x="842" d="M-4 -184h850v-140h-850v140z" />
<glyph unicode="`" horiz-adv-x="1182" d="M393 1548v21h219q16 -34 37.5 -74.5t44.5 -81t47 -78.5t45 -67v-27h-120q-35 28 -76 69.5t-79.5 85.5t-70 84.5t-47.5 67.5z" />
<glyph unicode="a" horiz-adv-x="1087" d="M94 307q0 164 115.5 252t351.5 96l184 7v69q0 67 -14.5 112t-42 72.5t-68 39.5t-92.5 12q-83 0 -154.5 -24t-137.5 -58l-64 137q74 40 165 68t191 28q102 0 176.5 -20.5t123 -65t72.5 -113.5t24 -167v-752h-131l-37 152h-8q-33 -45 -66 -77.5t-72 -53.5t-87 -31t-111 -10 q-69 0 -127 19.5t-100.5 60t-66.5 102t-24 145.5zM283 305q0 -92 48.5 -135t127.5 -43q61 0 113 19t90 57.5t59.5 97t21.5 137.5v99l-143 -7q-90 -4 -151 -20t-97.5 -44.5t-52.5 -69t-16 -91.5z" />
<glyph unicode="b" horiz-adv-x="1200" d="M174 0v1556h182v-376q0 -35 -1 -74.5t-3 -73.5q-2 -40 -4 -78h8q23 35 52 65t67.5 52t86.5 34.5t108 12.5q94 0 171 -36t131.5 -107.5t84.5 -177.5t30 -246q0 -141 -30 -247.5t-84.5 -178.5t-131.5 -108.5t-171 -36.5q-59 0 -107 13t-86.5 34.5t-68 50.5t-52.5 61h-12 l-37 -139h-133zM356 551q0 -101 13.5 -179.5t46 -132t86.5 -81t135 -27.5q135 0 198.5 109t63.5 313q0 208 -63.5 311t-200.5 103q-80 0 -133.5 -25.5t-86 -77.5t-46 -130t-13.5 -183z" />
<glyph unicode="c" horiz-adv-x="948" d="M113 543q0 157 38 266.5t104.5 178t155.5 99.5t191 31q78 0 152.5 -17t124.5 -42l-54 -154q-23 10 -51 19.5t-58 17t-59 12t-55 4.5q-157 0 -229 -100.5t-72 -312.5q0 -211 72.5 -308.5t220.5 -97.5q81 0 146.5 18.5t119.5 43.5v-162q-54 -29 -115.5 -44t-150.5 -15 q-101 0 -189 31.5t-153 100t-102 175t-37 256.5z" />
<glyph unicode="d" horiz-adv-x="1200" d="M113 547q0 141 30 247.5t85 178.5t132 108.5t170 36.5q59 0 107 -13t86.5 -35t68.5 -51t52 -61h12q-3 34 -6 65q-2 26 -4 53.5t-2 43.5v436h182v-1556h-147l-27 147h-8q-22 -34 -51.5 -64.5t-68 -53.5t-86.5 -36t-108 -13q-93 0 -170 36t-132 107.5t-85 177.5t-30 246z M301 545q0 -209 63.5 -311.5t200.5 -102.5q76 0 128.5 23t85 70t48 117.5t17.5 164.5v41q0 101 -13.5 179.5t-46 132t-86.5 81t-135 27.5q-135 0 -198.5 -109t-63.5 -313z" />
<glyph unicode="e" horiz-adv-x="1096" d="M113 541q0 136 33 243t93 181.5t143.5 113.5t184.5 39q99 0 178 -35.5t134 -100t84.5 -155t29.5 -200.5v-113h-692q5 -193 81.5 -284t227.5 -91q51 0 94.5 5t84 14.5t78.5 24t77 32.5v-162q-40 -19 -78.5 -33t-79 -23t-84 -13t-94.5 -4q-110 0 -201 37t-156.5 108 t-101.5 176t-36 240zM305 662h492q0 68 -13.5 124.5t-42 96.5t-72.5 62t-106 22q-114 0 -180.5 -78t-77.5 -227z" />
<glyph unicode="f" horiz-adv-x="674" d="M29 961v75l194 68v96q0 107 22.5 177.5t65 112.5t104.5 59.5t140 17.5q59 0 108.5 -11.5t88.5 -25.5l-47 -141q-31 11 -67.5 19.5t-76.5 8.5t-69 -9.5t-48 -33.5t-28.5 -65.5t-9.5 -106.5v-104h245v-137h-245v-961h-183v961h-194z" />
<glyph unicode="g" horiz-adv-x="1061" d="M37 -186q0 60 19.5 105.5t52.5 78.5t76.5 54t90.5 32q-42 19 -69 60t-27 94q0 61 32 105.5t101 86.5q-43 18 -78.5 49.5t-60 72t-38 88.5t-13.5 99q0 89 25 159t74 119t122 75t170 26q37 0 76.5 -5.5t66.5 -14.5h363v-113l-197 -27q28 -35 47 -89.5t19 -123.5 q0 -76 -23.5 -140.5t-71 -111.5t-117.5 -73.5t-163 -26.5q-22 0 -44 0.5t-36 3.5q-17 -10 -33.5 -22.5t-30 -28.5t-22 -36t-8.5 -44q0 -27 12 -43.5t32.5 -25.5t48.5 -12t59 -3h176q93 0 157 -23.5t104.5 -63.5t58.5 -94.5t18 -115.5q0 -88 -32.5 -158t-99.5 -118.5 t-169.5 -74.5t-241.5 -26q-107 0 -187 21t-133 61t-79.5 96.5t-26.5 127.5zM209 -180q0 -37 13 -69t42.5 -55t78 -36.5t120.5 -13.5q186 0 278.5 57.5t92.5 165.5q0 46 -12 75t-39.5 45.5t-72.5 22.5t-110 6h-176q-35 0 -73 -8t-69.5 -30t-52 -60.5t-20.5 -99.5zM301 745 q0 -115 54 -171t153 -56q100 0 151.5 55.5t51.5 174.5q0 123 -52.5 181t-152.5 58q-99 0 -152 -60t-53 -182z" />
<glyph unicode="h" horiz-adv-x="1206" d="M174 0v1556h182v-462l-8 -144h10q25 43 59.5 74.5t75.5 52.5t87 31t94 10q183 0 275.5 -95.5t92.5 -305.5v-717h-182v707q0 130 -52.5 195t-164.5 65q-81 0 -136 -26t-88.5 -77t-48 -125t-14.5 -170v-569h-182z" />
<glyph unicode="i" horiz-adv-x="530" d="M160 1395q0 60 30.5 87t75.5 27q22 0 41.5 -6.5t34 -20.5t23 -35.5t8.5 -51.5q0 -58 -31.5 -86.5t-75.5 -28.5q-45 0 -75.5 28t-30.5 87zM174 0v1098h182v-1098h-182z" />
<glyph unicode="j" horiz-adv-x="530" d="M-68 -319q26 -10 53 -15.5t62 -5.5q27 0 50 7.5t40.5 27t27 52t9.5 83.5v1268h182v-1256q0 -77 -17 -138.5t-53 -105t-90.5 -67t-129.5 -23.5q-48 0 -79.5 7t-54.5 18v148zM160 1395q0 60 30.5 87t75.5 27q22 0 41.5 -6.5t34 -20.5t23 -35.5t8.5 -51.5q0 -58 -31.5 -86.5 t-75.5 -28.5q-45 0 -75.5 28t-30.5 87z" />
<glyph unicode="k" horiz-adv-x="1016" d="M174 0v1556h180v-714l-16 -275h4l135 170l293 361h211l-401 -475l428 -623h-209l-336 504l-109 -82v-422h-180z" />
<glyph unicode="l" horiz-adv-x="530" d="M174 0v1556h182v-1556h-182z" />
<glyph unicode="m" horiz-adv-x="1835" d="M174 0v1098h148l26 -148h10q24 43 57 74.5t72.5 52.5t84 31t90.5 10q120 0 199.5 -44t117.5 -138h8q26 47 62.5 81t80 56.5t91.5 33.5t98 11q175 0 263.5 -95.5t88.5 -305.5v-717h-182v707q0 130 -50 195t-155 65q-73 0 -124 -23.5t-83.5 -69t-47.5 -113t-15 -155.5v-606 h-183v707q0 130 -49.5 195t-154.5 65q-77 0 -129 -26t-83.5 -77t-45 -125t-13.5 -170v-569h-182z" />
<glyph unicode="n" horiz-adv-x="1206" d="M174 0v1098h148l26 -148h10q25 43 59.5 74.5t75.5 52.5t87 31t94 10q183 0 275.5 -95.5t92.5 -305.5v-717h-182v707q0 130 -52.5 195t-164.5 65q-81 0 -136 -26t-88.5 -77t-48 -125t-14.5 -170v-569h-182z" />
<glyph unicode="o" horiz-adv-x="1182" d="M113 551q0 136 33.5 241.5t95.5 178t151.5 110t200.5 37.5q103 0 190 -37.5t150.5 -110t99 -178t35.5 -241.5q0 -137 -33.5 -243.5t-96 -179t-151.5 -110.5t-200 -38q-103 0 -190 38t-150.5 110.5t-99 179t-35.5 243.5zM301 551q0 -209 68.5 -314.5t222.5 -105.5 t221.5 105.5t67.5 314.5t-68.5 312.5t-222.5 103.5t-221.5 -103.5t-67.5 -312.5z" />
<glyph unicode="p" horiz-adv-x="1200" d="M174 -492v1590h148l26 -148h8q23 35 52 65.5t67.5 53t86.5 36t108 13.5q94 0 171 -36t131.5 -107.5t84.5 -177.5t30 -246q0 -141 -30 -247.5t-84.5 -178.5t-131.5 -108.5t-171 -36.5q-59 0 -107 13t-86.5 34.5t-68 50.5t-52.5 61h-12q3 -34 6 -65q2 -26 4 -53.5t2 -43.5 v-469h-182zM356 551q0 -101 13.5 -179.5t46 -132t86.5 -81t135 -27.5q135 0 198.5 109t63.5 313q0 208 -63.5 311t-200.5 103q-76 0 -128.5 -23t-85 -70t-48 -117t-17.5 -165v-41z" />
<glyph unicode="q" horiz-adv-x="1200" d="M113 547q0 141 30 247.5t85 178.5t132 108.5t170 36.5q59 0 107 -13.5t86 -36t68 -53t53 -65.5h8l27 148h147v-1590h-182v469q0 19 2 48t4 56q3 32 6 66h-12q-22 -34 -51.5 -64.5t-68 -53.5t-86.5 -36t-108 -13q-93 0 -170 36t-132 107.5t-85 177.5t-30 246zM301 545 q0 -209 63.5 -311.5t200.5 -102.5q76 0 128.5 23t85 70t48 117.5t17.5 164.5v41q0 101 -13.5 179.5t-46 132t-86.5 81t-135 27.5q-135 0 -198.5 -109t-63.5 -313z" />
<glyph unicode="r" horiz-adv-x="817" d="M174 0v1098h148l22 -201h8q25 43 53.5 83t64 70.5t79.5 49t100 18.5q29 0 65 -2.5t62 -7.5l-24 -168q-28 5 -57.5 8.5t-55.5 3.5q-63 0 -115 -25.5t-89.5 -73t-58 -114t-20.5 -147.5v-592h-182z" />
<glyph unicode="s" horiz-adv-x="924" d="M90 49v166q31 -16 69 -31.5t80 -27.5t86.5 -19.5t88.5 -7.5q65 0 110.5 11t74 31.5t41.5 50t13 65.5q0 31 -10 56t-36.5 49.5t-72.5 49.5t-118 56t-129.5 61t-97.5 67t-61.5 85.5t-21.5 115.5q0 70 27.5 124.5t77.5 91.5t120 56t156 19q97 0 177.5 -21t152.5 -55 l-63 -147q-65 29 -133.5 50.5t-139.5 21.5q-102 0 -151 -33.5t-49 -95.5q0 -35 11.5 -61t39.5 -49t75 -46.5t117 -52.5q72 -30 128.5 -60t96.5 -67.5t61 -85.5t21 -115q0 -80 -29 -140t-83.5 -100.5t-131.5 -60.5t-173 -20q-109 0 -187 17.5t-137 51.5z" />
<glyph unicode="t" horiz-adv-x="694" d="M33 961v81l155 78l78 230h105v-252h276v-137h-276v-637q0 -97 31.5 -146t103.5 -49q18 0 40.5 2t43.5 5t38.5 7t26.5 7v-138q-13 -6 -33 -12t-44 -10.5t-50 -7t-51 -2.5q-62 0 -115 16t-91.5 55t-60.5 105.5t-22 167.5v637h-155z" />
<glyph unicode="u" horiz-adv-x="1206" d="M164 381v717h182v-707q0 -130 53 -195t164 -65q81 0 136 26t88.5 76.5t48 124.5t14.5 170v570h182v-1098h-147l-27 147h-10q-25 -43 -59.5 -74.5t-75.5 -52t-87 -30.5t-94 -10q-91 0 -160 23t-115 72t-69.5 125t-23.5 181z" />
<glyph unicode="v" horiz-adv-x="981" d="M0 1098h188l199 -611q11 -33 26 -85t30 -106t27.5 -102t16.5 -73h7q5 25 17 73t27 102t30 106t26 85l199 611h188l-375 -1098h-231z" />
<glyph unicode="w" horiz-adv-x="1528" d="M20 1098h191l131 -584q10 -45 20 -97.5t19 -104t16 -97t11 -74.5h6q5 26 13.5 69.5t19 92t21.5 96t21 80.5l179 619h196l172 -619q9 -34 20.5 -80t22.5 -93.5t20 -91.5t13 -73h6q3 26 9.5 69.5t15.5 95.5t19.5 106.5t21.5 101.5l137 584h186l-284 -1098h-215l-168 616 q-4 18 -10 40.5t-12 47.5t-12.5 51t-12.5 51q-14 58 -29 120h-6q-14 -63 -27 -121q-11 -50 -23.5 -103t-23.5 -90l-172 -612h-211z" />
<glyph unicode="x" horiz-adv-x="1024" d="M35 0l373 563l-353 535h207l250 -410l250 410h207l-355 -535l373 -563h-207l-268 436l-270 -436h-207z" />
<glyph unicode="y" horiz-adv-x="1001" d="M10 1098h189l215 -613q14 -40 28.5 -84t27 -88t21.5 -85t13 -76h6q5 25 16 68t24.5 91.5t28 95.5t25.5 80l199 611h188l-434 -1241q-28 -81 -60.5 -145.5t-75.5 -109.5t-101 -69.5t-138 -24.5q-52 0 -90 5.5t-65 11.5v145q21 -5 53 -8.5t67 -3.5q48 0 83 11.5t61 33.5 t44.5 54t33.5 73l57 160z" />
<glyph unicode="z" horiz-adv-x="903" d="M82 0v125l536 836h-503v137h688v-146l-524 -815h542v-137h-739z" />
<glyph unicode="{" horiz-adv-x="1327" d="M373 655v113q58 41 93 72.5t53 62.5t23.5 67.5t5.5 87.5v546q0 152 80 224q15 12 71.5 43t157.5 81l58 -127q-79 -31 -124.5 -52.5t-67.5 -51t-27.5 -76.5t-5.5 -128v-522q0 -143 -162 -285q84 -66 123 -173.5t39 -270.5v-401q0 -53 3.5 -86t23 -59t61 -50.5t118.5 -59.5 l-58 -124q-93 39 -149.5 74.5t-87.5 85.5t-42 121.5t-11 182.5v417q0 53 -4 88t-21.5 64.5t-52.5 61t-97 74.5z" />
<glyph unicode="|" horiz-adv-x="522" d="M185 -338v2312h142v-2312h-142z" />
<glyph unicode="}" horiz-adv-x="1327" d="M401 1825l58 127q104 -47 166 -83t82 -61q30 -35 49 -107t19 -178v-520q0 -38 3.5 -64t19.5 -50.5t50 -52t94 -68.5l-2 -113q-56 -33 -88.5 -62t-49 -68t-22 -97t-5.5 -149v-326q0 -104 -11.5 -175t-44 -122.5t-90.5 -90.5t-151 -79l-58 124q26 16 60 36.5t66.5 46t57 57 t29.5 70.5v431q0 78 2 135.5t7.5 98.5t16.5 71t27.5 55t41.5 48t60 51q-83 65 -119 160t-36 222v528q-11 50 -26.5 79.5t-42.5 49.5t-66.5 36t-96.5 40z" />
<glyph unicode="~" d="M102 586v162q100 108 248 108q29 0 54 -2.5t52.5 -9t61 -19t80.5 -32.5q37 -16 64.5 -27t51 -17.5t43.5 -9t42 -2.5q28 0 58 9.5t59.5 26t57.5 38.5t52 47v-162q-99 -108 -248 -108q-29 0 -54 2.5t-52.5 9t-61 19t-80.5 32.5q-37 16 -64.5 27t-50 17.5t-43 9t-42.5 2.5 q-28 0 -58 -9.5t-59.5 -26t-57.5 -38.5t-53 -47z" />
<glyph unicode="&#xa1;" horiz-adv-x="551" d="M147 979q0 37 10 63t27.5 43t40.5 25t49 8q27 0 50 -8t40.5 -25t27 -43t9.5 -63q0 -38 -9.5 -64.5t-27 -43t-40.5 -24t-50 -7.5q-26 0 -49 7.5t-40.5 24t-27.5 43t-10 64.5zM162 -373l51 1049h121l51 -1049h-223z" />
<glyph unicode="&#xa2;" d="M188 743q0 141 26.5 242.5t75 169.5t118 105.5t155.5 50.5v172h137v-164q72 -3 140 -19.5t114 -39.5l-53 -154q-23 10 -51 19.5t-58 17t-59.5 12t-54.5 4.5q-157 0 -229 -101t-72 -313q0 -210 72.5 -307.5t220.5 -97.5q81 0 146.5 18.5t119.5 42.5v-161q-50 -28 -105 -43 t-131 -17v-200h-137v206q-87 13 -156 50.5t-118 104t-75 166t-26 236.5z" />
<glyph unicode="&#xa3;" d="M68 0v154q44 11 80.5 31.5t63 54.5t41.5 82.5t15 115.5v213h-198v137h198v324q0 87 29.5 155.5t82 116t125.5 72.5t161 25q106 0 193 -22.5t153 -57.5l-66 -144q-56 29 -126.5 50.5t-145.5 21.5q-48 0 -89 -13.5t-71 -43t-46.5 -76.5t-16.5 -113v-295h376v-137h-376v-211 q0 -62 -11.5 -106.5t-31 -76.5t-45 -53.5t-52.5 -37.5h748v-166h-991z" />
<glyph unicode="&#xa4;" d="M123 1065l98 98l127 -129q47 32 101 50t114 18t113.5 -18t99.5 -50l129 129l99 -96l-130 -129q31 -46 49.5 -100.5t18.5 -114.5t-17.5 -115t-50.5 -100l127 -127l-96 -96l-129 127q-46 -31 -99.5 -48.5t-113.5 -17.5t-115 18t-100 50l-127 -127l-96 96l127 127 q-31 45 -48.5 99t-17.5 114q0 59 17.5 112.5t48.5 100.5zM324 723q0 -50 18.5 -93.5t51 -76t76 -51.5t93.5 -19q51 0 95.5 19t77.5 51.5t52 76t19 93.5q0 51 -19 95.5t-52 77.5t-77.5 52t-95.5 19q-50 0 -93.5 -19t-76 -52t-51 -77.5t-18.5 -95.5z" />
<glyph unicode="&#xa5;" d="M29 1462h192l342 -739l346 739h191l-385 -768h239v-137h-301v-158h301v-137h-301v-262h-178v262h-301v137h301v158h-301v137h234z" />
<glyph unicode="&#xa6;" d="M489 289h150v-781h-150v781zM489 776v780h150v-780h-150z" />
<glyph unicode="&#xa7;" horiz-adv-x="995" d="M121 55v158q31 -15 69 -30t80 -26.5t86.5 -18.5t87.5 -7q69 0 115.5 12t74 31.5t39 45t11.5 52.5q0 29 -8.5 51.5t-34 45t-72.5 47t-123 55.5q-73 31 -130.5 62t-97.5 70t-60.5 89t-20.5 117q0 51 13 92.5t35.5 73.5t51.5 54.5t60 37.5q-75 38 -117.5 95t-42.5 141 q0 61 27.5 110t77.5 83t120 52.5t156 18.5q97 0 175.5 -20t150.5 -52l-56 -139q-65 28 -135 47.5t-141 19.5q-99 0 -150 -29.5t-51 -86.5q0 -27 12 -50t40.5 -45t76 -45.5t117.5 -52.5q72 -28 128.5 -60.5t95.5 -71.5t60 -87.5t21 -110.5q0 -52 -12 -94.5t-32.5 -76.5 t-46.5 -58.5t-54 -40.5q69 -38 107 -92.5t38 -132.5q0 -71 -29.5 -126.5t-83.5 -94t-131.5 -58.5t-173.5 -20q-108 0 -186 16.5t-137 48.5zM291 831q0 -37 14 -68.5t45.5 -60.5t82 -56.5t122.5 -57.5l35 -15q20 13 40.5 31t37 41t27 51t10.5 62q0 38 -13 70t-45.5 61.5 t-86.5 58t-136 58.5q-25 -8 -48.5 -23.5t-42.5 -38t-30.5 -51.5t-11.5 -62z" />
<glyph unicode="&#xa8;" horiz-adv-x="1182" d="M307 1395q0 54 28 78t68 24q39 0 68 -24.5t29 -77.5t-29 -78t-68 -25q-40 0 -68 25t-28 78zM682 1395q0 54 28 78t68 24q19 0 36.5 -6t30.5 -18.5t21 -31.5t8 -46q0 -53 -29 -78t-67 -25q-40 0 -68 25t-28 78z" />
<glyph unicode="&#xa9;" horiz-adv-x="1704" d="M100 731q0 104 27 200t75.5 179.5t117.5 152.5t152.5 117.5t179.5 75.5t200 27t200 -27t179.5 -75.5t152.5 -117.5t117.5 -152.5t75.5 -179.5t27 -200t-27 -200t-75.5 -179.5t-117.5 -152t-152.5 -117.5t-179.5 -75.5t-200 -26.5t-200 26.5t-179.5 75.5t-152.5 117.5 t-117.5 152t-75.5 179.5t-27 200zM209 731q0 -133 50.5 -250t138 -204.5t204.5 -138t250 -50.5t250 50.5t204.5 138t138 204.5t50.5 250t-50.5 250t-138 204.5t-204.5 138t-250 50.5t-250 -50.5t-204.5 -138t-138 -204.5t-50.5 -250zM479 733q0 101 27 184.5t79.5 143.5 t129 93.5t176.5 33.5q63 0 129 -16.5t125 -45.5l-62 -127q-52 26 -100.5 40t-91.5 14q-61 0 -108 -22t-79 -63.5t-48.5 -101.5t-16.5 -135q0 -78 14.5 -138t45 -101t78 -62.5t114.5 -21.5q23 0 50 3.5t55.5 9.5t56.5 14.5t53 17.5v-131q-24 -11 -48.5 -20t-51 -16 t-56.5 -10.5t-65 -3.5q-102 0 -178 33t-126.5 94t-76 146t-25.5 188z" />
<glyph unicode="&#xaa;" horiz-adv-x="678" d="M68 989q0 102 70.5 156t213.5 59l99 4v31q0 72 -30.5 100.5t-86.5 28.5q-48 0 -93 -14.5t-87 -36.5l-48 100q51 26 109.5 44t118.5 18q125 0 184.5 -53t59.5 -175v-454h-91l-28 82q-18 -22 -37.5 -39.5t-43 -30t-51.5 -19t-63 -6.5q-43 0 -79 13t-62 38.5t-40.5 64 t-14.5 89.5zM199 987q0 -51 25 -73.5t67 -22.5q34 0 63 10.5t50.5 32.5t34 54.5t12.5 76.5v49l-74 -4q-51 -3 -85 -12t-54.5 -24t-29.5 -36.5t-9 -50.5z" />
<glyph unicode="&#xab;" horiz-adv-x="997" d="M82 526v27l309 414l117 -78l-238 -348l238 -348l-117 -78zM489 526v27l310 414l116 -78l-237 -348l237 -348l-116 -78z" />
<glyph unicode="&#xac;" d="M102 647v150h924v-535h-149v385h-775z" />
<glyph unicode="&#xad;" horiz-adv-x="659" d="M119 552v142h683v-142h-683z" />
<glyph unicode="&#xae;" horiz-adv-x="1704" d="M100 731q0 104 27 200t75.5 179.5t117.5 152.5t152.5 117.5t179.5 75.5t200 27t200 -27t179.5 -75.5t152.5 -117.5t117.5 -152.5t75.5 -179.5t27 -200t-27 -200t-75.5 -179.5t-117.5 -152t-152.5 -117.5t-179.5 -75.5t-200 -26.5t-200 26.5t-179.5 75.5t-152.5 117.5 t-117.5 152t-75.5 179.5t-27 200zM209 731q0 -133 50.5 -250t138 -204.5t204.5 -138t250 -50.5t250 50.5t204.5 138t138 204.5t50.5 250t-50.5 250t-138 204.5t-204.5 138t-250 50.5t-250 -50.5t-204.5 -138t-138 -204.5t-50.5 -250zM586 285v893h233q168 0 247 -65t79 -200 q0 -48 -13.5 -85.5t-36 -66t-51 -48.5t-59.5 -33q67 -110 120 -197q23 -37 44 -72.5t37.5 -63.5t26.5 -45l10 -17h-179l-206 352h-95v-352h-157zM743 768h72q91 0 130.5 36t39.5 105q0 74 -41.5 103.5t-130.5 29.5h-70v-274z" />
<glyph unicode="&#xaf;" horiz-adv-x="1024" d="M-6 1556v140h1036v-140h-1036z" />
<glyph unicode="&#xb0;" horiz-adv-x="877" d="M123 1167q0 65 25 122.5t67.5 100.5t100 68t122.5 25t122.5 -25t100.5 -68t68 -100.5t25 -122.5t-25 -122t-68 -99.5t-100.5 -67t-122.5 -24.5t-122.5 24.5t-100 67t-67.5 99.5t-25 122zM246 1167q0 -39 15 -73.5t41 -60.5t61 -41t75 -15t75 15t61.5 41t41.5 60.5 t15 73.5q0 40 -15 75.5t-41.5 62t-61.5 42t-75 15.5t-75 -15.5t-61 -42t-41 -62t-15 -75.5z" />
<glyph unicode="&#xb1;" d="M102 0v150h924v-150h-924zM102 647v150h387v389h150v-389h387v-150h-387v-385h-150v385h-387z" />
<glyph unicode="&#xb2;" horiz-adv-x="678" d="M49 586v112l209 228q57 62 93 104.5t56 76t27.5 63t7.5 63.5q0 65 -33 97t-87 32q-51 0 -97.5 -25t-91.5 -63l-78 94q54 48 120.5 80.5t148.5 32.5q60 0 108.5 -16.5t82.5 -48t52.5 -77t18.5 -102.5q0 -50 -14.5 -93t-41.5 -85.5t-66.5 -88t-90.5 -100.5l-148 -157h396 v-127h-572z" />
<glyph unicode="&#xb3;" horiz-adv-x="678" d="M31 625v133q63 -34 129 -53t119 -19q98 0 142 41.5t44 114.5q0 74 -53.5 107.5t-149.5 33.5h-98v113h98q92 0 134 39.5t42 103.5q0 32 -10 55.5t-27.5 38.5t-41 22t-50.5 7q-59 0 -107.5 -20.5t-99.5 -57.5l-69 96q29 23 59.5 41.5t64.5 31.5t72 20.5t82 7.5 q69 0 121.5 -17t87.5 -47t52.5 -71.5t17.5 -90.5q0 -78 -40.5 -131t-109.5 -77q88 -23 132 -76t44 -131q0 -60 -20 -110t-61.5 -85.5t-104.5 -55.5t-149 -20q-70 0 -131.5 12.5t-118.5 43.5z" />
<glyph unicode="&#xb4;" horiz-adv-x="1182" d="M393 1241v27q22 29 45.5 67t47 78.5t44.5 81t37 74.5h219v-21q-16 -27 -47.5 -67.5t-70 -84.5t-79 -85.5t-75.5 -69.5h-121z" />
<glyph unicode="&#xb5;" horiz-adv-x="1217" d="M174 -492v1590h182v-707q0 -130 53 -195t164 -65q82 0 137 26t88.5 76.5t47.5 124.5t14 170v570h182v-1098h-147l-27 147h-10q-48 -83 -120 -125t-175 -42q-72 0 -125 23t-88 65q1 -38 3 -78q2 -35 2.5 -77.5t0.5 -84.5v-320h-182z" />
<glyph unicode="&#xb6;" horiz-adv-x="1341" d="M113 1042q0 147 32.5 245.5t92 158.5t142.5 85t183 25h563v-1816h-120v1657h-207v-1657h-121v819q-61 -18 -146 -18q-95 0 -172.5 25.5t-132 84.5t-84.5 155t-30 236z" />
<glyph unicode="&#xb7;" horiz-adv-x="549" d="M147 723q0 38 10 64.5t27 43t40 24t50 7.5q26 0 49.5 -7.5t40.5 -24t27 -43t10 -64.5q0 -37 -10 -63t-27 -43t-40.5 -25t-49.5 -8q-27 0 -50 8t-40 25t-27 43t-10 63z" />
<glyph unicode="&#xb8;" horiz-adv-x="420" d="M35 -375q15 -3 39.5 -4.5t40.5 -1.5q71 0 111 21.5t40 70.5q0 24 -13 41.5t-36 30.5t-54.5 22.5t-68.5 18.5l90 176h121l-57 -115q34 -8 63 -21t50.5 -33.5t34 -49.5t12.5 -68q0 -97 -70.5 -151t-220.5 -54q-22 0 -44.5 3t-37.5 6v108z" />
<glyph unicode="&#xb9;" horiz-adv-x="678" d="M63 1274l244 188h135v-876h-145v516q0 25 0.5 55t2 60t3 58t2.5 50q-14 -17 -33 -37t-41 -37l-94 -73z" />
<glyph unicode="&#xba;" horiz-adv-x="717" d="M66 1133q0 83 20.5 147.5t58.5 108.5t92.5 67t122.5 23q62 0 115.5 -23t92.5 -67t61 -108.5t22 -147.5t-20.5 -148t-59 -109.5t-93 -68t-122.5 -23.5q-63 0 -116 23.5t-92 68t-60.5 109.5t-21.5 148zM197 1133q0 -119 37.5 -179.5t123.5 -60.5q85 0 122.5 60.5 t37.5 179.5q0 120 -37.5 177.5t-122.5 57.5q-86 0 -123.5 -57.5t-37.5 -177.5z" />
<glyph unicode="&#xbb;" horiz-adv-x="997" d="M84 193l238 348l-238 348l117 78l309 -414v-27l-309 -411zM492 193l237 348l-237 348l116 78l310 -414v-27l-310 -411z" />
<glyph unicode="&#xbc;" horiz-adv-x="1509" d="M63 1274l244 188h135v-876h-145v516q0 25 0.5 55t2 60t3 58t2.5 50q-14 -17 -33 -37t-41 -37l-94 -73zM234 0l811 1462h157l-811 -1462h-157zM776 193v111l377 579h141v-563h125v-127h-125v-192h-143v192h-375zM922 320h229v195q0 42 1.5 91.5t4.5 98.5q-5 -11 -15 -29.5 t-21 -39.5t-23 -41l-21 -35z" />
<glyph unicode="&#xbd;" horiz-adv-x="1509" d="M44 1274l244 188h135v-876h-145v516q0 25 0.5 55t2 60t3 58t2.5 50q-14 -17 -33 -37t-41 -37l-94 -73zM213 0l811 1462h157l-811 -1462h-157zM868 1v112l209 228q57 62 93 104.5t56 76t27.5 63t7.5 63.5q0 65 -33 97t-87 32q-51 0 -97.5 -25t-91.5 -63l-78 94 q54 48 120.5 80.5t148.5 32.5q60 0 108.5 -16.5t82.5 -48t52.5 -77t18.5 -102.5q0 -50 -14.5 -93t-41.5 -85.5t-66.5 -88t-90.5 -100.5l-148 -157h396v-127h-572z" />
<glyph unicode="&#xbe;" horiz-adv-x="1509" d="M31 625v133q63 -34 129 -53t119 -19q98 0 142 41.5t44 114.5q0 74 -53.5 107.5t-149.5 33.5h-98v113h98q92 0 134 39.5t42 103.5q0 32 -10 55.5t-27.5 38.5t-41 22t-50.5 7q-59 0 -107.5 -20.5t-99.5 -57.5l-69 96q29 23 59.5 41.5t64.5 31.5t72 20.5t82 7.5 q69 0 121.5 -17t87.5 -47t52.5 -71.5t17.5 -90.5q0 -78 -40.5 -131t-109.5 -77q88 -23 132 -76t44 -131q0 -60 -20 -110t-61.5 -85.5t-104.5 -55.5t-149 -20q-70 0 -131.5 12.5t-118.5 43.5zM328 0l811 1462h157l-811 -1462h-157zM843 193v111l377 579h141v-563h125v-127 h-125v-192h-143v192h-375zM989 320h229v195q0 42 1.5 91.5t4.5 98.5q-5 -11 -15 -29.5t-21 -39.5t-23 -41l-21 -35z" />
<glyph unicode="&#xbf;" horiz-adv-x="872" d="M68 -20q0 68 13.5 120t40 97t67 87t94.5 89q52 45 85 78.5t52 64.5t26 64.5t7 76.5v19h139v-37q0 -58 -8 -103.5t-27.5 -86t-52 -78.5t-82.5 -80q-48 -41 -82 -74.5t-55.5 -68t-32 -74t-10.5 -92.5q0 -48 15 -87.5t43.5 -68t71 -44t97.5 -15.5q84 0 159 25.5t144 60.5 l64 -146q-82 -42 -176 -71t-191 -29q-93 0 -167.5 25.5t-126 73.5t-79.5 117t-28 157zM385 979q0 37 10 63t27.5 43t40.5 25t49 8q27 0 50 -8t40.5 -25t27 -43t9.5 -63q0 -38 -9.5 -64.5t-27 -43t-40.5 -24t-50 -7.5q-26 0 -49 7.5t-40.5 24t-27.5 43t-10 64.5z" />
<glyph unicode="&#xc0;" horiz-adv-x="1245" d="M0 0l537 1468h170l538 -1468h-190l-160 453h-545l-162 -453h-188zM327 1886v21h219q16 -34 37.5 -74.5t44.5 -81t47 -78.5t45 -67v-27h-120q-35 28 -76 69.5t-79.5 85.5t-70 84.5t-47.5 67.5zM410 618h426l-148 424q-6 18 -14.5 44t-17.5 56t-18 62.5t-17 63.5 q-7 -31 -16 -64t-18 -63.5t-17.5 -56t-14.5 -42.5z" />
<glyph unicode="&#xc1;" horiz-adv-x="1245" d="M0 0l537 1468h170l538 -1468h-190l-160 453h-545l-162 -453h-188zM410 618h426l-148 424q-6 18 -14.5 44t-17.5 56t-18 62.5t-17 63.5q-7 -31 -16 -64t-18 -63.5t-17.5 -56t-14.5 -42.5zM534 1579v27q22 29 45.5 67t47 78.5t44.5 81t37 74.5h219v-21q-16 -27 -47.5 -67.5 t-70 -84.5t-79 -85.5t-75.5 -69.5h-121z" />
<glyph unicode="&#xc2;" horiz-adv-x="1245" d="M0 0l537 1468h170l538 -1468h-190l-160 453h-545l-162 -453h-188zM289 1579v27q26 29 60 67t67.5 78.5t63 81t45.5 74.5h192q16 -34 45.5 -74.5t63 -81t68 -78.5t59.5 -67v-27h-121q-51 34 -105 82.5t-106 103.5q-54 -55 -107 -103.5t-104 -82.5h-121zM410 618h426 l-148 424q-6 18 -14.5 44t-17.5 56t-18 62.5t-17 63.5q-7 -31 -16 -64t-18 -63.5t-17.5 -56t-14.5 -42.5z" />
<glyph unicode="&#xc3;" horiz-adv-x="1245" d="M0 0l537 1468h170l538 -1468h-190l-160 453h-545l-162 -453h-188zM264 1579q5 60 21.5 109t43 83.5t63.5 53t83 18.5q42 0 82.5 -17.5t78.5 -38.5t72.5 -38.5t63.5 -17.5q45 0 68 26t38 88h105q-5 -60 -21.5 -108.5t-43 -83t-63.5 -53.5t-83 -19q-40 0 -79.5 17.5 t-77.5 39t-73 39t-67 17.5q-45 0 -69 -26.5t-38 -88.5h-104zM410 618h426l-148 424q-6 18 -14.5 44t-17.5 56t-18 62.5t-17 63.5q-7 -31 -16 -64t-18 -63.5t-17.5 -56t-14.5 -42.5z" />
<glyph unicode="&#xc4;" horiz-adv-x="1245" d="M0 0l537 1468h170l538 -1468h-190l-160 453h-545l-162 -453h-188zM340 1733q0 54 28 78t68 24q39 0 68 -24.5t29 -77.5t-29 -78t-68 -25q-40 0 -68 25t-28 78zM410 618h426l-148 424q-6 18 -14.5 44t-17.5 56t-18 62.5t-17 63.5q-7 -31 -16 -64t-18 -63.5t-17.5 -56 t-14.5 -42.5zM715 1733q0 54 28 78t68 24q19 0 36.5 -6t30.5 -18.5t21 -31.5t8 -46q0 -53 -29 -78t-67 -25q-40 0 -68 25t-28 78z" />
<glyph unicode="&#xc5;" horiz-adv-x="1245" d="M0 0l537 1468h170l538 -1468h-190l-160 453h-545l-162 -453h-188zM396 1581q0 51 16 90.5t45.5 67.5t70.5 42.5t91 14.5q48 0 90 -14.5t73 -42t48.5 -67t17.5 -89.5q0 -51 -17.5 -91.5t-48 -68.5t-72.5 -42.5t-91 -14.5q-50 0 -91 14.5t-70.5 42.5t-45.5 67.5t-16 90.5z M410 618h426l-148 424q-6 18 -14.5 44t-17.5 56t-18 62.5t-17 63.5q-7 -31 -16 -64t-18 -63.5t-17.5 -56t-14.5 -42.5zM506 1581q0 -53 28.5 -83t84.5 -30q49 0 80.5 30t31.5 83t-31.5 83t-80.5 30q-50 0 -81.5 -30t-31.5 -83z" />
<glyph unicode="&#xc6;" horiz-adv-x="1745" d="M-2 0l655 1462h969v-164h-573v-452h534v-162h-534v-520h573v-164h-760v453h-475l-203 -453h-186zM459 618h403v680h-108z" />
<glyph unicode="&#xc7;" horiz-adv-x="1235" d="M125 733q0 166 43.5 304t128 237t209.5 154t287 55q108 0 206 -22t177 -64l-78 -156q-63 32 -137 55t-168 23q-107 0 -194 -40.5t-148.5 -116.5t-95 -185t-33.5 -246q0 -141 29.5 -250.5t88.5 -184.5t147 -114t206 -39q89 0 169 17.5t158 40.5v-162q-39 -15 -78 -26.5 t-81.5 -18.5t-91 -10.5t-107.5 -3.5q-164 0 -284 54t-198.5 153t-116.5 238t-38 308zM543 -375q15 -3 39.5 -4.5t40.5 -1.5q71 0 111 21.5t40 70.5q0 24 -13 41.5t-36 30.5t-54.5 22.5t-68.5 18.5l90 176h121l-57 -115q34 -8 63 -21t50.5 -33.5t34 -49.5t12.5 -68 q0 -97 -70.5 -151t-220.5 -54q-22 0 -44.5 3t-37.5 6v108z" />
<glyph unicode="&#xc8;" horiz-adv-x="1081" d="M199 0v1462h759v-164h-573v-452h535v-162h-535v-520h573v-164h-759zM321 1886v21h219q16 -34 37.5 -74.5t44.5 -81t47 -78.5t45 -67v-27h-120q-35 28 -76 69.5t-79.5 85.5t-70 84.5t-47.5 67.5z" />
<glyph unicode="&#xc9;" horiz-adv-x="1081" d="M199 0v1462h759v-164h-573v-452h535v-162h-535v-520h573v-164h-759zM456 1579v27q22 29 45.5 67t47 78.5t44.5 81t37 74.5h219v-21q-16 -27 -47.5 -67.5t-70 -84.5t-79 -85.5t-75.5 -69.5h-121z" />
<glyph unicode="&#xca;" horiz-adv-x="1081" d="M199 0v1462h759v-164h-573v-452h535v-162h-535v-520h573v-164h-759zM244 1579v27q26 29 60 67t67.5 78.5t63 81t45.5 74.5h192q16 -34 45.5 -74.5t63 -81t68 -78.5t59.5 -67v-27h-121q-51 34 -105 82.5t-106 103.5q-54 -55 -107 -103.5t-104 -82.5h-121z" />
<glyph unicode="&#xcb;" horiz-adv-x="1081" d="M199 0v1462h759v-164h-573v-452h535v-162h-535v-520h573v-164h-759zM297 1733q0 54 28 78t68 24q39 0 68 -24.5t29 -77.5t-29 -78t-68 -25q-40 0 -68 25t-28 78zM672 1733q0 54 28 78t68 24q19 0 36.5 -6t30.5 -18.5t21 -31.5t8 -46q0 -53 -29 -78t-67 -25q-40 0 -68 25 t-28 78z" />
<glyph unicode="&#xcc;" horiz-adv-x="694" d="M63 1886v21h219q16 -34 37.5 -74.5t44.5 -81t47 -78.5t45 -67v-27h-120q-35 28 -76 69.5t-79.5 85.5t-70 84.5t-47.5 67.5zM82 0v102l172 41v1176l-172 41v102h530v-102l-172 -41v-1176l172 -41v-102h-530z" />
<glyph unicode="&#xcd;" horiz-adv-x="694" d="M82 0v102l172 41v1176l-172 41v102h530v-102l-172 -41v-1176l172 -41v-102h-530zM258 1579v27q22 29 45.5 67t47 78.5t44.5 81t37 74.5h219v-21q-16 -27 -47.5 -67.5t-70 -84.5t-79 -85.5t-75.5 -69.5h-121z" />
<glyph unicode="&#xce;" horiz-adv-x="694" d="M18 1579v27q26 29 60 67t67.5 78.5t63 81t45.5 74.5h192q16 -34 45.5 -74.5t63 -81t68 -78.5t59.5 -67v-27h-121q-51 34 -105 82.5t-106 103.5q-54 -55 -107 -103.5t-104 -82.5h-121zM82 0v102l172 41v1176l-172 41v102h530v-102l-172 -41v-1176l172 -41v-102h-530z" />
<glyph unicode="&#xcf;" horiz-adv-x="694" d="M65 1733q0 54 28 78t68 24q39 0 68 -24.5t29 -77.5t-29 -78t-68 -25q-40 0 -68 25t-28 78zM82 0v102l172 41v1176l-172 41v102h530v-102l-172 -41v-1176l172 -41v-102h-530zM440 1733q0 54 28 78t68 24q19 0 36.5 -6t30.5 -18.5t21 -31.5t8 -46q0 -53 -29 -78t-67 -25 q-40 0 -68 25t-28 78z" />
<glyph unicode="&#xd0;" horiz-adv-x="1401" d="M47 643v162h152v657h407q153 0 277 -46t211 -136.5t134.5 -224.5t47.5 -310q0 -185 -48 -324.5t-139 -233t-223.5 -140.5t-300.5 -47h-366v643h-152zM385 160h162q264 0 398 146t134 433q0 146 -33 252.5t-96 175.5t-155 102.5t-209 33.5h-201v-498h336v-162h-336v-483z " />
<glyph unicode="&#xd1;" horiz-adv-x="1493" d="M199 0v1462h213l716 -1204h7q-3 76 -7 150q-1 32 -2.5 65.5l-3 67t-2 64.5t-0.5 57v800h174v-1462h-215l-719 1210h-8q6 -77 10 -153q4 -65 6.5 -136t2.5 -128v-793h-172zM397 1579q5 60 21.5 109t43 83.5t63.5 53t83 18.5q42 0 82.5 -17.5t78.5 -38.5t72.5 -38.5 t63.5 -17.5q45 0 68 26t38 88h105q-5 -60 -21.5 -108.5t-43 -83t-63.5 -53.5t-83 -19q-40 0 -79.5 17.5t-77.5 39t-73 39t-67 17.5q-45 0 -69 -26.5t-38 -88.5h-104z" />
<glyph unicode="&#xd2;" horiz-adv-x="1520" d="M125 735q0 170 38 308.5t117 236.5t199 151.5t283 53.5q155 0 272.5 -53.5t197.5 -152t120.5 -237t40.5 -309.5q0 -169 -40.5 -308t-120.5 -238t-198.5 -153t-273.5 -54q-163 0 -282.5 54t-198 153t-116.5 238.5t-38 309.5zM322 733q0 -137 26 -246.5t79.5 -186t136 -117 t196.5 -40.5t196.5 40.5t136 117t78.5 186t25 246.5q0 138 -25 247t-78 184.5t-135 116t-196 40.5t-197 -40.5t-137 -116t-80 -184.5t-26 -247zM477 1886v21h219q16 -34 37.5 -74.5t44.5 -81t47 -78.5t45 -67v-27h-120q-35 28 -76 69.5t-79.5 85.5t-70 84.5t-47.5 67.5z" />
<glyph unicode="&#xd3;" horiz-adv-x="1520" d="M125 735q0 170 38 308.5t117 236.5t199 151.5t283 53.5q155 0 272.5 -53.5t197.5 -152t120.5 -237t40.5 -309.5q0 -169 -40.5 -308t-120.5 -238t-198.5 -153t-273.5 -54q-163 0 -282.5 54t-198 153t-116.5 238.5t-38 309.5zM322 733q0 -137 26 -246.5t79.5 -186t136 -117 t196.5 -40.5t196.5 40.5t136 117t78.5 186t25 246.5q0 138 -25 247t-78 184.5t-135 116t-196 40.5t-197 -40.5t-137 -116t-80 -184.5t-26 -247zM651 1579v27q22 29 45.5 67t47 78.5t44.5 81t37 74.5h219v-21q-16 -27 -47.5 -67.5t-70 -84.5t-79 -85.5t-75.5 -69.5h-121z" />
<glyph unicode="&#xd4;" horiz-adv-x="1520" d="M125 735q0 170 38 308.5t117 236.5t199 151.5t283 53.5q155 0 272.5 -53.5t197.5 -152t120.5 -237t40.5 -309.5q0 -169 -40.5 -308t-120.5 -238t-198.5 -153t-273.5 -54q-163 0 -282.5 54t-198 153t-116.5 238.5t-38 309.5zM322 733q0 -137 26 -246.5t79.5 -186t136 -117 t196.5 -40.5t196.5 40.5t136 117t78.5 186t25 246.5q0 138 -25 247t-78 184.5t-135 116t-196 40.5t-197 -40.5t-137 -116t-80 -184.5t-26 -247zM432 1579v27q26 29 60 67t67.5 78.5t63 81t45.5 74.5h192q16 -34 45.5 -74.5t63 -81t68 -78.5t59.5 -67v-27h-121 q-51 34 -105 82.5t-106 103.5q-54 -55 -107 -103.5t-104 -82.5h-121z" />
<glyph unicode="&#xd5;" horiz-adv-x="1520" d="M125 735q0 170 38 308.5t117 236.5t199 151.5t283 53.5q155 0 272.5 -53.5t197.5 -152t120.5 -237t40.5 -309.5q0 -169 -40.5 -308t-120.5 -238t-198.5 -153t-273.5 -54q-163 0 -282.5 54t-198 153t-116.5 238.5t-38 309.5zM322 733q0 -137 26 -246.5t79.5 -186t136 -117 t196.5 -40.5t196.5 40.5t136 117t78.5 186t25 246.5q0 138 -25 247t-78 184.5t-135 116t-196 40.5t-197 -40.5t-137 -116t-80 -184.5t-26 -247zM383 1579q5 60 21.5 109t43 83.5t63.5 53t83 18.5q42 0 82.5 -17.5t78.5 -38.5t72.5 -38.5t63.5 -17.5q45 0 68 26t38 88h105 q-5 -60 -21.5 -108.5t-43 -83t-63.5 -53.5t-83 -19q-40 0 -79.5 17.5t-77.5 39t-73 39t-67 17.5q-45 0 -69 -26.5t-38 -88.5h-104z" />
<glyph unicode="&#xd6;" horiz-adv-x="1520" d="M125 735q0 170 38 308.5t117 236.5t199 151.5t283 53.5q155 0 272.5 -53.5t197.5 -152t120.5 -237t40.5 -309.5q0 -169 -40.5 -308t-120.5 -238t-198.5 -153t-273.5 -54q-163 0 -282.5 54t-198 153t-116.5 238.5t-38 309.5zM322 733q0 -137 26 -246.5t79.5 -186t136 -117 t196.5 -40.5t196.5 40.5t136 117t78.5 186t25 246.5q0 138 -25 247t-78 184.5t-135 116t-196 40.5t-197 -40.5t-137 -116t-80 -184.5t-26 -247zM477 1733q0 54 28 78t68 24q39 0 68 -24.5t29 -77.5t-29 -78t-68 -25q-40 0 -68 25t-28 78zM852 1733q0 54 28 78t68 24 q19 0 36.5 -6t30.5 -18.5t21 -31.5t8 -46q0 -53 -29 -78t-67 -25q-40 0 -68 25t-28 78z" />
<glyph unicode="&#xd7;" d="M141 1042l105 105l317 -318l322 318l104 -103l-321 -321l319 -320l-102 -102l-322 317l-317 -315l-103 103l316 317z" />
<glyph unicode="&#xd8;" horiz-adv-x="1520" d="M125 735q0 170 38 308.5t117 236.5t199 151.5t283 53.5q94 0 174.5 -21t146.5 -59l80 127l137 -78l-92 -149q91 -99 138 -244t47 -328q0 -169 -40.5 -308t-120.5 -238t-198.5 -153t-273.5 -54q-189 0 -322 71l-78 -127l-137 78l90 145q-97 100 -142.5 249t-45.5 339z M322 733q0 -131 23 -235.5t71 -182.5l579 945q-48 29 -105 45t-128 16q-114 0 -197 -40.5t-137 -116t-80 -184.5t-26 -247zM530 201q47 -28 104 -43t126 -15q114 0 196.5 40.5t136 117t78.5 186t25 246.5q0 257 -88 408z" />
<glyph unicode="&#xd9;" horiz-adv-x="1430" d="M184 520v942h187v-952q0 -175 86.5 -271t261.5 -96q89 0 153 27t105 76t61 117t21 149v952h186v-948q0 -114 -33 -212t-99.5 -170t-167 -113t-236.5 -41q-128 0 -226 38.5t-164.5 109.5t-100.5 170.5t-34 221.5zM454 1886v21h219q16 -34 37.5 -74.5t44.5 -81t47 -78.5 t45 -67v-27h-120q-35 28 -76 69.5t-79.5 85.5t-70 84.5t-47.5 67.5z" />
<glyph unicode="&#xda;" horiz-adv-x="1430" d="M184 520v942h187v-952q0 -175 86.5 -271t261.5 -96q89 0 153 27t105 76t61 117t21 149v952h186v-948q0 -114 -33 -212t-99.5 -170t-167 -113t-236.5 -41q-128 0 -226 38.5t-164.5 109.5t-100.5 170.5t-34 221.5zM590 1579v27q22 29 45.5 67t47 78.5t44.5 81t37 74.5h219 v-21q-16 -27 -47.5 -67.5t-70 -84.5t-79 -85.5t-75.5 -69.5h-121z" />
<glyph unicode="&#xdb;" horiz-adv-x="1430" d="M184 520v942h187v-952q0 -175 86.5 -271t261.5 -96q89 0 153 27t105 76t61 117t21 149v952h186v-948q0 -114 -33 -212t-99.5 -170t-167 -113t-236.5 -41q-128 0 -226 38.5t-164.5 109.5t-100.5 170.5t-34 221.5zM379 1579v27q26 29 60 67t67.5 78.5t63 81t45.5 74.5h192 q16 -34 45.5 -74.5t63 -81t68 -78.5t59.5 -67v-27h-121q-51 34 -105 82.5t-106 103.5q-54 -55 -107 -103.5t-104 -82.5h-121z" />
<glyph unicode="&#xdc;" horiz-adv-x="1430" d="M184 520v942h187v-952q0 -175 86.5 -271t261.5 -96q89 0 153 27t105 76t61 117t21 149v952h186v-948q0 -114 -33 -212t-99.5 -170t-167 -113t-236.5 -41q-128 0 -226 38.5t-164.5 109.5t-100.5 170.5t-34 221.5zM432 1733q0 54 28 78t68 24q39 0 68 -24.5t29 -77.5 t-29 -78t-68 -25q-40 0 -68 25t-28 78zM807 1733q0 54 28 78t68 24q19 0 36.5 -6t30.5 -18.5t21 -31.5t8 -46q0 -53 -29 -78t-67 -25q-40 0 -68 25t-28 78z" />
<glyph unicode="&#xdd;" horiz-adv-x="1079" d="M0 1462h203l336 -739l340 739h200l-446 -893v-569h-187v559zM442 1579v27q22 29 45.5 67t47 78.5t44.5 81t37 74.5h219v-21q-16 -27 -47.5 -67.5t-70 -84.5t-79 -85.5t-75.5 -69.5h-121z" />
<glyph unicode="&#xde;" horiz-adv-x="1180" d="M199 0v1462h186v-252h176q134 0 231 -28.5t160 -83t93 -134.5t30 -182q0 -91 -27.5 -175t-90.5 -148.5t-166.5 -103t-255.5 -38.5h-150v-317h-186zM385 475h129q93 0 162.5 16t115 51.5t68.5 92t23 137.5q0 143 -82 211t-256 68h-160v-576z" />
<glyph unicode="&#xdf;" horiz-adv-x="1233" d="M174 0v1200q0 104 31.5 174.5t88 113t134.5 61t170 18.5t168 -19t130 -57t84 -96t30 -135q0 -57 -21.5 -101.5t-53 -81t-69 -66.5t-69 -57.5t-53 -54.5t-21.5 -57q0 -21 7 -37.5t26.5 -36t54.5 -44t92 -62.5q56 -37 100 -73t74.5 -77t47 -89t16.5 -110q0 -87 -28 -150 t-78.5 -103.5t-121 -60t-155.5 -19.5q-97 0 -166.5 17.5t-122.5 51.5v166q26 -16 58.5 -31.5t68.5 -27.5t74 -19.5t75 -7.5q56 0 96.5 12.5t66.5 35t38 54.5t12 72q0 36 -8.5 65.5t-30 57.5t-57.5 57t-92 64q-63 40 -105.5 74t-69 67.5t-37.5 68.5t-11 77q0 54 20.5 93.5 t51.5 71t67 58.5t67 56t51.5 62.5t20.5 77.5q0 42 -16.5 73t-46.5 51.5t-71.5 30t-92.5 9.5q-49 0 -93 -9.5t-77 -33.5t-52.5 -65.5t-19.5 -106.5v-1202h-182z" />
<glyph unicode="&#xe0;" horiz-adv-x="1087" d="M94 307q0 164 115.5 252t351.5 96l184 7v69q0 67 -14.5 112t-42 72.5t-68 39.5t-92.5 12q-83 0 -154.5 -24t-137.5 -58l-64 137q74 40 165 68t191 28q102 0 176.5 -20.5t123 -65t72.5 -113.5t24 -167v-752h-131l-37 152h-8q-33 -45 -66 -77.5t-72 -53.5t-87 -31t-111 -10 q-69 0 -127 19.5t-100.5 60t-66.5 102t-24 145.5zM283 305q0 -92 48.5 -135t127.5 -43q61 0 113 19t90 57.5t59.5 97t21.5 137.5v99l-143 -7q-90 -4 -151 -20t-97.5 -44.5t-52.5 -69t-16 -91.5zM286 1548v21h219q16 -34 37.5 -74.5t44.5 -81t47 -78.5t45 -67v-27h-120 q-35 28 -76 69.5t-79.5 85.5t-70 84.5t-47.5 67.5z" />
<glyph unicode="&#xe1;" horiz-adv-x="1087" d="M94 307q0 164 115.5 252t351.5 96l184 7v69q0 67 -14.5 112t-42 72.5t-68 39.5t-92.5 12q-83 0 -154.5 -24t-137.5 -58l-64 137q74 40 165 68t191 28q102 0 176.5 -20.5t123 -65t72.5 -113.5t24 -167v-752h-131l-37 152h-8q-33 -45 -66 -77.5t-72 -53.5t-87 -31t-111 -10 q-69 0 -127 19.5t-100.5 60t-66.5 102t-24 145.5zM283 305q0 -92 48.5 -135t127.5 -43q61 0 113 19t90 57.5t59.5 97t21.5 137.5v99l-143 -7q-90 -4 -151 -20t-97.5 -44.5t-52.5 -69t-16 -91.5zM446 1241v27q22 29 45.5 67t47 78.5t44.5 81t37 74.5h219v-21 q-16 -27 -47.5 -67.5t-70 -84.5t-79 -85.5t-75.5 -69.5h-121z" />
<glyph unicode="&#xe2;" horiz-adv-x="1087" d="M94 307q0 164 115.5 252t351.5 96l184 7v69q0 67 -14.5 112t-42 72.5t-68 39.5t-92.5 12q-83 0 -154.5 -24t-137.5 -58l-64 137q74 40 165 68t191 28q102 0 176.5 -20.5t123 -65t72.5 -113.5t24 -167v-752h-131l-37 152h-8q-33 -45 -66 -77.5t-72 -53.5t-87 -31t-111 -10 q-69 0 -127 19.5t-100.5 60t-66.5 102t-24 145.5zM229 1241v27q26 29 60 67t67.5 78.5t63 81t45.5 74.5h192q16 -34 45.5 -74.5t63 -81t68 -78.5t59.5 -67v-27h-121q-51 34 -105 82.5t-106 103.5q-54 -55 -107 -103.5t-104 -82.5h-121zM283 305q0 -92 48.5 -135t127.5 -43 q61 0 113 19t90 57.5t59.5 97t21.5 137.5v99l-143 -7q-90 -4 -151 -20t-97.5 -44.5t-52.5 -69t-16 -91.5z" />
<glyph unicode="&#xe3;" horiz-adv-x="1087" d="M94 307q0 164 115.5 252t351.5 96l184 7v69q0 67 -14.5 112t-42 72.5t-68 39.5t-92.5 12q-83 0 -154.5 -24t-137.5 -58l-64 137q74 40 165 68t191 28q102 0 176.5 -20.5t123 -65t72.5 -113.5t24 -167v-752h-131l-37 152h-8q-33 -45 -66 -77.5t-72 -53.5t-87 -31t-111 -10 q-69 0 -127 19.5t-100.5 60t-66.5 102t-24 145.5zM192 1241q5 60 21.5 109t43 83.5t63.5 53t83 18.5q42 0 82.5 -17.5t78.5 -38.5t72.5 -38.5t63.5 -17.5q45 0 68 26t38 88h105q-5 -60 -21.5 -108.5t-43 -83t-63.5 -53.5t-83 -19q-40 0 -79.5 17.5t-77.5 39t-73 39t-67 17.5 q-45 0 -69 -26.5t-38 -88.5h-104zM283 305q0 -92 48.5 -135t127.5 -43q61 0 113 19t90 57.5t59.5 97t21.5 137.5v99l-143 -7q-90 -4 -151 -20t-97.5 -44.5t-52.5 -69t-16 -91.5z" />
<glyph unicode="&#xe4;" horiz-adv-x="1087" d="M94 307q0 164 115.5 252t351.5 96l184 7v69q0 67 -14.5 112t-42 72.5t-68 39.5t-92.5 12q-83 0 -154.5 -24t-137.5 -58l-64 137q74 40 165 68t191 28q102 0 176.5 -20.5t123 -65t72.5 -113.5t24 -167v-752h-131l-37 152h-8q-33 -45 -66 -77.5t-72 -53.5t-87 -31t-111 -10 q-69 0 -127 19.5t-100.5 60t-66.5 102t-24 145.5zM274 1395q0 54 28 78t68 24q39 0 68 -24.5t29 -77.5t-29 -78t-68 -25q-40 0 -68 25t-28 78zM283 305q0 -92 48.5 -135t127.5 -43q61 0 113 19t90 57.5t59.5 97t21.5 137.5v99l-143 -7q-90 -4 -151 -20t-97.5 -44.5 t-52.5 -69t-16 -91.5zM649 1395q0 54 28 78t68 24q19 0 36.5 -6t30.5 -18.5t21 -31.5t8 -46q0 -53 -29 -78t-67 -25q-40 0 -68 25t-28 78z" />
<glyph unicode="&#xe5;" horiz-adv-x="1087" d="M94 307q0 164 115.5 252t351.5 96l184 7v69q0 67 -14.5 112t-42 72.5t-68 39.5t-92.5 12q-83 0 -154.5 -24t-137.5 -58l-64 137q74 40 165 68t191 28q102 0 176.5 -20.5t123 -65t72.5 -113.5t24 -167v-752h-131l-37 152h-8q-33 -45 -66 -77.5t-72 -53.5t-87 -31t-111 -10 q-69 0 -127 19.5t-100.5 60t-66.5 102t-24 145.5zM283 305q0 -92 48.5 -135t127.5 -43q61 0 113 19t90 57.5t59.5 97t21.5 137.5v99l-143 -7q-90 -4 -151 -20t-97.5 -44.5t-52.5 -69t-16 -91.5zM331 1456q0 51 16 90.5t45.5 67.5t70.5 42.5t91 14.5q48 0 90 -14.5t73 -42 t48.5 -67t17.5 -89.5q0 -51 -17.5 -91.5t-48 -68.5t-72.5 -42.5t-91 -14.5q-50 0 -91 14.5t-70.5 42.5t-45.5 67.5t-16 90.5zM441 1456q0 -53 28.5 -83t84.5 -30q49 0 80.5 30t31.5 83t-31.5 83t-80.5 30q-50 0 -81.5 -30t-31.5 -83z" />
<glyph unicode="&#xe6;" horiz-adv-x="1706" d="M94 307q0 164 115.5 252t351.5 96l184 7v69q0 67 -14.5 112t-42 72.5t-68 39.5t-92.5 12q-83 0 -154.5 -24t-137.5 -58l-64 137q74 40 165 68t191 28q131 0 214 -42.5t126 -135.5q51 85 134 131.5t186 46.5q97 0 174 -35.5t131 -100t82.5 -155t28.5 -200.5v-113h-672 q5 -193 78.5 -284t220.5 -91q49 0 91.5 5t81.5 14.5t76 24t74 32.5v-162q-39 -19 -76.5 -33t-77 -23t-82 -13t-91.5 -4q-138 0 -239 57t-163 172q-34 -54 -72 -96.5t-85.5 -72t-105.5 -45t-132 -15.5q-71 0 -132.5 19.5t-106.5 60t-71 102t-26 145.5zM283 305 q0 -92 48.5 -135t127.5 -43q61 0 113 19t90 57.5t59.5 97t21.5 137.5v99l-143 -7q-90 -4 -151 -20t-97.5 -44.5t-52.5 -69t-16 -91.5zM936 662h471q0 68 -13 124.5t-40.5 96.5t-69.5 62t-100 22q-110 0 -173.5 -78t-74.5 -227z" />
<glyph unicode="&#xe7;" horiz-adv-x="948" d="M113 543q0 157 38 266.5t104.5 178t155.5 99.5t191 31q78 0 152.5 -17t124.5 -42l-54 -154q-23 10 -51 19.5t-58 17t-59 12t-55 4.5q-157 0 -229 -100.5t-72 -312.5q0 -211 72.5 -308.5t220.5 -97.5q81 0 146.5 18.5t119.5 43.5v-162q-54 -29 -115.5 -44t-150.5 -15 q-101 0 -189 31.5t-153 100t-102 175t-37 256.5zM357 -375q15 -3 39.5 -4.5t40.5 -1.5q71 0 111 21.5t40 70.5q0 24 -13 41.5t-36 30.5t-54.5 22.5t-68.5 18.5l90 176h121l-57 -115q34 -8 63 -21t50.5 -33.5t34 -49.5t12.5 -68q0 -97 -70.5 -151t-220.5 -54q-22 0 -44.5 3 t-37.5 6v108z" />
<glyph unicode="&#xe8;" horiz-adv-x="1096" d="M113 541q0 136 33 243t93 181.5t143.5 113.5t184.5 39q99 0 178 -35.5t134 -100t84.5 -155t29.5 -200.5v-113h-692q5 -193 81.5 -284t227.5 -91q51 0 94.5 5t84 14.5t78.5 24t77 32.5v-162q-40 -19 -78.5 -33t-79 -23t-84 -13t-94.5 -4q-110 0 -201 37t-156.5 108 t-101.5 176t-36 240zM286 1548v21h219q16 -34 37.5 -74.5t44.5 -81t47 -78.5t45 -67v-27h-120q-35 28 -76 69.5t-79.5 85.5t-70 84.5t-47.5 67.5zM305 662h492q0 68 -13.5 124.5t-42 96.5t-72.5 62t-106 22q-114 0 -180.5 -78t-77.5 -227z" />
<glyph unicode="&#xe9;" horiz-adv-x="1096" d="M113 541q0 136 33 243t93 181.5t143.5 113.5t184.5 39q99 0 178 -35.5t134 -100t84.5 -155t29.5 -200.5v-113h-692q5 -193 81.5 -284t227.5 -91q51 0 94.5 5t84 14.5t78.5 24t77 32.5v-162q-40 -19 -78.5 -33t-79 -23t-84 -13t-94.5 -4q-110 0 -201 37t-156.5 108 t-101.5 176t-36 240zM305 662h492q0 68 -13.5 124.5t-42 96.5t-72.5 62t-106 22q-114 0 -180.5 -78t-77.5 -227zM475 1241v27q22 29 45.5 67t47 78.5t44.5 81t37 74.5h219v-21q-16 -27 -47.5 -67.5t-70 -84.5t-79 -85.5t-75.5 -69.5h-121z" />
<glyph unicode="&#xea;" horiz-adv-x="1096" d="M113 541q0 136 33 243t93 181.5t143.5 113.5t184.5 39q99 0 178 -35.5t134 -100t84.5 -155t29.5 -200.5v-113h-692q5 -193 81.5 -284t227.5 -91q51 0 94.5 5t84 14.5t78.5 24t77 32.5v-162q-40 -19 -78.5 -33t-79 -23t-84 -13t-94.5 -4q-110 0 -201 37t-156.5 108 t-101.5 176t-36 240zM225 1241v27q26 29 60 67t67.5 78.5t63 81t45.5 74.5h192q16 -34 45.5 -74.5t63 -81t68 -78.5t59.5 -67v-27h-121q-51 34 -105 82.5t-106 103.5q-54 -55 -107 -103.5t-104 -82.5h-121zM305 662h492q0 68 -13.5 124.5t-42 96.5t-72.5 62t-106 22 q-114 0 -180.5 -78t-77.5 -227z" />
<glyph unicode="&#xeb;" horiz-adv-x="1096" d="M113 541q0 136 33 243t93 181.5t143.5 113.5t184.5 39q99 0 178 -35.5t134 -100t84.5 -155t29.5 -200.5v-113h-692q5 -193 81.5 -284t227.5 -91q51 0 94.5 5t84 14.5t78.5 24t77 32.5v-162q-40 -19 -78.5 -33t-79 -23t-84 -13t-94.5 -4q-110 0 -201 37t-156.5 108 t-101.5 176t-36 240zM270 1395q0 54 28 78t68 24q39 0 68 -24.5t29 -77.5t-29 -78t-68 -25q-40 0 -68 25t-28 78zM305 662h492q0 68 -13.5 124.5t-42 96.5t-72.5 62t-106 22q-114 0 -180.5 -78t-77.5 -227zM645 1395q0 54 28 78t68 24q19 0 36.5 -6t30.5 -18.5t21 -31.5 t8 -46q0 -53 -29 -78t-67 -25q-40 0 -68 25t-28 78z" />
<glyph unicode="&#xec;" horiz-adv-x="530" d="M-34 1548v21h219q16 -34 37.5 -74.5t44.5 -81t47 -78.5t45 -67v-27h-120q-35 28 -76 69.5t-79.5 85.5t-70 84.5t-47.5 67.5zM174 0v1098h182v-1098h-182z" />
<glyph unicode="&#xed;" horiz-adv-x="530" d="M174 0v1098h182v-1098h-182zM185 1241v27q22 29 45.5 67t47 78.5t44.5 81t37 74.5h219v-21q-16 -27 -47.5 -67.5t-70 -84.5t-79 -85.5t-75.5 -69.5h-121z" />
<glyph unicode="&#xee;" horiz-adv-x="530" d="M-67 1241v27q26 29 60 67t67.5 78.5t63 81t45.5 74.5h192q16 -34 45.5 -74.5t63 -81t68 -78.5t59.5 -67v-27h-121q-51 34 -105 82.5t-106 103.5q-54 -55 -107 -103.5t-104 -82.5h-121zM174 0v1098h182v-1098h-182z" />
<glyph unicode="&#xef;" horiz-adv-x="530" d="M-18 1395q0 54 28 78t68 24q39 0 68 -24.5t29 -77.5t-29 -78t-68 -25q-40 0 -68 25t-28 78zM174 0v1098h182v-1098h-182zM357 1395q0 54 28 78t68 24q19 0 36.5 -6t30.5 -18.5t21 -31.5t8 -46q0 -53 -29 -78t-67 -25q-40 0 -68 25t-28 78z" />
<glyph unicode="&#xf0;" horiz-adv-x="1182" d="M111 477q0 119 31.5 211t90.5 155t143 95.5t189 32.5q102 0 179 -29.5t120 -89.5l8 4q-31 118 -91 214t-150 177l-256 -153l-74 114l217 131q-40 28 -82.5 55.5t-89.5 53.5l70 123q65 -32 126 -68t120 -80l227 138l74 -113l-195 -117q67 -65 122.5 -143t95 -171.5 t61.5 -204t22 -239.5q0 -142 -33.5 -252t-96 -186t-151.5 -115.5t-200 -39.5q-104 0 -191.5 33t-151 96.5t-99 156t-35.5 211.5zM303 471q0 -76 16.5 -138.5t52 -107.5t90 -69.5t130.5 -24.5q154 0 221.5 99.5t67.5 295.5q0 56 -17 109.5t-52 94.5t-90 66t-130 25 q-77 0 -131.5 -23t-89.5 -67t-51.5 -109.5t-16.5 -150.5z" />
<glyph unicode="&#xf1;" horiz-adv-x="1206" d="M174 0v1098h148l26 -148h10q25 43 59.5 74.5t75.5 52.5t87 31t94 10q183 0 275.5 -95.5t92.5 -305.5v-717h-182v707q0 130 -52.5 195t-164.5 65q-81 0 -136 -26t-88.5 -77t-48 -125t-14.5 -170v-569h-182zM252 1241q5 60 21.5 109t43 83.5t63.5 53t83 18.5 q42 0 82.5 -17.5t78.5 -38.5t72.5 -38.5t63.5 -17.5q45 0 68 26t38 88h105q-5 -60 -21.5 -108.5t-43 -83t-63.5 -53.5t-83 -19q-40 0 -79.5 17.5t-77.5 39t-73 39t-67 17.5q-45 0 -69 -26.5t-38 -88.5h-104z" />
<glyph unicode="&#xf2;" horiz-adv-x="1182" d="M113 551q0 136 33.5 241.5t95.5 178t151.5 110t200.5 37.5q103 0 190 -37.5t150.5 -110t99 -178t35.5 -241.5q0 -137 -33.5 -243.5t-96 -179t-151.5 -110.5t-200 -38q-103 0 -190 38t-150.5 110.5t-99 179t-35.5 243.5zM301 551q0 -209 68.5 -314.5t222.5 -105.5 t221.5 105.5t67.5 314.5t-68.5 312.5t-222.5 103.5t-221.5 -103.5t-67.5 -312.5zM354 1548v21h219q16 -34 37.5 -74.5t44.5 -81t47 -78.5t45 -67v-27h-120q-35 28 -76 69.5t-79.5 85.5t-70 84.5t-47.5 67.5z" />
<glyph unicode="&#xf3;" horiz-adv-x="1182" d="M113 551q0 136 33.5 241.5t95.5 178t151.5 110t200.5 37.5q103 0 190 -37.5t150.5 -110t99 -178t35.5 -241.5q0 -137 -33.5 -243.5t-96 -179t-151.5 -110.5t-200 -38q-103 0 -190 38t-150.5 110.5t-99 179t-35.5 243.5zM301 551q0 -209 68.5 -314.5t222.5 -105.5 t221.5 105.5t67.5 314.5t-68.5 312.5t-222.5 103.5t-221.5 -103.5t-67.5 -312.5zM473 1241v27q22 29 45.5 67t47 78.5t44.5 81t37 74.5h219v-21q-16 -27 -47.5 -67.5t-70 -84.5t-79 -85.5t-75.5 -69.5h-121z" />
<glyph unicode="&#xf4;" horiz-adv-x="1182" d="M113 551q0 136 33.5 241.5t95.5 178t151.5 110t200.5 37.5q103 0 190 -37.5t150.5 -110t99 -178t35.5 -241.5q0 -137 -33.5 -243.5t-96 -179t-151.5 -110.5t-200 -38q-103 0 -190 38t-150.5 110.5t-99 179t-35.5 243.5zM254 1241v27q26 29 60 67t67.5 78.5t63 81 t45.5 74.5h192q16 -34 45.5 -74.5t63 -81t68 -78.5t59.5 -67v-27h-121q-51 34 -105 82.5t-106 103.5q-54 -55 -107 -103.5t-104 -82.5h-121zM301 551q0 -209 68.5 -314.5t222.5 -105.5t221.5 105.5t67.5 314.5t-68.5 312.5t-222.5 103.5t-221.5 -103.5t-67.5 -312.5z" />
<glyph unicode="&#xf5;" horiz-adv-x="1182" d="M113 551q0 136 33.5 241.5t95.5 178t151.5 110t200.5 37.5q103 0 190 -37.5t150.5 -110t99 -178t35.5 -241.5q0 -137 -33.5 -243.5t-96 -179t-151.5 -110.5t-200 -38q-103 0 -190 38t-150.5 110.5t-99 179t-35.5 243.5zM229 1241q5 60 21.5 109t43 83.5t63.5 53t83 18.5 q42 0 82.5 -17.5t78.5 -38.5t72.5 -38.5t63.5 -17.5q45 0 68 26t38 88h105q-5 -60 -21.5 -108.5t-43 -83t-63.5 -53.5t-83 -19q-40 0 -79.5 17.5t-77.5 39t-73 39t-67 17.5q-45 0 -69 -26.5t-38 -88.5h-104zM301 551q0 -209 68.5 -314.5t222.5 -105.5t221.5 105.5 t67.5 314.5t-68.5 312.5t-222.5 103.5t-221.5 -103.5t-67.5 -312.5z" />
<glyph unicode="&#xf6;" horiz-adv-x="1182" d="M113 551q0 136 33.5 241.5t95.5 178t151.5 110t200.5 37.5q103 0 190 -37.5t150.5 -110t99 -178t35.5 -241.5q0 -137 -33.5 -243.5t-96 -179t-151.5 -110.5t-200 -38q-103 0 -190 38t-150.5 110.5t-99 179t-35.5 243.5zM301 551q0 -209 68.5 -314.5t222.5 -105.5 t221.5 105.5t67.5 314.5t-68.5 312.5t-222.5 103.5t-221.5 -103.5t-67.5 -312.5zM301 1395q0 54 28 78t68 24q39 0 68 -24.5t29 -77.5t-29 -78t-68 -25q-40 0 -68 25t-28 78zM676 1395q0 54 28 78t68 24q19 0 36.5 -6t30.5 -18.5t21 -31.5t8 -46q0 -53 -29 -78t-67 -25 q-40 0 -68 25t-28 78z" />
<glyph unicode="&#xf7;" d="M102 647v150h924v-150h-924zM449 373q0 35 9 58.5t24.5 38.5t36 21.5t44.5 6.5q23 0 44 -6.5t37 -21.5t25 -38.5t9 -58.5q0 -33 -9 -56.5t-25 -39t-37 -22.5t-44 -7q-24 0 -44.5 7t-36 22.5t-24.5 39t-9 56.5zM449 1071q0 35 9 58.5t24.5 38.5t36 21.5t44.5 6.5 q23 0 44 -6.5t37 -21.5t25 -38.5t9 -58.5q0 -33 -9 -56.5t-25 -39t-37 -22.5t-44 -7q-24 0 -44.5 7t-36 22.5t-24.5 39t-9 56.5z" />
<glyph unicode="&#xf8;" horiz-adv-x="1182" d="M115 551q0 136 33.5 241.5t95.5 178t151.5 110t200.5 37.5q63 0 119.5 -14.5t105.5 -42.5l68 108l131 -73l-80 -129q62 -73 96.5 -177.5t34.5 -238.5q0 -137 -33.5 -243.5t-96 -179t-151.5 -110.5t-200 -38q-125 0 -223 53l-68 -109l-131 74l80 131q-63 72 -98 178.5 t-35 243.5zM303 551q0 -84 9.5 -149.5t31.5 -116.5l397 647q-29 17 -66.5 26t-82.5 9q-154 0 -221.5 -103.5t-67.5 -312.5zM446 164q31 -17 67 -25t81 -8q154 0 221.5 105.5t67.5 314.5q0 159 -39 258z" />
<glyph unicode="&#xf9;" horiz-adv-x="1206" d="M164 381v717h182v-707q0 -130 53 -195t164 -65q81 0 136 26t88.5 76.5t48 124.5t14.5 170v570h182v-1098h-147l-27 147h-10q-25 -43 -59.5 -74.5t-75.5 -52t-87 -30.5t-94 -10q-91 0 -160 23t-115 72t-69.5 125t-23.5 181zM301 1548v21h219q16 -34 37.5 -74.5t44.5 -81 t47 -78.5t45 -67v-27h-120q-35 28 -76 69.5t-79.5 85.5t-70 84.5t-47.5 67.5z" />
<glyph unicode="&#xfa;" horiz-adv-x="1206" d="M164 381v717h182v-707q0 -130 53 -195t164 -65q81 0 136 26t88.5 76.5t48 124.5t14.5 170v570h182v-1098h-147l-27 147h-10q-25 -43 -59.5 -74.5t-75.5 -52t-87 -30.5t-94 -10q-91 0 -160 23t-115 72t-69.5 125t-23.5 181zM489 1241v27q22 29 45.5 67t47 78.5t44.5 81 t37 74.5h219v-21q-16 -27 -47.5 -67.5t-70 -84.5t-79 -85.5t-75.5 -69.5h-121z" />
<glyph unicode="&#xfb;" horiz-adv-x="1206" d="M164 381v717h182v-707q0 -130 53 -195t164 -65q81 0 136 26t88.5 76.5t48 124.5t14.5 170v570h182v-1098h-147l-27 147h-10q-25 -43 -59.5 -74.5t-75.5 -52t-87 -30.5t-94 -10q-91 0 -160 23t-115 72t-69.5 125t-23.5 181zM266 1241v27q26 29 60 67t67.5 78.5t63 81 t45.5 74.5h192q16 -34 45.5 -74.5t63 -81t68 -78.5t59.5 -67v-27h-121q-51 34 -105 82.5t-106 103.5q-54 -55 -107 -103.5t-104 -82.5h-121z" />
<glyph unicode="&#xfc;" horiz-adv-x="1206" d="M164 381v717h182v-707q0 -130 53 -195t164 -65q81 0 136 26t88.5 76.5t48 124.5t14.5 170v570h182v-1098h-147l-27 147h-10q-25 -43 -59.5 -74.5t-75.5 -52t-87 -30.5t-94 -10q-91 0 -160 23t-115 72t-69.5 125t-23.5 181zM309 1395q0 54 28 78t68 24q39 0 68 -24.5 t29 -77.5t-29 -78t-68 -25q-40 0 -68 25t-28 78zM684 1395q0 54 28 78t68 24q19 0 36.5 -6t30.5 -18.5t21 -31.5t8 -46q0 -53 -29 -78t-67 -25q-40 0 -68 25t-28 78z" />
<glyph unicode="&#xfd;" horiz-adv-x="1001" d="M10 1098h189l215 -613q14 -40 28.5 -84t27 -88t21.5 -85t13 -76h6q5 25 16 68t24.5 91.5t28 95.5t25.5 80l199 611h188l-434 -1241q-28 -81 -60.5 -145.5t-75.5 -109.5t-101 -69.5t-138 -24.5q-52 0 -90 5.5t-65 11.5v145q21 -5 53 -8.5t67 -3.5q48 0 83 11.5t61 33.5 t44.5 54t33.5 73l57 160zM407 1241v27q22 29 45.5 67t47 78.5t44.5 81t37 74.5h219v-21q-16 -27 -47.5 -67.5t-70 -84.5t-79 -85.5t-75.5 -69.5h-121z" />
<glyph unicode="&#xfe;" horiz-adv-x="1200" d="M174 -492v2048h182v-458l-8 -148h8q23 35 52 65.5t67.5 53t86.5 36t108 13.5q94 0 171 -36t131.5 -107.5t84.5 -177.5t30 -246q0 -141 -30 -247.5t-84.5 -178.5t-131.5 -108.5t-171 -36.5q-59 0 -107 13t-86.5 34.5t-68 50.5t-52.5 61h-12q3 -34 6 -65q2 -26 4 -53.5 t2 -43.5v-469h-182zM356 551q0 -101 13.5 -179.5t46 -132t86.5 -81t135 -27.5q135 0 198.5 109t63.5 313q0 208 -63.5 311t-200.5 103q-76 0 -128.5 -23t-85 -70t-48 -117t-17.5 -165v-41z" />
<glyph unicode="&#xff;" horiz-adv-x="1001" d="M10 1098h189l215 -613q14 -40 28.5 -84t27 -88t21.5 -85t13 -76h6q5 25 16 68t24.5 91.5t28 95.5t25.5 80l199 611h188l-434 -1241q-28 -81 -60.5 -145.5t-75.5 -109.5t-101 -69.5t-138 -24.5q-52 0 -90 5.5t-65 11.5v145q21 -5 53 -8.5t67 -3.5q48 0 83 11.5t61 33.5 t44.5 54t33.5 73l57 160zM229 1395q0 54 28 78t68 24q39 0 68 -24.5t29 -77.5t-29 -78t-68 -25q-40 0 -68 25t-28 78zM604 1395q0 54 28 78t68 24q19 0 36.5 -6t30.5 -18.5t21 -31.5t8 -46q0 -53 -29 -78t-67 -25q-40 0 -68 25t-28 78z" />
<glyph unicode="&#x152;" horiz-adv-x="1823" d="M125 735q0 170 38 308.5t117 236.5t199 151.5t283 53.5q98 0 182 -23h756v-164h-574v-452h535v-162h-535v-520h574v-164h-758q-43 -9 -88.5 -14.5t-93.5 -5.5q-163 0 -282.5 54t-198 153t-116.5 238.5t-38 309.5zM322 733q0 -137 26 -246.5t79.5 -186t136 -117 t196.5 -40.5q52 0 97 9t83 24v1112q-38 16 -82.5 24.5t-95.5 8.5q-114 0 -197 -40.5t-137 -116t-80 -184.5t-26 -247z" />
<glyph unicode="&#x153;" horiz-adv-x="1864" d="M113 551q0 136 33.5 241.5t95.5 178t151.5 110t200.5 37.5q121 0 218.5 -55.5t160.5 -161.5q60 105 152.5 161t209.5 56q99 0 178 -35.5t134 -100t84.5 -155t29.5 -200.5v-113h-692q5 -193 81.5 -284t227.5 -91q51 0 94.5 5t84 14.5t78.5 24t77 32.5v-162 q-40 -19 -78.5 -33t-79 -23t-84 -13t-94.5 -4q-130 0 -232 56t-167 165q-63 -109 -162 -165t-227 -56q-103 0 -190 38t-150.5 110.5t-99 179t-35.5 243.5zM301 551q0 -209 68.5 -314.5t222.5 -105.5q150 0 219.5 100.5t69.5 309.5q0 220 -70 323t-221 103 q-154 0 -221.5 -103.5t-67.5 -312.5zM1073 662h492q0 68 -13.5 124.5t-42 96.5t-72.5 62t-106 22q-114 0 -180.5 -78t-77.5 -227z" />
<glyph unicode="&#x160;" horiz-adv-x="1063" d="M104 49v178q34 -16 77.5 -31.5t91.5 -27.5t99 -19.5t101 -7.5q160 0 236.5 60t76.5 172q0 54 -14.5 94t-51 73.5t-97.5 65t-154 68.5q-89 35 -154.5 76.5t-108 93.5t-63 118t-20.5 150q0 88 32 157t90 116.5t138.5 72.5t177.5 25q119 0 214 -22.5t169 -57.5l-67 -156 q-65 29 -147.5 50.5t-170.5 21.5q-122 0 -189 -56.5t-67 -152.5q0 -57 15 -98.5t50 -75t92.5 -63t141.5 -62.5q91 -36 159.5 -74t114.5 -86t69.5 -111t23.5 -149q0 -97 -34.5 -173.5t-98.5 -129.5t-156 -80.5t-207 -27.5q-111 0 -207.5 17.5t-161.5 51.5zM232 1880v27h121 q51 -34 104 -82.5t107 -104.5q52 56 106 104.5t105 82.5h121v-27q-25 -29 -59.5 -67t-68 -78.5t-63 -80.5t-45.5 -75h-192q-16 35 -45.5 75t-63 80.5t-67.5 78.5t-60 67z" />
<glyph unicode="&#x161;" horiz-adv-x="924" d="M90 49v166q31 -16 69 -31.5t80 -27.5t86.5 -19.5t88.5 -7.5q65 0 110.5 11t74 31.5t41.5 50t13 65.5q0 31 -10 56t-36.5 49.5t-72.5 49.5t-118 56t-129.5 61t-97.5 67t-61.5 85.5t-21.5 115.5q0 70 27.5 124.5t77.5 91.5t120 56t156 19q97 0 177.5 -21t152.5 -55 l-63 -147q-65 29 -133.5 50.5t-139.5 21.5q-102 0 -151 -33.5t-49 -95.5q0 -35 11.5 -61t39.5 -49t75 -46.5t117 -52.5q72 -30 128.5 -60t96.5 -67.5t61 -85.5t21 -115q0 -80 -29 -140t-83.5 -100.5t-131.5 -60.5t-173 -20q-109 0 -187 17.5t-137 51.5zM153 1542v27h121 q51 -34 104 -82.5t107 -104.5q52 56 106 104.5t105 82.5h121v-27q-25 -29 -59.5 -67t-68 -78.5t-63 -80.5t-45.5 -75h-192q-16 35 -45.5 75t-63 80.5t-67.5 78.5t-60 67z" />
<glyph unicode="&#x178;" horiz-adv-x="1079" d="M0 1462h203l336 -739l340 739h200l-446 -893v-569h-187v559zM257 1733q0 54 28 78t68 24q39 0 68 -24.5t29 -77.5t-29 -78t-68 -25q-40 0 -68 25t-28 78zM632 1733q0 54 28 78t68 24q19 0 36.5 -6t30.5 -18.5t21 -31.5t8 -46q0 -53 -29 -78t-67 -25q-40 0 -68 25t-28 78z " />
<glyph unicode="&#x17d;" horiz-adv-x="1104" d="M82 0v145l711 1151h-691v166h899v-145l-710 -1151h731v-166h-940zM226 1880v27h121q51 -34 104 -82.5t107 -104.5q52 56 106 104.5t105 82.5h121v-27q-25 -29 -59.5 -67t-68 -78.5t-63 -80.5t-45.5 -75h-192q-16 35 -45.5 75t-63 80.5t-67.5 78.5t-60 67z" />
<glyph unicode="&#x17e;" horiz-adv-x="903" d="M82 0v125l536 836h-503v137h688v-146l-524 -815h542v-137h-739zM136 1542v27h121q51 -34 104 -82.5t107 -104.5q52 56 106 104.5t105 82.5h121v-27q-25 -29 -59.5 -67t-68 -78.5t-63 -80.5t-45.5 -75h-192q-16 35 -45.5 75t-63 80.5t-67.5 78.5t-60 67z" />
<glyph unicode="&#x192;" d="M203 -324q26 -8 54.5 -13t59.5 -5q40 0 69.5 9.5t48.5 33.5t28.5 65.5t9.5 106.5v963h-194v75l194 68v137q0 107 22.5 177.5t65 112.5t104.5 59.5t140 17.5q59 0 108.5 -11.5t87.5 -25.5l-47 -141q-31 11 -67 19.5t-76 8.5t-69 -9.5t-48.5 -33.5t-29 -65.5t-9.5 -106.5 v-145h246v-137h-246v-961q0 -107 -22.5 -177.5t-65 -112.5t-104 -59.5t-139.5 -17.5q-32 0 -62.5 4.5t-58.5 10.5v153z" />
<glyph unicode="&#x2c6;" horiz-adv-x="1182" d="M258 1241v27q26 29 60 67t67.5 78.5t63 81t45.5 74.5h192q16 -34 45.5 -74.5t63 -81t68 -78.5t59.5 -67v-27h-121q-51 34 -105 82.5t-106 103.5q-54 -55 -107 -103.5t-104 -82.5h-121z" />
<glyph unicode="&#x2dc;" horiz-adv-x="1182" d="M258 1241q5 60 21.5 109t43 83.5t63.5 53t83 18.5q42 0 82.5 -17.5t78.5 -38.5t72.5 -38.5t63.5 -17.5q45 0 68 26t38 88h105q-5 -60 -21.5 -108.5t-43 -83t-63.5 -53.5t-83 -19q-40 0 -79.5 17.5t-77.5 39t-73 39t-67 17.5q-45 0 -69 -26.5t-38 -88.5h-104z" />
<glyph unicode="&#x964;" horiz-adv-x="742" d="M405 82v1340h126v-1340h-126z" />
<glyph unicode="&#x965;" horiz-adv-x="1013" d="M155 1416q0 101 111 101q27 0 57.5 -21.5t56.5 -55t43 -75t17 -80.5v-1072q7 15 15 22.5t31 7.5q51 0 92 -55q8 -37 8 -58l-8 -48q-23 -27 -48.5 -41t-56.5 -14q-29 0 -58 19.5t-52.5 50.5t-38.5 69.5t-15 76.5v1089q-3 -14 -17 -20.5t-36 -6.5q-101 0 -101 111z M486 1432q0 98 108 98q28 0 57 -22.5t53.5 -56.5t40 -73.5t18.5 -74.5v-1052q4 11 16 15.5t31 4.5q100 0 100 -128q0 -88 -111 -88q-31 0 -59.5 23t-52 57.5t-38.5 73.5t-16 73v1048q-12 -16 -47 -16q-100 0 -100 118z" />
<glyph unicode="&#x981;" horiz-adv-x="3" d="M-812 2120l123 16q17 -104 60 -162.5t86 -74t89 -11.5q174 4 218 248l128 -24q-24 -108 -56 -170t-80 -104t-104.5 -61t-110.5 -19q-66 0 -133.5 25t-129.5 109t-90 228zM-552 2087q0 41 28.5 69.5t69.5 28.5t69.5 -28.5t28.5 -69.5t-28.5 -69.5t-69.5 -28.5t-69.5 28.5 t-28.5 69.5z" />
<glyph unicode="&#x982;" horiz-adv-x="810" d="M55 741l116 116l754 -734l-111 -121zM96 1282q0 119 71 182t189 63q69 0 130 -23.5t106 -65.5t71.5 -100t26.5 -127q0 -123 -73.5 -186.5t-199.5 -63.5q-69 0 -127.5 25t-102 68.5t-67.5 102t-24 125.5zM238 1269q0 -35 15.5 -65t40.5 -52.5t57 -35.5t66 -13 q131 0 131 113q0 76 -48.5 122.5t-122.5 46.5q-139 0 -139 -116z" />
<glyph unicode="&#x983;" horiz-adv-x="730" d="M93 437q0 50 24.5 94.5t63.5 78t87.5 52t98.5 18.5q54 0 102.5 -23t85 -60.5t58 -87.5t21.5 -103q0 -50 -19.5 -98.5t-53 -87.5t-79.5 -63.5t-97 -24.5q-66 0 -120 21.5t-92 61.5t-59 96t-21 126zM93 1158q0 50 25 94t64 77.5t88.5 53.5t96.5 20q53 0 101 -24.5t85 -63.5 t59 -87.5t22 -98.5t-19.5 -99.5t-53 -88.5t-79.5 -63.5t-97 -24.5q-68 0 -122 21.5t-91.5 61t-58 96t-20.5 126.5zM235 385q0 -22 15 -42t35 -35t43 -24.5t39 -9.5q26 0 49 11.5t40.5 30.5t27 43t9.5 50t-9 49.5t-23.5 41t-36.5 28.5t-47 11q-142 0 -142 -154zM235 1106 q0 -25 14 -45t35 -35t44 -23t42 -8q26 0 48.5 11.5t39 30.5t26 43t9.5 51q0 26 -9 49.5t-23.5 41t-36.5 28.5t-47 11q-142 0 -142 -155z" />
<glyph unicode="&#x985;" horiz-adv-x="1791" d="M-24 1401v142h1820v-142h-206v-1401h-141v254l-227 348q-145 -202 -328 -202q-111 0 -204 36.5t-170 99t-138.5 148t-109.5 183.5t-82.5 204t-57.5 211l142 45q18 -82 45.5 -172.5t67.5 -177.5t90 -166t112 -139t135 -95.5t158 -35.5q58 0 106.5 24t83 64.5t54 93 t19.5 111.5q0 53 -23 110.5t-62 105.5t-91 78t-109 30q-54 0 -93 -40.5t-62 -125.5l-130 29q55 279 285 279q81 0 158 -41t136.5 -106t96 -146t36.5 -161q0 -18 -3 -37t-7 -38l172 -251v881h-1473z" />
<glyph unicode="&#x986;" horiz-adv-x="2315" d="M-14 1401v142h1836q20 -13 37.5 -26t36 -30.5t39.5 -41t46 -57.5v367h142v-212h204v-142h-204v-1401h-142v1197q-27 73 -79.5 127t-123.5 77h-178v-1401h-141v254l-227 348q-145 -202 -328 -202q-111 0 -204 36.5t-170 99t-138.5 148t-109.5 183.5t-82.5 204t-57.5 211 l142 45q18 -82 45.5 -172.5t67.5 -177.5t90 -166t112 -139t135 -95.5t158 -35.5q58 0 106.5 24t83 64.5t54 93t19.5 111.5q0 53 -23 110.5t-62 105.5t-91 78t-109 30q-54 0 -93 -40.5t-62 -125.5l-130 29q55 279 285 279q81 0 158 -41t136.5 -106t96 -146t36.5 -161 q0 -18 -3 -37t-7 -38l172 -251v881h-1473z" />
<glyph unicode="&#x987;" horiz-adv-x="1353" d="M-55 2005q0 35 10.5 80t29.5 99l132 -44q-32 -96 -32 -127q0 -84 69.5 -114.5t212.5 -30.5q43 0 90 4.5t96 9t96.5 8.5t95.5 4q74 0 139.5 -16t113.5 -47t75.5 -77t27.5 -106q0 -25 -5.5 -51.5t-13.5 -53.5h304v-142h-1404v142h952q29 47 29 88q0 31 -17.5 54t-49 37.5 t-75.5 22t-95 7.5q-46 0 -95.5 -4t-98.5 -8t-95.5 -8t-87.5 -4l-48 3q-77 0 -142 21t-113 58t-74.5 87t-26.5 108zM120 718q47 -13 101 -29.5t109.5 -30.5t108 -23.5t96.5 -9.5q67 0 135 17t122.5 52t89 88.5t34.5 124.5q0 54 -18 104t-52 87t-80.5 59.5t-103.5 22.5 q-55 0 -98 -21t-76.5 -52t-55.5 -67.5t-34 -68.5l-142 50q9 56 50.5 110t97.5 96.5t120.5 68.5t121.5 26h3q86 -2 161 -36.5t130.5 -93t86.5 -135t31 -161.5q0 -152 -98.5 -249.5t-294.5 -142.5q228 -115 680 -549l-83 -93q-95 87 -178 160.5t-163 136t-160 116.5 t-166.5 101.5t-183 90t-208.5 81.5z" />
<glyph unicode="&#x988;" horiz-adv-x="1466" d="M-29 1401v142h1180q0 76 -22.5 112.5t-67.5 50.5q-14 7 -58.5 8.5t-121.5 1.5h-498q-95 0 -157.5 14t-100.5 48t-53.5 89t-15.5 138q0 27 1.5 62.5t4.5 66.5h116q-3 -15 -3 -40v-60q0 -56 13 -90.5t37 -54t58 -25.5t76 -6q118 0 212.5 1t169.5 2.5t131 3t100 1.5 q79 0 136 -17t92.5 -55t52.5 -99.5t17 -151.5h258v-142h-1557zM172 702l142 47q0 -20 14 -50.5t36 -60t48 -50.5t51 -21q43 0 109 62t151 189v16q0 57 -19 115.5t-55.5 106.5t-89 79t-118.5 31q-31 0 -56 -10t-42.5 -27t-27 -38.5t-9.5 -45.5q0 -20 8 -42l-142 58 q0 53 20.5 97.5t56 77t83.5 51t104 21.5h18q79 0 149.5 -35.5t126 -86.5t90.5 -108t43 -99q34 47 77.5 87.5t92.5 69.5t102.5 45t110.5 16l49 -110q-101 -149 -148 -293.5t-47 -289.5q0 -118 27 -234.5t85 -235.5l-127 -61q-39 90 -63.5 171t-38.5 155.5t-19.5 144.5 t-5.5 139q0 159 143 438q-32 -21 -70 -58t-76.5 -81t-75.5 -92t-69 -90.5t-56 -74t-36 -45.5q-73 -76 -134.5 -115.5t-120.5 -39.5q-192 0 -291 277z" />
<glyph unicode="&#x989;" horiz-adv-x="1559" d="M-32 1401v142h1181q3 11 3 22v25q0 43 -13.5 72.5t-46.5 47t-91 25t-147 7.5l-282 -23q-230 0 -343.5 72t-113.5 211q0 50 50 182l125 -47l-37 -135q7 -43 26.5 -70.5t64 -43.5t120 -22t193.5 -6l316 23q75 0 133 -24t98 -68.5t61 -107.5t22 -140h285v-142h-792v-483 q0 -113 79 -113q18 0 43 19.5t52.5 50t56.5 68t54.5 74.5t45.5 69t30 51q65 -27 111.5 -70.5t77.5 -97.5t46 -115.5t15 -125.5q0 -125 -37 -226.5t-104 -174.5t-160 -113.5t-204 -40.5q-120 0 -218.5 50.5t-176 137t-136.5 200t-115 270.5t-92 413l136 20q6 -73 28 -171.5 t59 -204t88.5 -208t115 -184.5t136.5 -131.5t154 -49.5q83 0 154 33t122.5 87.5t79.5 124.5t28 145q0 56 -17.5 112t-55.5 106q-58 -67 -92 -109.5t-65.5 -70.5t-65 -49.5t-102.5 -29.5q-46 0 -85 20.5t-67.5 55t-44.5 77.5t-16 90v494h-670z" />
<glyph unicode="&#x98a;" horiz-adv-x="1596" d="M-23 1401v142h1221q3 19 4.5 34t1.5 27q0 47 -13 76t-45.5 44.5t-87.5 21t-142 6.5l-282 -21q-230 0 -343 71.5t-113 210.5q0 47 50 182l124 -47l-35 -135q5 -43 24.5 -71t64 -43.5t120.5 -21.5t194 -6l315 23q152 0 234 -91t82 -260h256v-142h-712v-467q0 -93 50 -93 q137 0 314 309q54 -35 97 -87t73 -114.5t45.5 -134.5t15.5 -144q0 -121 -42 -212.5t-117 -153.5t-179 -94.5t-228 -32.5q-121 0 -227 52t-194 139.5t-156 201.5t-115.5 238t-73.5 248.5t-34 155.5l146 23q26 -196 77 -348.5t124 -261.5q-127 359 -143 555l143 26 q12 -113 34 -228t50.5 -218t61.5 -184.5t67 -127.5q98 -129 282 -129q82 0 151.5 31.5t121 85t80.5 125t29 152.5q0 143 -86 213q-85 -119 -169 -174t-169 -55q-32 0 -63 24t-55.5 60t-38.5 75t-14 67v478h-776z" />
<glyph unicode="&#x98b;" horiz-adv-x="1712" d="M89 1438q0 104 94 150l100 -79q-22 -15 -37.5 -31t-15.5 -35q8 -40 28 -47.5t43 -7.5q40 0 90.5 26t100 64t92 81t65.5 77q36 -9 78.5 -39t84.5 -69t78 -81.5t57 -74.5v399h142v-846q171 -93 276 -230v1076h142v-228h222v-142h-222v-1401h-142v293q0 78 -8 139t-33 115 t-92.5 121.5t-142.5 94.5v-763h-142v321q-138 265 -598 481l-98 155q135 97 280.5 182t304.5 161q-16 19 -35 42.5t-39 46t-43 38.5t-49 22q-24 -38 -66 -74.5t-91 -65t-101.5 -46t-97.5 -17.5q-42 0 -82.5 15t-72 40.5t-51 60.5t-19.5 76zM452 921q70 -43 121.5 -74.5 t92 -55.5t72.5 -45.5t64 -47.5t66.5 -59t78.5 -80v633q-133 -55 -259.5 -121.5t-235.5 -149.5z" />
<glyph unicode="&#x98c;" horiz-adv-x="1359" d="M181 1488q0 127 193 262l76 -104q-66 -42 -96.5 -79t-30.5 -71q0 -61 62 -113t193 -96q201 -69 322.5 -117t165.5 -75q130 -81 199 -191t69 -255q0 -124 -61.5 -218t-158.5 -157t-216.5 -95t-235.5 -32q-127 0 -238 38l83 116l63 -13q72 17 120 58t77 90t41 95.5t12 74.5 q0 37 -13.5 80t-40 79.5t-64 60.5t-87.5 24q-42 0 -78 -18t-63 -46.5t-42.5 -64t-15.5 -69.5q0 -39 19 -70t69 -54l-105 -91q-62 31 -93.5 90t-31.5 125q0 80 30.5 143.5t78.5 107t107.5 66.5t116.5 23q83 0 149.5 -29t111.5 -80t69.5 -120t24.5 -149q0 -74 -14.5 -122 t-33.5 -80.5t-38.5 -55.5t-31.5 -47q23 3 57.5 13.5t73.5 31t77.5 49t69.5 65.5t50.5 82t19.5 99q0 85 -29 148.5t-77.5 111t-112.5 81t-134 60.5t-142.5 48.5t-137.5 46.5q-378 136 -378 343z" />
<glyph unicode="&#x98f;" horiz-adv-x="1643" d="M153 821q0 88 19 169t50 157l122 -66q-27 -95 -38.5 -173.5t-11.5 -139.5q0 -75 19.5 -126.5t64.5 -82.5t118.5 -44.5t181.5 -13.5q80 0 155.5 9.5t151.5 9.5q81 0 162.5 -24.5t153.5 -94.5v937q0 21 -11 39.5t-28.5 31.5t-38.5 20t-41 7q-28 0 -70.5 -23.5t-90.5 -60.5 t-97 -83.5t-87.5 -94t-62.5 -90.5t-24 -71q0 -56 55 -56q23 0 50 14l61 -103q-64 -45 -124 -45q-39 0 -71.5 15t-55.5 40t-36.5 59t-13.5 73q0 51 27.5 113t73 125.5t105.5 123t124 105.5t128 73.5t120 27.5q46 0 90.5 -17t79.5 -46.5t57 -68.5t22 -85v-1361h-141 q-3 105 -27.5 176.5t-73 115.5t-122.5 63.5t-176 19.5q-17 0 -52 -2.5t-77.5 -5.5t-86.5 -5.5t-79 -2.5q-123 0 -209 26.5t-140.5 82.5t-79.5 143.5t-25 209.5z" />
<glyph unicode="&#x990;" horiz-adv-x="1776" d="M137 821q0 88 17 169t52 157l122 -66q-27 -95 -38.5 -173.5t-11.5 -139.5q0 -69 17.5 -119t56 -82t99 -47.5t148.5 -15.5h61q81 0 157 8t152 8q84 0 161.5 -23t154.5 -96v940q0 21 -11 38.5t-28.5 30.5t-38.5 19.5t-41 6.5q-28 0 -70 -23t-90 -60t-96 -83.5t-85.5 -93 t-62 -90.5t-24.5 -73q0 -22 17 -33.5t37 -11.5q12 0 24 6t20 13l64 -119q-31 -23 -64 -32.5t-68 -9.5q-40 0 -71 14.5t-54 40t-35 60t-12 74.5q0 51 28.5 113.5t75.5 124.5t108 120.5t126 104t127.5 73t115.5 27.5q118 0 183.5 -72t65.5 -224q0 -27 -4 -60q57 25 80 69.5 t23 109.5q0 162 -255 266l-478 158q-127 57 -187.5 131t-60.5 168q0 33 4 57t21.5 48t53 56.5t100.5 83.5l78 -113q-60 -35 -88 -67.5t-28 -59.5q0 -68 61 -118.5t188 -90.5q216 -69 338 -107t140 -46q126 -65 190.5 -156.5t64.5 -214.5q0 -119 -60 -206.5t-182 -144.5 v-1045h-140q0 159 -61.5 249t-210.5 113q-29 5 -60 10.5t-69 5.5q-73 0 -150.5 -8t-140.5 -8q-124 0 -211 25.5t-141.5 81.5t-79 143t-24.5 209z" />
<glyph unicode="&#x993;" horiz-adv-x="1541" d="M93 1300l142 43q30 -115 74.5 -235.5t100 -234.5t123 -216t143 -177.5t160 -120t175.5 -44.5q65 0 115 21.5t85 56.5t53.5 81.5t18.5 97.5q0 62 -28 124.5t-86 116.5q-79 -25 -171 -33l-28 138q307 0 307 259q0 42 -20.5 73.5t-56 53.5t-81 32t-97.5 10 q-50 0 -109.5 -19.5t-111 -50t-87 -67.5t-35.5 -72q0 -44 28 -79.5t88 -62.5l-55 -127q-201 91 -201 269q0 69 46.5 132t120 112t162.5 78t175 29q187 0 281.5 -85t94.5 -258q0 -92 -33 -162t-98 -118q38 -39 64.5 -71.5t42.5 -66t23 -71.5t7 -86q0 -83 -30.5 -155 t-82.5 -126t-122.5 -85t-149.5 -31q-193 0 -348.5 100.5t-282.5 298.5q-129 197 -316 728z" />
<glyph unicode="&#x994;" horiz-adv-x="1721" d="M83 1300l142 43q22 -92 48 -171.5t52.5 -146t53 -121.5t47.5 -99q64 -129 138 -221.5t149.5 -151.5t150 -88t137.5 -29q65 0 115 20.5t85 56t53.5 81t18.5 97.5q0 60 -28 123t-86 120q-79 -25 -171 -33l-28 138q83 0 142 15.5t95.5 47.5t53 81t16.5 118q0 90 -68 128 t-206 38q-48 0 -105 -20.5t-105 -51.5t-80 -68t-32 -69q0 -44 27 -79.5t87 -62.5l-55 -127q-201 91 -201 269q0 69 46.5 132t120 112t162.5 78t175 29q83 0 152.5 -22t119 -62.5t77 -99t27.5 -132.5q0 -15 -4 -32t-10 -34.5t-13.5 -33.5t-12.5 -30q149 29 149 238 q0 85 -29 147.5t-78 109.5t-113 80t-135 59t-143.5 48t-136.5 46q-189 69 -283 156t-94 192q0 126 194 262l80 -104q-132 -84 -132 -150q0 -61 62.5 -112.5t193.5 -96.5q201 -69 322.5 -117t165.5 -75q131 -81 199.5 -191t68.5 -254q0 -83 -27.5 -152.5t-77 -124t-117 -92.5 t-146.5 -54q63 -56 93 -128t30 -159q0 -83 -30.5 -155t-82.5 -126t-122.5 -85t-149.5 -31q-195 0 -349.5 100.5t-281.5 298.5q-129 197 -316 728z" />
<glyph unicode="&#x995;" horiz-adv-x="1708" d="M-65 1401v142h1785v-142h-668v-127q108 -10 206 -50.5t173 -107t118.5 -157t43.5 -202.5q0 -46 -16.5 -95t-46.5 -90t-71 -67.5t-90 -26.5q-39 0 -101.5 24t-122.5 78l88 108q77 -68 116 -68q24 0 44 14.5t32.5 37.5t19.5 49.5t7 49.5q0 74 -35.5 140t-92 115.5 t-126.5 78t-139 28.5h-7v-1133h-142v243q-16 46 -55 100.5t-93 110.5t-119 109t-131.5 93.5t-133 70.5t-156.5 17l-73 150q182 143 374.5 236t386.5 144v127h-975zM357 868q46 -9 99 -30t108 -51t108 -67t100 -77.5t82.5 -83t55.5 -84.5v658q-23 -3 -68.5 -18.5t-102.5 -39 t-118.5 -52.5t-115.5 -57.5t-93.5 -54t-54.5 -43.5z" />
<glyph unicode="&#x996;" horiz-adv-x="1367" d="M97 1264q0 99 61 171l110 -63q-20 -30 -24.5 -56.5t-4.5 -41.5q0 -6 6 -17.5t18 -24t31 -21t45 -8.5q31 0 58 9.5t56.5 42.5t65.5 95.5t84 169.5q49 -20 98 -57t89 -85t65 -103t25 -109q0 -64 -31 -123.5t-79.5 -108t-109.5 -82t-120 -45.5q110 -42 230.5 -128 t255.5 -217v1309h141v-228h233v-142h-233v-1401h-141v227q-19 46 -64.5 100t-106 108.5t-131.5 106.5t-142 94t-136.5 69.5t-113.5 32.5l-56 135q42 5 92 17t101.5 31t100 45t85.5 59t60 73t23 86q0 73 -74 143q-31 -62 -61.5 -110t-67.5 -81t-85.5 -52t-114.5 -23 q-49 0 -92 15t-75.5 41t-51.5 63.5t-19 83.5z" />
<glyph unicode="&#x997;" horiz-adv-x="1414" d="M149 1156q0 78 35.5 150t94.5 126t136 86.5t159 32.5q89 0 156.5 -21.5t125 -64t109.5 -108t107 -151.5v566h142v-229h221v-142h-221v-1401h-142v981q-233 428 -498 428q-46 0 -96 -20t-91.5 -54.5t-68.5 -79t-27 -94.5q0 -45 29 -45q18 0 55.5 11.5t79 25t78.5 25 t53 11.5q45 0 84 -14t68.5 -41t46.5 -65.5t17 -87.5q0 -37 -25.5 -81.5t-68 -94.5t-98 -105t-116.5 -111l-116 89q91 86 145.5 144t85 93t40.5 53.5t11 26.5q0 38 -22.5 52t-66.5 14q-8 0 -43 -13.5t-77.5 -29.5t-83 -29.5t-58.5 -13.5q-37 0 -67 14.5t-51 39t-31.5 57.5 t-10.5 70z" />
<glyph unicode="&#x998;" horiz-adv-x="1328" d="M-9 1401v142h1354v-142h-217v-1401h-142v180q-39 90 -104.5 167t-150.5 136.5t-184.5 100t-204.5 57.5l-44 111l216 227q-13 -3 -25.5 -4.5t-24.5 -1.5q-60 0 -114.5 22.5t-97 60t-67.5 87.5t-25 107q0 38 11.5 75.5t38.5 75.5h-219zM302 1269q0 -38 22 -66.5t57 -48 t80.5 -29.5t91.5 -10q59 0 102.5 18.5t90.5 69.5l90 -100q-85 -81 -174 -168t-182 -183q93 -35 160 -63.5t121.5 -63.5t107 -82.5t117.5 -117.5v976h-614q-39 -35 -54.5 -68t-15.5 -64z" />
<glyph unicode="&#x999;" horiz-adv-x="1381" d="M84 1108l142 29q20 -161 47 -275t54 -187q33 -89 82 -182t114.5 -169.5t146.5 -125t178 -48.5q144 0 225.5 83.5t81.5 233.5q0 131 -103 255q-13 -44 -43 -87.5t-69 -77t-85.5 -54t-92.5 -20.5q-154 0 -230 104t-76 307q0 67 8 159q-57 46 -123 124t-146 189l111 85 q82 -177 189 -279q16 56 53.5 106t88.5 87.5t109.5 59t118.5 21.5q50 0 102.5 -15.5t95 -45.5t69.5 -73t27 -98q0 -65 -34.5 -115.5t-87 -86t-116 -54t-123.5 -18.5q-64 0 -110 10.5t-85 33.5q-3 -27 -4.5 -60t-1.5 -59q0 -42 5.5 -84.5t21.5 -76.5t44.5 -56.5t74.5 -22.5 q37 0 76 25t72 62t56 80.5t28 80.5l111 21q53 -35 92 -80.5t65.5 -99t40 -111.5t13.5 -117q0 -86 -28 -171t-84.5 -153.5t-141.5 -111t-200 -42.5q-126 0 -227.5 52t-182 139t-140 200t-102 235t-69 245t-38.5 229zM613 1095q69 -37 169 -37q52 0 95 9t74 27t48.5 46 t17.5 66v8q-3 54 -46.5 79.5t-105.5 25.5q-42 0 -86.5 -18.5t-81 -48.5t-60.5 -70.5t-24 -86.5z" />
<glyph unicode="&#x99a;" horiz-adv-x="1232" d="M-31 1401v142h1271v-142h-857v-168q50 -65 87 -106.5t76.5 -67t91.5 -39.5t133 -25q73 -11 123.5 -23t77.5 -27q43 -27 76 -73t33 -115q0 -109 -71.5 -231t-198.5 -257q-123 -131 -234 -197.5t-207 -66.5h-6q-39 23 -69.5 49.5t-53.5 53.5v1293h-272zM383 147 q65 0 146 58t192 177q218 235 218 370q0 61 -100 92q-56 13 -121 28t-126.5 36t-116 50.5t-92.5 75.5v-887z" />
<glyph unicode="&#x99b;" horiz-adv-x="1312" d="M-18 1401v142h1346v-142h-994v-58q35 -56 73.5 -91.5t86.5 -54.5q29 -2 74.5 -9t95.5 -15t99 -14t87 -6q12 0 24 1.5t21 3.5q62 0 116.5 -29t95 -79t64 -116t23.5 -140q0 -69 -35 -137t-95.5 -128.5t-141.5 -109.5t-172 -79q84 -31 144.5 -58.5t110 -56t91.5 -59.5 t87 -70t99 -89t127 -115l-95 -100q-87 101 -206 192.5t-254 159t-276.5 107t-291.5 39.5v142h197q112 0 214.5 33t181.5 87.5t126.5 125.5t47.5 145q0 45 -7.5 76t-27 53.5t-53 37t-84.5 27.5l-58 8q-8 -80 -46 -157t-94.5 -139t-128 -100t-145.5 -38q-40 0 -78.5 17 t-68.5 44t-49.5 61t-19.5 67v621h-211zM334 796q19 -31 36.5 -47t43.5 -16q39 0 85 29.5t86 73t67 91.5t27 86q0 44 -45 48h-77q-138 0 -223 105v-370z" />
<glyph unicode="&#x99c;" horiz-adv-x="1704" d="M-29 1401v142h1752v-142h-887v6q33 -83 77 -135t98.5 -81t118.5 -39t137 -10q42 0 91.5 2t124.5 9l69 -92q-31 -92 -56 -171t-42.5 -150.5t-27 -139t-9.5 -136.5q0 -93 18 -196t62 -234l-133 -42q-42 135 -65.5 260.5t-23.5 248.5q0 127 21 245.5t76 253.5 q-114 0 -200 6.5t-148.5 21t-108 38t-80 58t-62.5 80.5t-58 107q-42 -20 -74.5 -54.5t-55.5 -76t-35 -88t-12 -92.5q0 -33 11.5 -65t32 -56t48 -38.5t59.5 -14.5q116 0 169 95l103 21q60 -52 97.5 -90t57.5 -71t27 -68t7 -83q0 -79 -34.5 -152.5t-91.5 -129.5t-131 -89.5 t-154 -33.5q-202 0 -364 187q-61 69 -110.5 142.5t-83.5 170t-53 226.5t-19 313h142q0 -50 0.5 -92.5t2.5 -83t5.5 -79t8.5 -80.5q15 -111 62 -213t112 -179.5t142 -123.5t153 -46q50 0 99 21.5t87 57.5t61.5 82.5t23.5 96.5q0 100 -78 166q-52 -51 -112.5 -79t-133.5 -28 q-62 0 -114.5 26.5t-91 70.5t-60.5 100.5t-22 116.5q0 268 208 403h-633z" />
<glyph unicode="&#x99d;" horiz-adv-x="1603" d="M-19 1401v142h1042v-877q114 -42 238 -196v1301h142v-228h237v-142h-237v-1246h-142v112q-119 180 -238 227v-494h-141v243q-22 51 -64 109t-96.5 114t-118.5 107t-129 89.5t-127.5 61.5t-114.5 23h-16t-16 -3l-73 150q159 137 347.5 233.5t407.5 154.5v119h-901z M321 871q46 -10 100 -31t110 -50.5t110 -66.5t100.5 -77.5t83 -83t57.5 -84.5v663q-23 -2 -69 -18t-103.5 -40.5t-120 -54t-117.5 -59t-95.5 -55.5t-55.5 -43z" />
<glyph unicode="&#x99e;" horiz-adv-x="2227" d="M122 799q0 93 17.5 185t48.5 163l131 -28q-35 -115 -45.5 -201t-10.5 -150q0 -69 14.5 -119.5t49.5 -85t93.5 -51.5t149.5 -17q19 0 71.5 1t115 2.5t123 2t93.5 0.5q161 0 283 -97v937q0 13 -7 30t-18 31t-23.5 23.5t-26.5 9.5q-25 0 -47.5 -2t-44.5 -9 q-25 -7 -61.5 -31.5t-77 -60.5t-80.5 -78t-71.5 -84.5t-51 -80t-19.5 -63.5q0 -27 12 -50.5t43 -23.5q59 0 93 46l95 -99q-98 -89 -188 -89q-43 0 -79 16t-62 44t-41 65t-15 80q0 49 27.5 109t73.5 122t105 121.5t120 105.5t121.5 74t108.5 28q73 0 121.5 -17.5t78.5 -66.5 t42.5 -137t12.5 -228q83 82 139.5 134t101 81t85 39t91.5 10q61 0 114 -22.5t92.5 -63t62 -94.5t22.5 -115q0 -143 -122 -249q65 -71 98.5 -139t33.5 -137q0 -143 -72.5 -215t-211.5 -72q-56 0 -118 24.5t-121.5 63.5t-110.5 87t-84 95v-553h-141q0 217 -103 296 q-27 20 -79.5 31.5t-119 17.5t-141.5 7.5t-146 1.5h-200q-100 5 -166.5 41.5t-106.5 96t-56 137.5t-16 170zM1397 728q37 -44 91 -96.5t115.5 -98.5t123.5 -77t114 -31q76 0 104.5 33t28.5 114q0 53 -21.5 93t-56 67t-78.5 40.5t-87 13.5q-29 0 -57 -3t-51 -9v141 q25 -6 50 -7t52 -1q46 0 88.5 11t75.5 34.5t53.5 58.5t20.5 84q0 30 -12 57.5t-33 49t-49 34.5t-57 13q-76 0 -178 -82t-237 -249v-190z" />
<glyph unicode="&#x99f;" horiz-adv-x="1196" d="M-88 2032q0 85 92 200l116 -81q-66 -87 -66 -152q0 -128 267 -128l424 31q74 0 135 -25.5t103.5 -71t66 -109t23.5 -137.5v-16h131v-142h-831v-958q-1 -74 22 -111t62 -37q54 0 107.5 25t102 67.5t90.5 99t73 120.5t48.5 131.5t17.5 131.5q0 100 -82 100q-38 0 -108 -45 l-83 93q104 84 196 84q46 0 86 -17.5t69.5 -49t46.5 -77t17 -99.5q0 -78 -23 -161t-63 -161.5t-95 -148t-119.5 -122t-135 -83t-142.5 -30.5q-54 0 -96.5 21t-72 58.5t-45 89.5t-15.5 113v966h-267v142h950q6 20 9.5 39t3.5 35q0 73 -63.5 107t-187.5 36l-426 -31 q-69 0 -130.5 22.5t-107.5 62.5t-73 95t-27 123z" />
<glyph unicode="&#x9a0;" horiz-adv-x="1190" d="M-14 1401v142h477q-111 131 -166.5 241.5t-55.5 212.5q0 163 149 359l105 -77q-42 -56 -64 -93.5t-33 -64.5t-13 -48t-2 -41q0 -53 11 -101.5t40.5 -104t81.5 -123.5t134 -160h547v-142h-483q84 -129 137 -221.5t80 -150.5q45 -97 72 -202.5t27 -220.5q0 -106 -40 -213 t-107 -192.5t-154 -139t-181 -53.5q-96 0 -175 32.5t-135.5 90t-88.5 137.5t-32 178q0 54 14.5 81.5t39 44.5t59 31.5t75.5 43.5q81 55 133.5 107t83 117t42.5 149t12 204q0 52 -8 97t-23 80h-559zM259 462q0 -312 283 -312q72 0 135 44t110 115.5t74 162.5t27 185 q0 234 -166 472q0 -112 -35 -219.5t-96.5 -198t-146.5 -156t-185 -93.5z" />
<glyph unicode="&#x9a1;" horiz-adv-x="1545" d="M-58 1401v142h1609v-142h-776v-541q0 -31 11 -46t38 -15q22 0 54.5 17.5t70 45.5t76 62.5t71.5 68t58 64t35 49.5q94 -62 151 -171.5t57 -264.5q0 -102 -42.5 -193.5t-115.5 -161t-171.5 -110t-210.5 -40.5q-132 0 -232.5 51t-175 137.5t-125.5 199.5t-87 237.5 t-58.5 249t-38.5 228.5l141 17q32 -254 90 -438t135 -304t168 -178.5t191 -58.5q76 0 147 34t125 88.5t86.5 125.5t32.5 145q0 57 -18.5 109.5t-53.5 104.5q-27 -42 -71.5 -87.5t-98.5 -82.5t-110 -61.5t-105 -24.5q-29 0 -59 19t-53.5 47.5t-38.5 61.5t-15 61v555h-691z " />
<glyph unicode="&#x9a2;" horiz-adv-x="1226" d="M-29 1401v142h1266v-142h-832v-1103q0 -44 4 -71t13.5 -42.5t25.5 -22.5t42 -12q55 5 110 35.5t103.5 77t89.5 106.5t71.5 127.5t47.5 138.5t17 139q0 105 -83 105q-18 0 -45 -11t-61 -48l-84 109q116 92 201 92q42 0 81 -24t68.5 -60.5t47 -81.5t17.5 -87 q0 -82 -23 -170.5t-63.5 -173t-96 -160t-119.5 -133t-134.5 -90.5t-141.5 -33q-54 0 -96.5 21t-72.5 59t-45.5 90t-15.5 112v1111h-292z" />
<glyph unicode="&#x9a3;" horiz-adv-x="1328" d="M174 1081q0 83 30.5 164.5t84 146.5t128 105.5t163.5 40.5q127 0 226 -70.5t178 -209.5v513h142v-228h262v-142h-262v-1401h-142v948q0 39 -16 87t-43 98t-62 97t-73.5 84t-78 59.5t-72.5 22.5q-72 0 -131.5 -21t-102 -61t-66 -97t-23.5 -130q0 -38 15.5 -82t43 -81.5 t63.5 -63.5t76 -26q26 0 50 12l-47 -141q-8 -3 -17 -3h-19q-60 0 -115.5 38.5t-98 95t-68 123t-25.5 122.5z" />
<glyph unicode="&#x9a4;" horiz-adv-x="1610" d="M-72 1401v142h1743v-142h-1743zM152 1204l145 23l13 -77q18 -100 38 -206t48.5 -206.5t69 -190t98 -156.5t135 -106t181.5 -39q101 0 175.5 39t123 103t71.5 146t23 168q0 85 -22.5 168t-65.5 148t-106.5 105.5t-145.5 40.5q-40 0 -77.5 -13.5t-68.5 -38.5t-50 -59.5 t-19 -76.5q0 -19 8.5 -43t27.5 -54l-120 -69q-29 57 -43.5 108t-14.5 95q0 60 28 113.5t75.5 93.5t112.5 62.5t141 22.5q117 0 207.5 -52.5t151 -138t92 -193.5t31.5 -219q0 -113 -32.5 -220.5t-97 -191t-161 -135t-222.5 -51.5q-141 0 -244 46t-177.5 125t-125 183.5 t-85.5 221t-66.5 258.5t-51.5 266z" />
<glyph unicode="&#x9a5;" horiz-adv-x="1371" d="M82 1216q0 80 37 141.5t96.5 102.5t132.5 62t146 21q74 0 145.5 -23t127.5 -69.5t90.5 -116.5t34.5 -165q0 -66 -32 -131.5t-83 -119.5t-114.5 -92t-127.5 -50q142 -54 266.5 -143t228.5 -216v1354h141v-228h224v-142h-224v-1401h-141v202q-100 110 -181 193t-165 143 t-180.5 98t-267.5 68l-40 169q134 0 249 28.5t182.5 68.5t95 93t27.5 126q0 53 -23 92t-60 65.5t-84.5 39.5t-96.5 13q-45 0 -91.5 -13t-84.5 -36.5t-62 -54.5t-24 -68q0 -42 19.5 -63.5t47.5 -21.5q7 0 16.5 1.5t17.5 3.5v-141q-11 -3 -23 -3h-22q-40 0 -76 15.5t-63.5 44 t-43 67.5t-15.5 86z" />
<glyph unicode="&#x9a6;" horiz-adv-x="1229" d="M-23 1401v142h1266v-142h-906v-646q142 185 312.5 287.5t380.5 121.5l121 -91q-69 -123 -97 -270t-28 -302q0 -123 15.5 -245t42.5 -237l-131 -24q-35 109 -52 232.5t-17 250.5q0 135 19 267.5t58 254.5q-181 -23 -333.5 -156.5t-291.5 -351.5l-141 107v802h-218z" />
<glyph unicode="&#x9a7;" horiz-adv-x="1271" d="M144 815l311 253q-261 61 -261 254q0 48 18.5 92t50.5 76.5t74.5 52t91.5 19.5q117 0 197 -155l-108 -69q-15 35 -39 58.5t-63 23.5q-21 0 -35.5 -10t-25 -25.5t-15 -32.5t-4.5 -30q0 -37 21.5 -63t58 -46t82.5 -34.5t94 -28.5l335 188v205h369v-142h-227v-1401h-142v238 q-92 90 -169.5 161t-157.5 127t-170.5 99t-207.5 77zM357 807q72 -35 126 -62.5t97 -52t81 -49.5t77 -54.5t84.5 -68t104.5 -89.5v743q-328 -159 -570 -367z" />
<glyph unicode="&#x9a8;" horiz-adv-x="1343" d="M-61 1401v142h1422v-142h-221v-1401h-142v533q-15 65 -49.5 142t-84.5 144.5t-114 112.5t-138 45q-65 0 -118.5 -25t-92 -66t-59.5 -94.5t-21 -108.5q0 -57 22 -111t71 -99l-90 -109q-76 53 -110 130.5t-34 162.5q0 83 29 166t83 148.5t128 106.5t166 41q135 0 239 -69.5 t173 -211.5v563h-1059z" />
<glyph unicode="&#x9aa;" horiz-adv-x="1490" d="M104 1158q15 68 64.5 132t117.5 114t147 80.5t153 30.5q366 0 562 -359v615h142v-228h237v-142h-237v-1401h-142v868q0 8 -10 31.5t-26.5 54t-36 64.5t-37 63t-31.5 49t-20 26q-75 -81 -203.5 -215t-313.5 -319l-100 93q103 108 103 198q0 32 -9.5 63t-28 55.5t-44 38.5 t-57.5 14q-6 0 -132 -26zM304 1216q65 0 111 -12t79 -41.5t56.5 -81t43.5 -129.5q65 61 141.5 137t165.5 172q-53 42 -97 64t-79 33t-62 13t-47 2q-31 0 -72 -9t-84.5 -27t-84.5 -48.5t-71 -72.5z" />
<glyph unicode="&#x9ab;" horiz-adv-x="1678" d="M-49 1401v142h1751v-142h-1275q173 -114 283 -270v-105q-69 -63 -146 -126.5t-162 -131.5q160 -51 294 -145.5t240 -229.5v923q21 3 42 3h43q112 0 214 -32t180.5 -94t124.5 -153.5t46 -210.5q0 -43 -17.5 -81t-48 -67t-69.5 -46t-81 -17q-23 0 -55.5 7.5t-71.5 23.5 l69 137q15 -14 29 -20t26 -6q77 0 77 97q0 69 -27 126.5t-75 98t-115.5 62.5t-148.5 22v-1166h-142v193q-21 51 -62.5 102.5t-94.5 100t-116.5 92t-130.5 78.5t-135 60.5t-130 37.5l-80 101q101 77 196.5 155.5t184.5 155.5q-47 69 -142.5 151t-238.5 174h-236z" />
<glyph unicode="&#x9ac;" horiz-adv-x="1216" d="M-19 1401v142h1235v-142h-201v-1401h-142v246q-12 42 -48.5 95t-89 109t-116 109.5t-129.5 96t-129.5 68t-114.5 25.5q-11 0 -20.5 -1t-17.5 -4l-92 150q348 268 757 388v119h-892zM335 868q36 -4 86 -23.5t105 -50.5t110 -69.5t103 -80t84 -82t50 -73.5v653 q-29 -7 -75 -24.5t-98.5 -41t-108.5 -52t-106 -56.5t-90 -54t-60 -46z" />
<glyph unicode="&#x9ad;" horiz-adv-x="1582" d="M-13 1401v142h1659v-142h-1659zM108 1160l135 40q51 -196 128 -355t173 -272t208.5 -174.5t234.5 -61.5q74 0 137 35.5t108.5 92t71.5 128t26 143.5q0 65 -23 123t-70 104q-77 -131 -170.5 -190.5t-203.5 -59.5q-80 0 -146 21.5t-113.5 62.5t-73.5 102t-26 140 q0 46 14 87.5t39.5 73t62 50.5t82.5 19q114 -1 200 -82l-54 -118q-76 58 -115 58q-42 0 -65 -29t-23 -83q0 -81 53 -120.5t154 -39.5q50 0 90.5 13.5t78 50.5t77.5 102.5t89 167.5q78 -54 132.5 -108t88.5 -114t49 -127.5t15 -148.5q0 -96 -38 -185t-103 -158t-150.5 -110.5 t-182.5 -41.5q-147 0 -278 58.5t-246 187t-212 330t-154 388.5z" />
<glyph unicode="&#x9ae;" horiz-adv-x="1386" d="M-6 1401v142h1398v-142h-206v-1401h-142v478q0 28 -17.5 72t-47 93.5t-67.5 98.5t-78.5 89t-79.5 65t-72 25q-148 0 -234 -78.5t-86 -225.5q0 -220 234 -266l-63 -121h-11q-61 0 -115 38t-96 95t-66 123t-24 123q0 378 383 455q-18 48 -43.5 82.5t-72.5 61.5t-122 50.5 t-190 49.5v93h-182zM392 1401q80 -27 137 -56.5t100 -70t74 -95t56 -129.5q81 -27 152.5 -94.5t132.5 -172.5v618h-652z" />
<glyph unicode="&#x9af;" horiz-adv-x="1288" d="M-55 1401v142h1346v-142h-204v-1401h-142v211q-47 78 -124.5 151t-169.5 131.5t-192 99.5t-191 56l-125 156q72 73 172.5 159t231.5 183q-4 7 -29 28.5t-62 50t-81 59t-84 57t-70 43t-41 16.5h-235zM336 788q114 -35 192 -66.5t143.5 -74t128.5 -101.5t145 -145v1000 h-503q42 -28 82.5 -56.5t78 -59.5t71.5 -68t61 -83q-127 -101 -226.5 -187t-172.5 -159z" />
<glyph unicode="&#x9b0;" horiz-adv-x="1215" d="M-19 1401v142h1235v-142h-201v-1401h-142v246q-12 42 -48.5 95t-89 109t-116 109.5t-129.5 96t-129.5 68t-114.5 25.5q-11 0 -20.5 -1t-17.5 -4l-92 150q348 268 757 388v119h-892zM335 868q36 -4 86 -23.5t105 -50.5t110 -69.5t103 -80t84 -82t50 -73.5v653 q-29 -7 -75 -24.5t-98.5 -41t-108.5 -52t-106 -56.5t-90 -54t-60 -46zM343 262q0 69 42.5 112t111.5 43q68 0 111.5 -43t43.5 -112t-43.5 -112.5t-111.5 -43.5q-69 0 -111.5 43.5t-42.5 112.5z" />
<glyph unicode="&#x9b2;" horiz-adv-x="1487" d="M-22 1401v142h1525v-142h-216v-1401h-142v763q-22 96 -44 143t-57 86t-70 52.5t-54 13.5q-28 0 -47.5 -15.5t-33.5 -39.5t-17.5 -54t-2.5 -79.5t4 -60.5l-118 -23q0 49 -16.5 113.5t-45.5 98t-69.5 54t-88.5 20.5q-57 0 -99 -23t-69.5 -59.5t-41.5 -83.5t-14 -96 q0 -51 14.5 -100t44.5 -86.5t74.5 -61t103.5 -23.5h18q9 0 17 2l-48 -132h-7q-92 0 -159.5 34.5t-112 90.5t-66 128t-21.5 148t22 148.5t66.5 129.5t112 91.5t158.5 34.5q166 -3 263 -153q21 70 74.5 104.5t105.5 34.5q35 0 69.5 -12t64 -34.5t53 -54t37.5 -70.5v372h-1167z " />
<glyph unicode="&#x9b6;" horiz-adv-x="1476" d="M-23 1382v156q30 4 58.5 4.5t57.5 0.5q79 0 152 -14t133 -48.5t101 -91.5t55 -142q35 131 105.5 196.5t181.5 65.5q58 -6 100 -28.5t76.5 -56.5t65.5 -77.5t70 -93.5v518h142v-228h222v-142h-222v-1401h-142v968q0 24 -13.5 62.5t-38 83t-55.5 90t-67.5 82t-74 59.5 t-74.5 23q-69 0 -112 -67.5t-43 -211.5q0 -32 14 -61t38 -50t54 -33.5t63 -12.5q46 0 88 31l66 -119q-43 -31 -84 -42.5t-76 -11.5q-83 0 -148 38.5t-112 123.5q-20 -42 -49 -75t-63 -57t-70.5 -36.5t-71.5 -12.5q-47 0 -91.5 17.5t-88.5 63.5l72 113q19 -19 45.5 -35.5 t65.5 -16.5q28 5 52.5 24t42 45t27.5 56.5t10 59.5q0 71 -28.5 127t-76.5 95t-111 60t-132 21q-58 0 -114 -19z" />
<glyph unicode="&#x9b7;" horiz-adv-x="1297" d="M-13 1401v142h1320v-142h-213v-1401h-142v177q-92 131 -169.5 218t-154 139.5t-155.5 75.5t-172 26l-116 160q39 48 130 130t239 200q-76 57 -193.5 124.5t-279.5 150.5h-94zM359 1401q99 -39 246.5 -144t346.5 -281v425h-593zM374 771q339 -37 578 -351v337 q-35 50 -106.5 121.5t-175.5 163.5q-94 -69 -166.5 -136.5t-129.5 -134.5z" />
<glyph unicode="&#x9b8;" horiz-adv-x="1500" d="M-15 1401v142h1519v-142h-205v-1401h-143v678q-10 31 -38 80t-64.5 96.5t-75.5 81t-73 33.5q-40 0 -74 -34.5t-66 -85.5t-64.5 -110.5t-70.5 -111t-85 -85.5t-107 -34q-69 0 -146 73.5t-167 220.5l123 66q13 -26 30.5 -63.5t40.5 -72t51 -59t60 -24.5q27 0 59 29t59 69 t45.5 81t21.5 66q-13 94 -35.5 159.5t-72 111.5t-137 79t-230.5 64v93h-155zM359 1401q81 -32 138 -63t99.5 -71.5t74.5 -96.5t60 -139q84 80 180 80q109 0 245 -190v480h-797z" />
<glyph unicode="&#x9b9;" horiz-adv-x="1272" d="M-39 1401v142h1327v-142h-1327zM204 567v145q199 -79 362 -79q76 0 144.5 25.5t120.5 69.5t83 101.5t31 122.5q0 48 -31 95.5t-78 85t-102 60.5t-102 23q-43 0 -88.5 -14t-83 -39t-62 -61.5t-24.5 -80.5q0 -27 20.5 -55t55.5 -59l-85 -116q-133 82 -133 240 q0 62 40.5 121t101.5 105t132.5 73.5t132.5 27.5q73 0 152.5 -33.5t145 -90.5t108 -130.5t42.5 -151.5q0 -309 -413 -446q232 -127 405.5 -266.5t296.5 -294.5l-104 -92q-236 259 -500.5 436.5t-567.5 277.5z" />
<glyph unicode="&#x9bc;" horiz-adv-x="63" d="M-1050 -290q0 69 42.5 112t111.5 43q68 0 111.5 -43t43.5 -112t-43.5 -112.5t-111.5 -43.5q-69 0 -111.5 43.5t-42.5 112.5z" />
<glyph unicode="&#x9bd;" horiz-adv-x="1219" d="M-69 1401v142h821v-263h-143v121h-678zM174 567v158q199 -92 362 -92q76 0 144.5 25.5t120.5 69.5t83 101.5t31 122.5q0 48 -31 95.5t-78 85t-102 60.5t-102 23q-43 0 -88.5 -14t-83 -39t-62 -61.5t-24.5 -80.5q0 -27 20.5 -55t55.5 -59l-85 -116q-133 82 -133 240 q0 62 40.5 121t101.5 105t132.5 73.5t132.5 27.5q73 0 152.5 -33.5t145 -90.5t108 -130.5t42.5 -151.5q0 -309 -413 -446q232 -127 405.5 -266.5t296.5 -294.5l-104 -92q-236 259 -500.5 436.5t-567.5 277.5z" />
<glyph unicode="&#x9be;" horiz-adv-x="536" d="M-146 1401v142h198q20 -13 37 -26t35 -30.5t38.5 -41t47.5 -57.5v383h142v-228h245v-142h-245v-1401h-142v1197q-27 73 -79 127t-124 77h-153z" />
<glyph unicode="&#x9bf;" horiz-adv-x="541" d="M-41 1401v142h203l-116 161q13 98 67 185t133 152t175 103t195 38q244 0 477 -125q81 -43 182.5 -116.5t224.5 -178.5l-97 -106q-202 194 -397.5 289t-384.5 95q-72 0 -144.5 -27.5t-133.5 -75t-103.5 -110.5t-42.5 -119l128 -165h222v-142h-206v-1401h-141v1401h-241z " />
<glyph unicode="&#x9c0;" horiz-adv-x="533" d="M-1064 1936q0 62 44.5 116.5t117 96t163.5 65t184 23.5q170 0 312.5 -46t256 -134.5t196 -217.5t132.5 -296h230v-142h-230v-1401h-142v1401h-274v142h274q-29 127 -101.5 229.5t-174 174t-224.5 110t-249 38.5q-61 0 -127 -12.5t-121 -36.5t-90 -55t-35 -67 q23 -7 94.5 -13.5t190.5 -11.5q136 -5 230 -22.5t151.5 -50.5t82.5 -81.5t25 -116.5q0 -58 -67 -174l-124 47q57 58 69 114q-8 39 -28.5 66.5t-64 44.5t-116.5 24.5t-187 7.5q-201 0 -299.5 39.5t-98.5 138.5z" />
<glyph unicode="&#x9c1;" horiz-adv-x="0" d="M-814 -163q0 46 22.5 86.5t59.5 70.5t85.5 47t101.5 17q27 0 76 -17t122 -52l3 27q0 37 -33 124l117 71q28 -85 43 -143.5t15 -89.5q0 -6 -3 -27t-10 -56q50 -39 87.5 -69.5t67 -57t54 -53t50.5 -57.5t56 -70.5t70 -93.5l-110 -85q-159 232 -346 361 q-79 -96 -158.5 -126.5t-164.5 -30.5q-44 0 -82 18t-65.5 48.5t-42.5 71t-15 86.5zM-672 -171q0 -38 30.5 -56.5t81.5 -18.5q24 0 47.5 8t44 23t36.5 35.5t24 44.5q-31 27 -68 39t-72 12q-20 0 -42.5 -4t-40.5 -14t-29.5 -27t-11.5 -42z" />
<glyph unicode="&#x9c2;" horiz-adv-x="0" d="M-641 -271q0 56 24 103.5t66.5 82.5t100.5 54.5t127 19.5l-22 61l127 50l63 -174l-82 -95q-67 16 -103 16q-71 0 -115 -33t-44 -83q0 -46 28 -68t90 -22q73 0 133.5 24t113.5 72l457 -389l-96 -105l-376 314q-39 -19 -99 -38.5t-155 -19.5q-50 0 -93 17t-75.5 47.5 t-51 72t-18.5 93.5z" />
<glyph unicode="&#x9c3;" horiz-adv-x="3" d="M-707 -234l401 295l43 137l91 -224l-277 -206l529 -371l-87 -127z" />
<glyph unicode="&#x9c4;" horiz-adv-x="3" d="M-922 -406l336 220l-157 85l421 255l43 137l101 -224l-264 -157l443 -252l-88 -124l-347 200l-188 -128l499 -300l-80 -134z" />
<glyph unicode="&#x9c7;" horiz-adv-x="703" d="M-130 1401v142h945v-136q-139 -41 -244 -120t-176.5 -185t-108 -234t-36.5 -269q0 -47 11.5 -99.5t31.5 -104t48.5 -97.5t62 -81t71 -56t76.5 -21q32 0 53.5 4t40.5 15t38 30.5t45 50.5q39 -33 110 -79q-42 -85 -106.5 -123.5t-153.5 -38.5q-120 0 -208.5 59 t-146.5 154.5t-86.5 214t-28.5 237.5q0 96 26.5 204t76.5 209.5t121.5 187t160.5 136.5h-623z" />
<glyph unicode="&#x9c8;" horiz-adv-x="672" d="M-176 1991q0 100 58 185l122 -66q-38 -82 -38 -116q0 -97 137 -97q17 0 38 1t41.5 2.5t39 3t26.5 1.5q129 -3 216.5 -23t140 -62.5t76 -111t26.5 -165.5h196v-142h-172q-115 -69 -206.5 -148.5t-155 -171t-98 -195t-34.5 -219.5q0 -81 20.5 -173.5t59.5 -171t94.5 -130.5 t126.5 -52q28 0 49 3.5t40.5 14.5t40 30.5t44.5 51.5q39 -33 111 -79q-42 -85 -106.5 -123.5t-154.5 -38.5q-71 0 -134 27t-115 74t-92.5 110.5t-68 135.5t-42.5 149t-15 152q0 108 24.5 215t72.5 205.5t117.5 183.5t161.5 150h-555v142h649q0 70 -10 112t-48 63.5 t-111.5 27.5t-200.5 6h-113q-41 0 -56 3q-59 8 -98 38.5t-62 68t-32.5 74t-9.5 55.5z" />
<glyph unicode="&#x9cb;" horiz-adv-x="2458" d="M-100 1401v142h946v-136q-139 -41 -245 -120t-177.5 -185t-108 -234t-36.5 -269q0 -47 11.5 -99.5t32 -104t49 -97.5t62 -81t70.5 -56t76 -21q33 0 55 4t41 15t38 30.5t43 50.5q19 -16 47.5 -36t63.5 -43q-42 -85 -106 -123t-153 -38q-120 0 -209.5 59.5t-147.5 154.5 t-86 213t-28 237q0 96 27 204t76 209.5t120.5 187t160.5 136.5h-622zM680 799q0 34 3.5 67.5t10.5 65.5l147 -25q-15 -57 -15 -111q0 -52 15 -105l-147 -24q-7 31 -10.5 64t-3.5 68zM763 483l121 87q30 -48 68 -87t85 -69l-83 -121q-116 74 -191 190zM763 1114 q71 114 191 189l83 -119q-47 -30 -85 -69t-68 -86zM1153 208l24 140q27 -4 55 -7.5t56 -3.5q30 0 57 3.5t51 7.5l26 -140q-32 -10 -67 -14t-70 -4q-63 0 -132 18zM1153 1390l8 2q34 7 65 11t59 4q35 0 70 -5t67 -12l-26 -143q-24 7 -51 10.5t-57 3.5q-28 0 -56 -3.5 t-55 -10.5zM1540 414q93 57 152 156l121 -87q-73 -116 -190 -190zM1540 1184l83 119q121 -75 190 -189l-121 -85q-59 98 -152 155zM1704 1401v142h270q20 -13 37 -26t35 -30.5t39 -41t47 -57.5v383h140v-228h205v-142h-205v-1401h-140v1197q-27 73 -79 127t-122 77h-227z M1736 691q7 26 10.5 52t3.5 53q0 29 -3.5 56.5t-10.5 54.5l145 25q16 -68 16 -133q0 -67 -16 -132z" />
<glyph unicode="&#x9cc;" horiz-adv-x="2392" d="M-113 1401v142h945v-136q-139 -41 -244.5 -120t-176.5 -185t-106.5 -234t-35.5 -269q0 -47 11.5 -99.5t31.5 -104t47.5 -97.5t61.5 -81t72 -56t77 -21q31 0 52.5 4t40.5 15t38.5 30.5t45.5 50.5q33 -33 110 -79q-42 -85 -108 -123t-155 -38q-120 0 -208.5 59.5 t-146.5 154.5t-86.5 213t-28.5 237q0 96 27 204t77 209.5t121.5 187t162.5 136.5h-625zM633 821q0 34 3 68t11 65l144 -25q-7 -24 -9 -52t-2 -59q0 -27 2 -52.5t9 -52.5l-144 -25q-8 32 -11 65.5t-3 67.5zM713 506l121 85q30 -47 68 -86t85 -68l-82 -118q-115 67 -192 187z M713 1137q38 56 85 103t107 84l82 -118q-47 -30 -85 -69t-68 -87zM1023 2055q0 47 17 99t55 113l113 -72q-25 -39 -34.5 -74t-9.5 -64q0 -47 29 -76.5t77 -46.5t110 -23t129 -6q103 0 195 6.5t146 6.5q60 0 115 -20.5t96.5 -55t68 -81.5t29.5 -96l6 -122h287v-142h-287 v-1396h-144v1396h-335v142h335l5 100q0 31 -16.5 56t-44.5 43t-62.5 28.5t-69.5 10.5q-69 0 -150 -8.5t-166 -8.5q-93 0 -182 11t-158 43t-111.5 88.5t-42.5 148.5zM1106 230l25 143q25 -7 53 -10.5t55 -3.5q29 0 56 3.5t54 10.5l25 -143q-33 -7 -67.5 -12t-67.5 -5 q-31 0 -65.5 5t-67.5 12zM1106 1413q33 9 67.5 13t65.5 4q68 0 135 -17l-25 -144q-27 7 -54 10t-56 3q-27 0 -55 -3t-53 -10zM1493 437q93 58 153 154l121 -85q-77 -120 -192 -187zM1493 1206l82 118q60 -37 107 -84t85 -103l-121 -87q-30 48 -68.5 87t-84.5 69zM1689 713 q12 54 12 105q0 62 -12 111l144 25q8 -33 11 -67.5t3 -65.5t-3 -65t-11 -68z" />
<glyph unicode="&#x9cd;" horiz-adv-x="3" d="M-588 -117l93 109l459 -340l-83 -111z" />
<glyph unicode="&#x9ce;" horiz-adv-x="1008" d="M30 1137q0 90 35 165.5t96.5 131t145 86.5t182.5 31q79 0 148.5 -23.5t121 -66t81 -102t29.5 -132.5q0 -51 -25 -99t-65.5 -85t-91 -59.5t-101.5 -22.5q-64 0 -116.5 24.5t-94.5 68.5t-71 104t-43 133l129 36q6 -49 22 -90t41.5 -70.5t59.5 -46.5t76 -17q28 0 53 11.5 t44.5 30.5t30.5 43t11 51q0 88 -70.5 129t-209.5 41q-61 0 -112 -20.5t-87.5 -57t-57 -88t-20.5 -112.5q0 -70 22 -123.5t59 -95t85.5 -74t104 -59.5t114 -51.5t114.5 -49.5q218 -103 329 -228.5t111 -272.5q0 -19 -7.5 -63.5t-34.5 -105.5l-134 34q30 53 34 135 q0 202 -424 409q-147 73 -237.5 124t-124.5 78q-152 127 -152 349z" />
<glyph unicode="&#x9d7;" horiz-adv-x="606" d="M-763 2055q0 91 72 212l116 -72q-26 -39 -36 -74t-10 -64q0 -47 29 -76.5t77 -46.5t110.5 -23t130.5 -6q101 0 192 6.5t148 6.5q60 0 114 -20.5t95.5 -55t68 -81.5t29.5 -96l6 -122h276v-142h-276v-1401h-141v1401h-335v142h335l5 100q0 31 -17 56t-44.5 43t-62.5 28.5 t-72 10.5q-67 0 -147.5 -9t-165.5 -9q-93 0 -182 11.5t-159.5 43.5t-113 88.5t-42.5 148.5z" />
<glyph unicode="&#x9dc;" horiz-adv-x="1545" d="M-58 1401v142h1609v-142h-776v-541q0 -31 11 -46t38 -15q22 0 54.5 17.5t70 45.5t76 62.5t71.5 68t58 64t35 49.5q94 -62 151 -171.5t57 -264.5q0 -102 -42.5 -193.5t-115.5 -161t-171.5 -110t-210.5 -40.5q-132 0 -232.5 51t-175 137.5t-125.5 199.5t-87 237.5 t-58.5 249t-38.5 228.5l141 17q32 -254 90 -438t135 -304t168 -178.5t191 -58.5q76 0 147 34t125 88.5t86.5 125.5t32.5 145q0 57 -18.5 109.5t-53.5 104.5q-27 -42 -71.5 -87.5t-98.5 -82.5t-110 -61.5t-105 -24.5q-29 0 -59 19t-53.5 47.5t-38.5 61.5t-15 61v555h-691z M698 -182q0 69 42.5 112t111.5 43q68 0 111.5 -43t43.5 -112t-43.5 -112.5t-111.5 -43.5q-69 0 -111.5 43.5t-42.5 112.5z" />
<glyph unicode="&#x9dd;" horiz-adv-x="1226" d="M-29 1401v142h1266v-142h-832v-1103q0 -44 4 -71t13.5 -42.5t25.5 -22.5t42 -12q55 5 110 35.5t103.5 77t89.5 106.5t71.5 127.5t47.5 138.5t17 139q0 105 -83 105q-18 0 -45 -11t-61 -48l-84 109q116 92 201 92q42 0 81 -24t68.5 -60.5t47 -81.5t17.5 -87 q0 -82 -23 -170.5t-63.5 -173t-96 -160t-119.5 -133t-134.5 -90.5t-141.5 -33q-54 0 -96.5 21t-72.5 59t-45.5 90t-15.5 112v1111h-292zM370 -261q0 69 42.5 112t111.5 43q68 0 111.5 -43t43.5 -112t-43.5 -112.5t-111.5 -43.5q-69 0 -111.5 43.5t-42.5 112.5z" />
<glyph unicode="&#x9df;" horiz-adv-x="1288" d="M-55 1401v142h1346v-142h-204v-1401h-142v211q-47 78 -124.5 151t-169.5 131.5t-192 99.5t-191 56l-125 156q72 73 172.5 159t231.5 183q-4 7 -29 28.5t-62 50t-81 59t-84 57t-70 43t-41 16.5h-235zM336 788q114 -35 192 -66.5t143.5 -74t128.5 -101.5t145 -145v1000 h-503q42 -28 82.5 -56.5t78 -59.5t71.5 -68t61 -83q-127 -101 -226.5 -187t-172.5 -159zM404 157q0 69 42.5 112t111.5 43q68 0 111.5 -43t43.5 -112t-43.5 -112.5t-111.5 -43.5q-69 0 -111.5 43.5t-42.5 112.5z" />
<glyph unicode="&#x9e0;" horiz-adv-x="1711" d="M89 1438q0 104 94 150l100 -79q-22 -15 -37.5 -31t-15.5 -35q8 -40 28 -47.5t43 -7.5q40 0 90.5 26t100 64t92 81t65.5 77q36 -9 78.5 -39t84.5 -69t78 -81.5t57 -74.5v399h142v-846q171 -93 276 -230v1076h142v-228h222v-142h-222v-1401h-142v293q0 78 -8 139t-33 115 t-92.5 121.5t-142.5 94.5v-763l-290 -212l508 -376l-80 -111l-660 483l380 268v269q-138 265 -598 481l-98 155q135 97 280.5 182t304.5 161q-16 19 -35 42.5t-39 46t-43 38.5t-49 22q-24 -38 -66 -74.5t-91 -65t-101.5 -46t-97.5 -17.5q-42 0 -82.5 15t-72 40.5t-51 60.5 t-19.5 76zM452 921q70 -43 121.5 -74.5t92 -55.5t72.5 -45.5t64 -47.5t66.5 -59t78.5 -80v633q-133 -55 -259.5 -121.5t-235.5 -149.5z" />
<glyph unicode="&#x9e1;" horiz-adv-x="1612" d="M130 1488q0 125 194 262l75 -104q-67 -42 -97 -79t-30 -71q0 -61 62.5 -113t193.5 -96q201 -69 322.5 -117t165.5 -75q130 -81 199 -191t69 -255q0 -83 -29 -153.5t-78 -125.5t-116.5 -97t-114.5 -57l69 -28q111 -36 182 -74.5t138 -89t106 -120t39 -168.5 q0 -67 -25.5 -120.5t-67.5 -95.5t-97 -71.5t-112 -49t-114 -28.5t-104 -9q-38 0 -81 10t-77 24l61 101q8 -3 19 -5.5t17 -2.5q39 0 68.5 22.5t49 52.5t29.5 63t10 54q0 24 -9.5 41.5t-25 28.5t-33 15.5t-33.5 4.5q-39 0 -63 -21.5t-24 -52.5q0 -16 11 -32.5t42 -31.5 l-116 -55q-39 16 -58.5 52t-19.5 78q0 47 18.5 85.5t48.5 65t65.5 40.5t69.5 14q51 0 100 -13t86 -40t60 -70.5t23 -106.5q0 -39 -19.5 -84t-61.5 -79q20 1 57 16t73.5 42.5t63.5 69t27 93.5q0 63 -38 109.5t-90 86.5t-93.5 63t-156.5 64l-233 88q-76 -5 -115 -5 q-127 0 -238 38l83 116l63 -13q72 17 120 58t77 90t41 95.5t12 74.5q0 37 -13.5 80t-40 80t-64 61.5t-87.5 24.5q-42 0 -78 -18.5t-63 -47.5t-42.5 -64.5t-15.5 -69.5q0 -39 19 -70t69 -54l-105 -91q-62 31 -93.5 90t-31.5 125q0 80 30.5 143.5t78.5 107t107.5 67.5 t116.5 24q83 0 149.5 -30t111.5 -81t69.5 -120t24.5 -149q0 -74 -14.5 -122t-33.5 -80.5t-38.5 -55.5t-31.5 -47q23 3 57.5 13.5t73.5 31t77.5 49t69.5 65.5t50.5 82t19.5 99q0 85 -29 148.5t-77.5 111t-112.5 81t-134 60.5t-142.5 48.5t-137.5 46.5q-379 136 -379 343z" />
<glyph unicode="&#x9e2;" horiz-adv-x="0" d="M-760 51q0 15 3.5 30t14 31t29 32.5t48.5 36.5l77 -83q-17 -16 -25.5 -26.5t-8.5 -24.5q0 -17 23 -26.5t61 -21.5l31.5 -10.5t33.5 -11.5h-1q82 -29 156.5 -60.5t131 -75t90 -104t33.5 -146.5q0 -57 -22 -102.5t-58 -81t-82.5 -61t-96 -42t-97.5 -24t-87 -7.5 q-35 0 -75.5 9t-73.5 20l62 106q8 -3 19.5 -6t16.5 -3q30 0 52.5 17t37.5 40t23 48t8 42q0 19 -7 32t-18 21t-24.5 12t-26.5 4q-28 0 -45 -16.5t-17 -36.5q0 -11 11.5 -24.5t44.5 -30.5l-121 -58q-37 17 -54.5 50.5t-17.5 71.5q0 42 16.5 75.5t42.5 57t57.5 36t61.5 12.5 q45 0 87.5 -11t75.5 -35.5t53 -63t20 -92.5q0 -29 -10.5 -60t-33.5 -59q21 8 45.5 23t46 36t35.5 48t14 60q0 48 -31 85.5t-77.5 66.5t-101 51t-102.5 39q-50 18 -95 39.5t-79 48t-54 57t-20 66.5z" />
<glyph unicode="&#x9e3;" horiz-adv-x="13" d="M-1012 87q0 16 4 31t13.5 30.5t27 32.5t44.5 37l91 -83q-18 -17 -25 -27t-8 -24q2 -20 26.5 -31t69.5 -26q9 -2 20.5 -6.5t21.5 -7.5q82 -29 156.5 -60.5t131.5 -75t90.5 -103.5t33.5 -146q0 -57 -22 -103t-58 -81.5t-83 -61t-96.5 -42t-98.5 -24t-89 -7.5q-32 0 -72 9.5 t-73 21.5l63 103q8 -2 17 -5t17 -3q29 0 51.5 17t38 40.5t23.5 48.5t8 41q0 19 -7.5 32t-18.5 21.5t-25 12t-26 3.5q-29 0 -44 -15.5t-15 -37.5q0 -11 11.5 -24t45.5 -31l-124 -58q-36 20 -53 52.5t-17 70.5q0 37 16 70t41.5 57.5t57 39t62.5 14.5q44 0 86 -11.5t75 -36 t53 -63t20 -92.5q0 -30 -11.5 -61t-34.5 -59q21 8 46 23t47 36t36.5 48.5t14.5 60.5q0 48 -31 85.5t-77.5 66.5t-102 51t-104.5 39q-48 18 -92.5 40t-78 48t-53.5 56.5t-20 66.5zM-559 353q0 17 4 32t14 30t28 32.5t46 38.5l84 -83q-17 -17 -25.5 -27.5t-8.5 -26.5 q0 -18 27 -30t68 -26v1q12 -4 23.5 -8.5t23.5 -8.5q82 -28 157 -59t132 -74t91 -103t34 -145q0 -58 -22 -103.5t-58 -81t-82.5 -61t-96 -41.5t-98.5 -23.5t-89 -7.5q-32 0 -71.5 9t-74.5 21l60 106q9 -5 20 -8t16 -3q30 0 53 17t38.5 40.5t23.5 48.5t8 41q0 17 -7.5 29.5 t-19 21t-25 12.5t-25.5 4q-28 0 -45.5 -16t-17.5 -38q0 -10 12 -23t45 -29l-122 -58q-37 17 -54.5 51t-17.5 69q0 42 17 76t43 57.5t57.5 36t60.5 12.5q45 0 87.5 -11.5t76 -36t53.5 -63t20 -92.5q0 -27 -11.5 -58.5t-35.5 -58.5q21 8 46.5 22t47 35t36 48t14.5 61 q0 48 -31 85.5t-77.5 66.5t-101.5 50.5t-102 38.5q-51 18 -96 39.5t-78.5 47.5t-53.5 57t-20 67z" />
<glyph unicode="&#x9e6;" horiz-adv-x="1385" d="M180 660q0 109 39.5 206t109 168.5t164 113t204.5 41.5q101 0 185.5 -34.5t146.5 -95.5t96.5 -146t34.5 -185q0 -121 -39.5 -221.5t-109 -173t-164.5 -113t-208 -40.5q-102 0 -186 37.5t-145 103t-94.5 152.5t-33.5 187zM321 664q0 -75 22.5 -138t64.5 -108t101 -71 t132 -26q88 0 158 32t119 87t74.5 129.5t25.5 160.5q0 72 -23 130.5t-65.5 100t-102.5 64.5t-133 23q-84 0 -152.5 -28.5t-117.5 -80t-76 -121.5t-27 -154z" />
<glyph unicode="&#x9e7;" horiz-adv-x="1211" d="M212 1419q0 19 15 49t42 70l116 -71q-31 -37 -31 -66q0 -32 37.5 -80.5t122.5 -109.5q114 -80 205 -155t155 -158t98.5 -180.5t34.5 -224.5q0 -95 -40 -182.5t-107.5 -156t-155.5 -109t-184 -40.5q-65 0 -120.5 18.5t-97 48t-65.5 67.5t-24 77q0 46 24.5 90t67 78 t98.5 54.5t119 20.5l31 -130q-28 -8 -62.5 -16t-64.5 -21t-50.5 -31.5t-20.5 -47.5q0 -20 13 -33t32.5 -20t43 -10t45.5 -3q82 0 151 28.5t119 79t78 120t28 153.5q0 69 -23 129.5t-61.5 115.5t-88 104.5t-103 95t-107.5 87.5t-100 82q-170 146 -170 277z" />
<glyph unicode="&#x9e8;" horiz-adv-x="1324" d="M135 783q77 -45 131.5 -76t96 -52t71.5 -33t58.5 -18t57.5 -8t67 -2q323 0 323 238q0 140 -133 236q-27 13 -66 36q-34 19 -84 47.5t-116 67.5q-162 92 -206 197l108 96q23 -54 41 -82.5t45 -48.5t70.5 -39.5t115.5 -53.5q366 -174 366 -486q0 -69 -33.5 -130.5 t-89 -107.5t-127 -73.5t-148.5 -28.5q271 -180 649 -525l-93 -100q-109 100 -199 177.5t-170 141.5t-156.5 118t-158.5 107.5t-175.5 109.5t-208.5 123z" />
<glyph unicode="&#x9e9;" horiz-adv-x="1467" d="M46 1166l142 34q21 -82 51 -184t69 -206t91 -202.5t119 -175t150 -123t187 -46.5q94 6 167 49.5t121.5 112t73.5 154t25 176.5q0 90 -29 184t-81 169.5t-123.5 123.5t-156.5 48q-53 0 -96 -14.5t-74 -38.5t-48 -56t-17 -65q0 -64 63 -119l-44 -135q-84 28 -122.5 89.5 t-38.5 134.5q0 61 25 123t69.5 111t106.5 80.5t137 31.5q81 0 154.5 -26t137 -71t115.5 -108t88.5 -138t56 -158.5t19.5 -171.5q0 -140 -39.5 -255.5t-114 -198t-183.5 -128t-248 -45.5q-128 0 -237.5 70t-202.5 204.5t-170.5 328.5t-142.5 441z" />
<glyph unicode="&#x9ea;" horiz-adv-x="1302" d="M157 1230q0 75 36.5 142.5t97 118.5t139 80.5t161.5 29.5q103 0 186 -25.5t141.5 -73.5t90.5 -117.5t32 -157.5q0 -55 -10 -99t-42.5 -88t-91.5 -94t-156 -117q177 -69 262.5 -170t85.5 -236q0 -80 -37 -146t-100.5 -113.5t-147.5 -74t-179 -26.5q-92 0 -168 26.5 t-132 76t-87 121t-31 161.5q0 52 12 93t45 83t90.5 90.5t149.5 117.5q-80 24 -143.5 63t-109.5 90.5t-70 113.5t-24 131zM298 1233q0 -63 30 -115.5t78 -91t108.5 -60t121.5 -21.5q46 23 75 41t46.5 33t27.5 26t20 19q43 38 68.5 81t25.5 90v7q-3 57 -26.5 98t-65.5 67.5 t-100.5 39t-131.5 12.5q-47 0 -96.5 -17.5t-89 -48t-65.5 -71.5t-26 -89zM348 431q0 -52 24 -93t65 -70.5t95.5 -46t116.5 -16.5t117 16.5t95.5 46t63.5 70.5t23 93q0 185 -318 313q-59 -24 -110.5 -60.5t-90 -79t-60 -87t-21.5 -86.5z" />
<glyph unicode="&#x9eb;" horiz-adv-x="1328" d="M135 633q0 122 21 219t63 176.5t102.5 144t139.5 122.5t176 111t212 111l61 -118l-103 -53q10 -58 18.5 -94.5t20 -59.5t26.5 -36.5t36.5 -27t52 -30.5t70.5 -45q30 15 61 30t69 31l53 -127q-134 -55 -221.5 -105t-139 -107t-72.5 -124.5t-21 -155.5q0 -94 54.5 -188.5 t161.5 -187.5l-89 -106q-19 11 -34 24t-30 29q-28 -8 -57 -11.5t-59 -3.5q-71 0 -141.5 23t-133.5 63t-117 95.5t-94 120t-63 136t-23 144.5zM277 672q0 -86 32.5 -172t90.5 -154t137 -110.5t170 -42.5q-46 59 -67.5 129.5t-21.5 147.5q0 74 19 149.5t55 143t85 124.5 t110 94q-72 42 -105.5 70.5t-49 59t-22.5 68t-24 98.5q-88 -38 -163 -101.5t-129.5 -144.5t-85.5 -172.5t-31 -186.5z" />
<glyph unicode="&#x9ec;" horiz-adv-x="1386" d="M52 1095l141 24q10 -94 36 -197.5t68.5 -204t99.5 -191.5t128.5 -160.5t155 -111t181.5 -41.5q78 0 137.5 40.5t100 105t60.5 144t20 157.5q0 80 -21.5 149.5t-67.5 108.5q-11 -57 -47.5 -107t-87.5 -87.5t-112 -60t-117 -22.5q-80 0 -125.5 32t-70 100t-36 173.5 t-22.5 250.5l-8 96q-3 19 -36 32t-90 13l12 142q93 0 153.5 -39.5t103.5 -104.5q12 -18 18 -67.5t9.5 -111t8 -127.5t15.5 -120.5t30.5 -90.5t53.5 -36q47 0 78.5 21.5t55.5 54t43 71t40.5 71t49.5 54t70 21.5q48 0 91.5 -34t76.5 -92.5t53.5 -136t20.5 -164.5 q0 -108 -32 -212t-92.5 -185t-149.5 -130.5t-203 -49.5q-117 0 -219 43.5t-186.5 119t-152 176.5t-116 215t-79 234t-40.5 235z" />
<glyph unicode="&#x9ed;" horiz-adv-x="1393" d="M155 1039q0 80 40.5 161t104.5 146t143.5 106t159.5 41q85 0 150.5 -26.5t113.5 -73t81 -109t52.5 -137t28 -155.5t8.5 -163v-452q0 -31 2.5 -58t8.5 -49t16.5 -34t28.5 -12q8 0 21 10t23 14l61 -124q-24 -16 -47 -24t-42.5 -12t-34.5 -5t-20 -1q-38 0 -65 25t-44.5 67.5 t-27.5 98t-14.5 116.5t-5.5 122t-1 117l7 105q-61 0 -131.5 -10t-143.5 -10q-83 0 -164 13.5t-146.5 49t-109.5 99t-53 164.5zM296 1039q0 -40 20 -73.5t54 -58.5t80.5 -38.5t99.5 -13.5q8 0 34 0.5t57 2t60 2.5t41 3l154 10q-3 23 -3 54q0 33 -3.5 71.5t-13 83.5t-32.5 95 q-22 50 -52 84t-61.5 54t-64 28t-61.5 8q-33 0 -68 -14t-69.5 -37.5t-65.5 -54.5t-55 -65.5t-37.5 -71t-13.5 -69.5z" />
<glyph unicode="&#x9ee;" horiz-adv-x="1464" d="M80 1438l121 60q48 -35 74 -89t26 -127v-356q131 78 254 78q157 0 219 -94q128 96 237 96q7 0 22 -2t33 -4t37 -3.5t35 -1.5q57 0 90 5.5t54 15.5t37 24t38 33l66 -121q-23 -35 -48 -55.5t-68 -30.5t-112 -13.5t-178 -3.5q-42 0 -86 -16t-75 -47q8 -31 13 -63t5 -63 q0 -104 -38.5 -207t-104 -185t-153.5 -132.5t-186 -50.5q-69 0 -128 55.5t-104 163.5v993q0 77 -80 141zM301 312q0 -14 9 -28.5t22.5 -27.5t31 -21t33.5 -8q81 0 143 40.5t104.5 101t65 132t22.5 135.5q0 63 -9.5 106.5t-32 70.5t-58.5 38.5t-90 11.5q-61 0 -120 -23 t-121 -75v-453z" />
<glyph unicode="&#x9ef;" horiz-adv-x="1332" d="M77 1374q0 126 100 214l105 -95q-63 -24 -63 -71q0 -57 60 -110.5t194 -103.5q209 -79 330.5 -128.5t159.5 -72.5q268 -159 268 -408q0 -110 -47 -198.5t-125 -153.5t-178.5 -106.5t-205.5 -58.5l22 142l63 19q7 30 9 65.5t2 78.5q0 63 -19.5 117.5t-56 95.5t-86.5 64.5 t-111 23.5q-36 0 -66.5 -18.5t-51.5 -49t-33 -67.5t-12 -75q0 -151 160 -151l-60 -129q-54 0 -98.5 24.5t-76.5 64.5t-49.5 91t-17.5 105q0 79 27 143t74.5 110t113.5 70t145 24t145 -43t113.5 -110t74.5 -148.5t27 -158.5q0 -16 -1.5 -29.5t-4.5 -31.5q33 12 66 46 t58.5 76.5t41.5 87t16 78.5q-8 87 -55.5 150.5t-120.5 111t-163.5 83t-183 67.5t-181 65t-156.5 74t-110 96t-42 130z" />
<glyph unicode="&#x9f0;" horiz-adv-x="1216" d="M-19 1401v142h1244v-142h-210v-1401h-142v246q-12 42 -48.5 95t-89 109t-116 109.5t-129.5 96t-129.5 68t-114.5 25.5q-11 0 -20.5 -1t-17.5 -4l-92 150q348 268 757 388v119h-892zM335 868q36 -4 86 -23.5t105 -50.5t110 -69.5t103 -80t84 -82t50 -73.5v208l-375 279 q-54 -31 -98.5 -58.5t-64.5 -49.5zM636 1045l237 -177v274q-39 -8 -102.5 -35t-134.5 -62z" />
<glyph unicode="&#x9f1;" horiz-adv-x="1216" d="M-19 1401v142h1244v-142h-210v-1401h-142v246q-12 42 -48.5 95t-89 109t-116 109.5t-129.5 96t-129.5 68t-114.5 25.5q-11 0 -20.5 -1t-17.5 -4l-92 150q348 268 757 388v119h-892zM144 464l83 127q73 -17 148 -53.5t141.5 -86.5t120.5 -111.5t88 -128.5l-95 -106 q-35 61 -89 119.5t-118 106.5t-135.5 83.5t-143.5 49.5zM335 868q36 -4 86 -23.5t105 -50.5t110 -69.5t103 -80t84 -82t50 -73.5v653q-29 -7 -75 -24.5t-98.5 -41t-108.5 -52t-106 -56.5t-90 -54t-60 -46z" />
<glyph unicode="&#x9f2;" horiz-adv-x="1187" d="M74 1543v142q241 0 436 -101.5t346.5 -287t262.5 -446t184 -579.5h-142q-65 261 -150 456.5t-181 337t-198.5 233.5t-202.5 146t-191 76t-164 23z" />
<glyph unicode="&#x9f3;" horiz-adv-x="1127" d="M46 832v141h238v207q0 38 -4 77t-18 71.5t-40.5 54.5t-72.5 26l66 106q69 -29 111 -58.5t64 -68t29 -92t7 -130.5v-193h178v-141h-178v-249q0 -46 4.5 -87.5t21 -75t48 -54t85.5 -23.5q62 0 121 31t104 81t72 110.5t27 120.5q0 56 -29 104t-95 78l121 95q75 -56 110 -127 t35 -148q0 -87 -37 -173.5t-100 -156.5t-144.5 -113.5t-170.5 -43.5q-100 0 -161.5 38t-95.5 100.5t-46 143t-12 166.5v183h-238z" />
<glyph unicode="&#x9f4;" horiz-adv-x="1335" d="M72 271v142q72 0 163.5 22.5t191 76.5t202.5 145.5t198.5 232.5t180.5 336.5t150 456.5h142q-73 -320 -183.5 -580.5t-262.5 -445t-347 -285.5t-435 -101z" />
<glyph unicode="&#x9f5;" horiz-adv-x="1481" d="M79 744q0 61 25 120t67.5 106.5t100.5 76.5t123 29q64 0 132 -27.5t124.5 -78.5t94 -121t37.5 -155v-23t-3 -27q65 49 129 111.5t122.5 133.5t112 148.5t94.5 158t70.5 161.5t41.5 158l141 -25q-20 -132 -76 -264.5t-139 -258.5t-187 -241.5t-219.5 -214t-238 -176 t-241.5 -127.5v142q82 54 132.5 89t77.5 67.5t36 70t9 98.5q0 49 -15.5 95.5t-44 83t-67.5 58.5t-86 22q-45 0 -83.5 -17.5t-67 -46t-44.5 -65t-16 -72.5q0 -34 15 -67t43 -60l-116 -44q-43 37 -63.5 84.5t-20.5 97.5z" />
<glyph unicode="&#x9f6;" horiz-adv-x="1549" d="M35 423q0 56 21.5 91t56.5 53.5t80 24.5t92 6q42 0 83 -2.5t75 -2.5q66 0 118.5 19.5t89.5 53t57 79.5t20 99q0 35 -14.5 65.5t-40 53.5t-60 36.5t-74.5 13.5q-46 0 -75 -12.5t-46 -32t-24 -45t-7 -52.5q0 -30 5 -56.5t12 -49.5l-122 -5q-16 31 -26 65.5t-10 68.5 q0 50 18.5 96.5t52 83t79 58.5t99.5 22q87 0 148.5 -16t102.5 -42.5t66 -61.5t38 -73.5t16 -77t3 -73.5q0 -73 -39 -140.5t-102.5 -118t-142.5 -81t-157 -30.5l-198 11q-28 0 -40.5 -14t-12.5 -31q0 -36 17.5 -70t47 -59t69.5 -40.5t85 -15.5q82 0 176.5 28t189.5 91.5 t187.5 166t172 253.5t142 354.5t97.5 466.5h142q-13 -208 -56.5 -400.5t-113 -359t-163 -303t-204.5 -234.5t-238 -151t-264 -53q-83 0 -160 23t-137 66t-96 107t-36 147z" />
<glyph unicode="&#x9f7;" horiz-adv-x="437" d="M63 1372q17 151 122 151q50 0 78.5 -57.5t28.5 -157.5v-929q0 -48 12.5 -69.5t59.5 -21.5h3q0 -158 -101 -158q-116 0 -116 232v904q0 106 -87 106z" />
<glyph unicode="&#x9f8;" horiz-adv-x="1010" d="M47 1377v142q58 23 103 23q57 0 88 -52t31 -163v-697q0 -63 32 -63q41 0 69 42t52.5 104t50 135t60.5 135t84 104t119 42q25 0 50 -13t44.5 -39.5t32 -65.5t12.5 -90v-551q0 -23 1.5 -40t8.5 -28.5t21.5 -17t38.5 -5.5v-141q-57 -41 -101 -41q-53 0 -82 71.5t-29 185.5 v569q0 64 -28 64q-21 0 -41 -42t-43.5 -104t-52 -135t-67 -135t-88.5 -104t-115 -42q-43 0 -74.5 19.5t-53.5 48t-32 61.5t-11 60v658q0 105 -80 105z" />
<glyph unicode="&#x9f9;" horiz-adv-x="905" d="M119 863v13q0 96 37.5 182.5t102 151t149.5 103t181 38.5q122 0 214 -34.5t154 -94.5t93 -141.5t31 -175.5q0 -98 -29 -187.5t-89 -160t-151.5 -112t-217.5 -41.5q-108 0 -196 31.5t-150 91.5t-95.5 145t-33.5 191zM261 873q0 -81 31.5 -142t81.5 -102.5t108.5 -62.5 t114.5 -21q64 0 126.5 30t110.5 77t77 106t29 118q0 64 -22.5 124t-63.5 106.5t-98.5 75t-127.5 28.5q-83 0 -150.5 -28t-116 -74.5t-74.5 -107t-26 -127.5z" />
<glyph unicode="&#x9fa;" horiz-adv-x="990" d="M8 1598h142q7 -13 11 -25t10 -25q25 -66 54.5 -133.5t73.5 -122t105.5 -89t148.5 -34.5q67 0 127.5 36.5t117.5 96t110 135.5t105 155t102.5 155.5t102.5 136t106 96t111 36.5l14 -142q-46 0 -88.5 -36.5t-84.5 -96t-86 -135.5t-92.5 -155t-104.5 -155.5t-123 -136 t-146.5 -96t-175.5 -36.5q-120 0 -210 54t-154.5 138t-107 185t-68.5 194zM428 1504q0 34 11.5 59.5t31 42.5t44 25t49.5 8q26 0 51 -9t45 -26.5t32.5 -43.5t12.5 -62q0 -24 -10.5 -48t-29 -42.5t-45.5 -30t-61 -11.5q-69 0 -100 40t-31 98z" />
<glyph unicode="&#x2000;" horiz-adv-x="1246" />
<glyph unicode="&#x2001;" horiz-adv-x="2493" />
<glyph unicode="&#x2002;" horiz-adv-x="1246" />
<glyph unicode="&#x2003;" horiz-adv-x="2493" />
<glyph unicode="&#x2004;" horiz-adv-x="831" />
<glyph unicode="&#x2005;" horiz-adv-x="623" />
<glyph unicode="&#x2006;" horiz-adv-x="415" />
<glyph unicode="&#x2007;" horiz-adv-x="415" />
<glyph unicode="&#x2008;" horiz-adv-x="311" />
<glyph unicode="&#x2009;" horiz-adv-x="498" />
<glyph unicode="&#x200a;" horiz-adv-x="138" />
<glyph unicode="&#x200c;" horiz-adv-x="0" d="M-69 -370v2507h142v-2507h-142z" />
<glyph unicode="&#x200d;" horiz-adv-x="0" d="M-531 2380l106 113l420 -290l433 290l97 -121l-395 -265l395 -249l-69 -116l-383 240v-2352h-142v2352l-366 -223l-85 119l382 237z" />
<glyph unicode="&#x2010;" horiz-adv-x="921" d="M119 552v142h683v-142h-683z" />
<glyph unicode="&#x2011;" horiz-adv-x="921" d="M119 552v142h683v-142h-683z" />
<glyph unicode="&#x2012;" horiz-adv-x="921" d="M119 552v142h683v-142h-683z" />
<glyph unicode="&#x2013;" horiz-adv-x="921" d="M119 549v142h680v-142h-680z" />
<glyph unicode="&#x2014;" horiz-adv-x="1346" d="M100 860v142h1127v-142h-1127z" />
<glyph unicode="&#x2018;" horiz-adv-x="548" d="M114 1422q0 55 17 111.5t51 106t83.5 89t114.5 59.5l78 -102q-49 -12 -89 -41t-67.5 -65.5t-43.5 -78.5t-16 -81q0 -30 9.5 -56.5t29.5 -45.5t51.5 -31t75.5 -12h19l-38 -120q-70 0 -123 22t-86 59t-49.5 85.5t-16.5 100.5z" />
<glyph unicode="&#x2019;" horiz-adv-x="548" d="M99 1271q49 12 89 40.5t67.5 65.5t43.5 79t16 80q0 31 -9.5 57t-29.5 45.5t-51.5 31t-75.5 11.5h-19l38 121q70 0 123 -22t86 -59t49.5 -85.5t16.5 -100.5q0 -55 -17 -112t-51 -106.5t-83.5 -88.5t-114.5 -60z" />
<glyph unicode="&#x201a;" horiz-adv-x="512" d="M63 -264q15 61 29.5 127t28 131.5t24.5 128t19 115.5h198l15 -23q-14 -54 -33.5 -115t-43 -123t-49 -123.5t-50.5 -117.5h-138z" />
<glyph unicode="&#x201c;" horiz-adv-x="995" d="M114 1422q0 55 17 111.5t51 106t83.5 89t114.5 59.5l78 -102q-49 -12 -89 -41t-67.5 -65.5t-43.5 -78.5t-16 -81q0 -30 9.5 -56.5t29.5 -45.5t51.5 -31t75.5 -12h19l-38 -120q-70 0 -123 22t-86 59t-49.5 85.5t-16.5 100.5zM536 1422q0 55 17.5 111.5t51 106t83 89 t114.5 59.5l78 -102q-48 -12 -88.5 -41t-68 -65.5t-43.5 -78.5t-16 -81q0 -30 9.5 -56.5t30 -45.5t52 -31t74.5 -12h20l-39 -120q-70 0 -123 22t-86 59t-49.5 85.5t-16.5 100.5z" />
<glyph unicode="&#x201d;" horiz-adv-x="995" d="M99 1271q49 12 89 40.5t67.5 65.5t43.5 79t16 80q0 31 -9.5 57t-29.5 45.5t-51.5 31t-75.5 11.5h-19l38 121q70 0 123 -22t86 -59t49.5 -85.5t16.5 -100.5q0 -55 -17 -112t-51 -106.5t-83.5 -88.5t-114.5 -60zM522 1271q49 12 89 40.5t67.5 65.5t43.5 79t16 80 q0 31 -9.5 57t-29.5 45.5t-51.5 31t-75.5 11.5h-19l38 121q70 0 123 -22t86 -59t49.5 -85.5t16.5 -100.5q0 -55 -17 -112t-51 -106.5t-83.5 -88.5t-114.5 -60z" />
<glyph unicode="&#x201e;" horiz-adv-x="897" d="M63 -264q15 61 29.5 127t28 131.5t24.5 128t19 115.5h198l15 -23q-14 -54 -33.5 -115t-43 -123t-49 -123.5t-50.5 -117.5h-138zM449 -264q14 61 28.5 127t28 131.5t24.5 128t19 115.5h199l14 -23q-14 -54 -33.5 -115t-43 -123t-49 -123.5t-50.5 -117.5h-137z" />
<glyph unicode="&#x2020;" horiz-adv-x="995" d="M123 989v180l311 -30l-55 417h217l-55 -417l331 30v-180l-331 31l55 -1020h-217l55 1020z" />
<glyph unicode="&#x2021;" horiz-adv-x="1016" d="M123 346v180l332 -30l-47 290l47 275l-332 -31v180l332 -30l-56 376h217l-55 -376l332 30v-180l-332 31l47 -275l-47 -290l332 30v-180l-332 31l55 -377h-217l56 377z" />
<glyph unicode="&#x2026;" horiz-adv-x="1647" d="M147 111q0 38 10 64.5t27 43t40 24t50 7.5q26 0 49.5 -7.5t40.5 -24t27 -43t10 -64.5q0 -37 -10 -63.5t-27 -43.5t-40.5 -25t-49.5 -8q-27 0 -50 8t-40 25t-27 43.5t-10 63.5zM696 111q0 38 10 64.5t27 43t40 24t50 7.5q26 0 49.5 -7.5t40.5 -24t27 -43t10 -64.5 q0 -37 -10 -63.5t-27 -43.5t-40.5 -25t-49.5 -8q-27 0 -50 8t-40 25t-27 43.5t-10 63.5zM1245 111q0 38 9.5 64.5t27 43t40.5 24t50 7.5q26 0 49.5 -7.5t40.5 -24t27 -43t10 -64.5q0 -37 -10 -63.5t-27 -43.5t-40.5 -25t-49.5 -8q-54 0 -90.5 33t-36.5 107z" />
<glyph unicode="&#x202f;" horiz-adv-x="498" />
<glyph unicode="&#x2030;" horiz-adv-x="2394" d="M102 1026q0 108 17.5 193t54 143.5t93 89.5t134.5 31q75 0 131.5 -31t95 -89.5t58 -143.5t19.5 -193t-18 -194t-55 -145t-94.5 -90.5t-136.5 -31.5q-73 0 -129 31.5t-94 90.5t-57 145t-19 194zM250 1026q0 -165 35.5 -247.5t115.5 -82.5q156 0 156 330q0 328 -156 328 q-80 0 -115.5 -81.5t-35.5 -246.5zM362 0l812 1462h157l-811 -1462h-158zM985 440q0 108 17.5 193t54 143.5t93 89.5t134.5 31q75 0 131.5 -31t94.5 -89.5t57.5 -143.5t19.5 -193t-17.5 -193.5t-54.5 -144.5t-94.5 -90.5t-136.5 -31.5q-74 0 -130 31.5t-93.5 90.5 t-56.5 144.5t-19 193.5zM1133 440q0 -165 35.5 -247t115.5 -82q156 0 156 329q0 328 -156 328q-80 0 -115.5 -81.5t-35.5 -246.5zM1690 440q0 108 17.5 193t54 143.5t93 89.5t134.5 31q74 0 131 -31t95 -89.5t57.5 -143.5t19.5 -193t-17.5 -193.5t-54.5 -144.5t-94.5 -90.5 t-136.5 -31.5q-74 0 -130 31.5t-93.5 90.5t-56.5 144.5t-19 193.5zM1837 440q0 -165 35.5 -247t116.5 -82q155 0 155 329q0 328 -155 328q-81 0 -116.5 -81.5t-35.5 -246.5z" />
<glyph unicode="&#x2039;" horiz-adv-x="590" d="M82 526v27l309 414l117 -78l-238 -348l238 -348l-117 -78z" />
<glyph unicode="&#x203a;" horiz-adv-x="590" d="M82 193l237 348l-237 348l117 78l309 -414v-27l-309 -411z" />
<glyph unicode="&#x205f;" horiz-adv-x="623" />
<glyph unicode="&#x20ac;" d="M63 502v137h148q-2 23 -2 38v44q0 22 1 45t1 31h-148v137h160q18 125 62 226t111.5 173t159.5 111t206 39q97 0 177 -21.5t159 -70.5l-80 -146q-51 31 -110.5 52.5t-131.5 21.5q-69 0 -128 -26t-106 -75.5t-80.5 -121t-51.5 -162.5h432v-137h-447q0 -15 -1 -29 q-1 -12 -1 -25v-22v-39.5t2 -42.5h385v-137h-366q34 -175 126.5 -267t241.5 -92q75 0 142.5 16t126.5 42v-162q-59 -28 -125.5 -43.5t-157.5 -15.5q-115 0 -206 36.5t-158.5 104t-111.5 164t-65 217.5h-164z" />
<glyph unicode="&#x2122;" horiz-adv-x="1534" d="M37 1354v108h522v-108h-199v-613h-127v613h-196zM625 741v721h186l180 -551l191 551h178v-721h-127v428q0 9 0.5 24t1 32.5l1 35t1.5 29.5h-6l-195 -549h-100l-186 549h-7q1 -16 2 -33t1.5 -32t1 -27t0.5 -18v-439h-123z" />
<glyph unicode="&#x25cc;" horiz-adv-x="1261" d="M19 780q0 70 17 135l144 -25q-7 -27 -9 -54t-2 -56q0 -27 2 -54t9 -54l-144 -25q-17 64 -17 133zM103 464l121 87q30 -49 67 -87.5t86 -65.5l-84 -121q-113 74 -190 187zM103 1095q74 115 190 190l84 -121q-49 -27 -86 -65.5t-67 -85.5zM495 188l22 144q27 -7 54 -9 t57 -2q29 0 56 2t54 9l22 -144q-31 -7 -65 -12t-67 -5q-34 0 -67 5t-66 12zM495 1374q33 7 66 10.5t67 3.5q33 0 67 -3.5t65 -10.5l-22 -144q-27 7 -54 9.5t-56 2.5q-30 0 -57 -2.5t-54 -9.5zM879 398q47 27 85.5 65.5t69.5 87.5l119 -87q-76 -112 -188 -187zM879 1164 l86 121q118 -77 188 -190l-119 -82q-31 47 -69.5 85.5t-85.5 65.5zM1079 672q6 27 8 54t2 54q0 29 -2 56t-8 54l140 25q16 -71 16 -135q0 -31 -4 -65.5t-12 -67.5z" />
<glyph unicode="&#x25fc;" horiz-adv-x="1100" d="M0 0v1100h1100v-1100h-1100z" />
<glyph horiz-adv-x="744" d="M115 672q0 93 20 190.5t65.5 189t109 174.5t140 150t164.5 112.5t182 62.5v-142q-280 -117 -409.5 -314t-125.5 -462q0 -67 8 -115t28 -98.5t55 -106.5t77.5 -90t81 -58.5t80.5 -24.5q32 0 55.5 5t43.5 16.5t38 31t40 47.5q39 -33 110 -79q-42 -85 -106.5 -123.5 t-153.5 -38.5q-81 0 -148 27.5t-119 76t-106 114t-79 140.5t-38 155.5t-13 159.5z" />
<glyph horiz-adv-x="691" d="M-166 1991q0 100 58 185l122 -66q-38 -82 -38 -116q0 -97 137 -97q17 0 38 1t41.5 2.5t39 3t26.5 1.5q139 -3 229.5 -28t143 -81.5t73.5 -149t21 -230.5q-108 -65 -196.5 -149t-152 -181.5t-98 -207t-34.5 -223.5q0 -87 22.5 -178t63 -166t96.5 -123t122 -48q28 0 49 3.5 t40.5 14.5t40 30.5t44.5 51.5q39 -33 111 -79q-42 -85 -106.5 -123.5t-154.5 -38.5q-72 0 -135.5 28t-115.5 77t-92.5 112t-69 135t-42.5 145.5t-14 142.5q0 122 33 246.5t95 238.5t149 213t195 172q0 75 -12 121.5t-43 72t-84 34.5t-132 9q-137 0 -202.5 2t-87.5 7 q-52 11 -86.5 42.5t-55 68t-29.5 71.5t-9 54z" />
<glyph horiz-adv-x="3" d="M-649 1667l784 670l89 -105l-786 -670z" />
<glyph horiz-adv-x="216" d="M-1045 641q64 57 112.5 99.5t91.5 75.5t84 58.5t90 49.5t109 47.5t149 51.5q124 7 235 -23.5t194 -86.5t131.5 -133t48.5 -171q0 -114 -67 -180t-188 -86l-80 111l16 -3q33 0 64.5 13.5t56.5 36.5t40.5 52.5t15.5 63.5q0 38 -21.5 76.5t-54.5 70t-68 54t-71.5 37.5 t-109.5 27v-933h-142v191q-45 95 -96 164.5t-115 114.5t-143 67.5t-182 22.5h-9zM-844 633q84 -12 141.5 -27t103 -40.5t89.5 -65.5t101 -104v486q-111 -27 -218 -87.5t-217 -161.5zM-205 1401v142h468v-142h-468z" />
<glyph horiz-adv-x="4" d="M-1096 288q0 79 27.5 154t77.5 132.5t120 92.5t154 35q57 0 111.5 -21.5t103 -61.5t89.5 -94.5t71 -120.5v644h142v-1048h-142v185q-8 27 -31.5 66t-55.5 80.5t-70.5 82.5t-75.5 73.5t-70.5 52.5t-58.5 20q-114 0 -182.5 -71t-68.5 -201q0 -104 44 -157.5t138 -53.5l27 3 l50 -133q-29 -4 -55.5 -7t-49.5 -3q-61 0 -115 29t-94.5 77.5t-63 112t-22.5 132.5z" />
<glyph horiz-adv-x="3" d="M-1308 968l142 22q36 -154 109.5 -289t166.5 -235t198 -157.5t206 -57.5q70 0 133.5 22.5t111 63.5t75.5 99t28 128q0 46 -16.5 93.5t-47 84.5t-71 60.5t-86.5 23.5q-35 0 -68 -10t-59 -28.5t-42 -45.5t-16 -59q0 -27 13 -54t33 -54l-114 -86q-74 94 -74 197 q0 59 26.5 110.5t73 90t110 60t136.5 21.5t135.5 -34t109 -91t73 -133t26.5 -159q0 -100 -34.5 -181.5t-100 -139t-160.5 -89.5t-215 -32q-96 0 -187 37.5t-173.5 100t-154 147.5t-129 180.5t-98 196.5t-60.5 197z" />
<glyph horiz-adv-x="3" d="M-1058 230v140q147 -16 237 -16q88 0 153 4.5t104 16.5q36 12 78 35t77 56.5t58.5 75t23.5 88.5q0 202 -267 202q-97 0 -166.5 -63t-112.5 -194l-137 34q87 364 469 364q70 0 134.5 -27t114 -73.5t78.5 -109t29 -133.5q0 -86 -41 -159.5t-108.5 -127t-154.5 -83.5 t-181 -30q169 -90 367 -232t425 -341l-95 -97q-328 301 -937 653z" />
<glyph horiz-adv-x="312" d="M-703 791q0 70 33.5 123t85 88.5t113 53t117.5 17.5q58 0 113.5 -23t98 -64.5t69 -101t26.5 -132.5q0 -50 -19.5 -100t-52 -91t-76.5 -70t-93 -37q54 -21 100 -49t88 -63.5t80.5 -77t77.5 -90.5v1227h-105v142h105v188h142v-188h170v-142h-170v-1548h-142v123 q-76 85 -143.5 153.5t-138 120.5t-150.5 86.5t-180 50.5l-93 122q135 17 223.5 39t140.5 52t73 71.5t21 96.5q0 81 -46.5 121t-123.5 40q-35 0 -71 -8t-65 -24.5t-48 -40.5t-19 -57q0 -34 15 -50t38 -16q4 0 11.5 1.5t14.5 3.5v-110h-34q-31 0 -64 11.5t-60 32.5t-44.5 51 t-17.5 68z" />
<glyph horiz-adv-x="418" d="M-784 437l500 326v250h142v-208q154 71 223 71q75 0 105.5 -50.5t35.5 -189.5v-636h-142v602q1 76 -12 131q-78 0 -210 -76v-768h-142v58q-43 69 -82 115.5t-89.5 84.5t-122 73t-181.5 81zM-601 390q16 -4 97 -48.5t220 -148.5v393zM-7 1401v142h470v-142h-470z" />
<glyph horiz-adv-x="3" d="M-1472 -116q0 53 24.5 103.5t65 90t94 64t111.5 24.5q128 0 228 -71.5t197 -202.5v263h142v-565h-142v33q-169 401 -432 401q-28 0 -54.5 -10.5t-46.5 -30t-32.5 -45.5t-12.5 -54q0 -24 4 -42t16.5 -32.5t36.5 -29t65 -31.5l-39 -116q-53 1 -95 21.5t-70 53.5t-44 78 t-16 98z" />
<glyph horiz-adv-x="0" d="M-1235 -47q105 109 226.5 195.5t259.5 152.5h143v-826h-141v140q-28 46 -72.5 84.5t-97 65t-111.5 41t-117 14.5zM-1031 -50q205 -76 284 -163v345q-145 -76 -284 -182z" />
<glyph horiz-adv-x="0" d="M-1285 846h142q37 -137 102 -248.5t145.5 -190.5t168.5 -121.5t176 -42.5q73 0 140.5 26.5t119.5 71.5t83 107t31 135q0 27 -6.5 61.5t-21.5 77.5l-133 -150q-39 -35 -82.5 -58t-93.5 -23q-42 0 -78 17t-63 45.5t-42.5 66t-15.5 79.5q0 84 46 120t139 36l27 -106 q-70 -8 -70 -55q0 -31 12 -46t47 -15q46 7 83 36t73.5 69.5t78 87.5t95.5 92q65 -85 106 -173.5t41 -180.5q0 -97 -40.5 -181.5t-113.5 -147t-174 -98.5t-223 -36q-76 0 -151.5 31t-147 85t-135.5 127t-116.5 155.5t-91 171.5t-57.5 175z" />
<glyph horiz-adv-x="0" d="M-1744 113q0 54 12.5 113.5t39.5 121.5l127 -33q-39 -122 -39 -172q0 -76 20.5 -128.5t66 -86t120 -48.5t177.5 -12q26 3 54.5 8t55 11t51.5 9t49 3q81 0 154 -33t140 -85v628h142v-960h-142v147q-28 33 -66.5 62t-81 51t-86.5 35t-81 13q-17 0 -49.5 -7.5t-77.5 -16 t-127 -10.5q-111 0 -196.5 29t-143.5 81t-88.5 123.5t-30.5 156.5z" />
<glyph horiz-adv-x="3" d="M-1126 230q0 53 26.5 106t69 95t94.5 67.5t104 25.5q69 0 135.5 -39t132.5 -112q23 43 58 66.5t81 23.5q54 0 119 -65v578h142v-926h-142v111q0 37 -3 44q-4 18 -11 39t-18.5 37.5t-27.5 28t-38 11.5q-20 0 -33 -8t-21 -21t-11.5 -28.5t-3.5 -31.5q0 -19 4.5 -38 t12.5 -33l-116 -42q-14 54 -38.5 102t-56.5 83.5t-70 56.5t-78 21q-36 0 -66 -12t-53 -33.5t-36.5 -51t-13.5 -61.5t7.5 -54.5t25.5 -37.5t50.5 -24t82.5 -16l44 -126q-36 -7 -50 -8q-9 -1 -17 -3q-62 0 -114 20t-90 55.5t-59.5 86t-21.5 113.5z" />
<glyph horiz-adv-x="1308" d="M-53 1401v142h1404v-142h-563v-69q84 0 155 -30t123 -80t81 -115t29 -134q0 -46 -17 -86.5t-46 -71.5t-67 -49t-79 -18q-107 0 -146 165l100 44q20 -67 52 -67q21 9 33 24.5t18 30t8 25t2 11.5q0 102 -65.5 156t-180.5 54v-589h-141v105q-44 58 -80 94.5t-85 57 t-117.5 28t-174.5 7.5l-110 145q66 56 124.5 95t122 71.5t140.5 62t180 64.5v69h-700zM248 1015q87 0 149 -6.5t108 -23t79.5 -42.5t62.5 -64v273v39q-15 0 -47.5 -10.5t-73 -26.5t-84.5 -36t-83 -39t-68.5 -36.5t-42.5 -27.5z" />
<glyph horiz-adv-x="923" d="M13 1343q0 35 11 66t34 56l119 -43q-15 -22 -18.5 -41t-3.5 -30q0 -4 3 -12.5t9 -16.5t17.5 -15t28.5 -7q21 0 42.5 7t45.5 31t52.5 69.5t63.5 122.5q34 -15 69 -42t63.5 -61.5t46.5 -74.5t18 -78q0 -46 -22 -88.5t-57 -76.5t-79 -58.5t-86 -32.5q80 -30 165.5 -91.5 t182.5 -155.5v943h142v-171h166v-142h-166v-958h-142v119q-13 32 -45 70.5t-75 78.5t-94.5 77t-102 66.5t-97 48.5t-80.5 23l-84 138q57 8 116.5 27.5t107.5 46.5t78.5 62t30.5 74q0 23 -4.5 48t-22.5 39q-3 -30 -24.5 -65t-56 -65.5t-78.5 -51.5t-91 -21q-35 0 -68.5 17 t-58 44t-40.5 59.5t-16 64.5z" />
<glyph horiz-adv-x="818" d="M27 1150q0 81 36 152t94.5 124.5t133.5 83.5t155 30q85 0 166.5 -27.5t151 -76t125 -116t87.5 -146.5v369h142v-728h-142v100q-205 492 -514 492q-54 0 -107 -22t-94 -59t-66.5 -87t-25.5 -108v-12q0 -8 2 -27q9 3 37 24.5t68 46.5t85 45t87 20t81 -16t68 -44.5 t46.5 -65.5t17.5 -79q0 -56 -31 -120.5t-82 -137.5q-13 -14 -58.5 -65.5t-122.5 -140.5l-104 90q87 99 137.5 157t77 94.5t34.5 61t8 56.5q0 27 -25 48t-52 21q-11 0 -31.5 -10.5t-44.5 -25t-51 -33t-50.5 -33t-42 -25t-25.5 -10.5q-76 0 -123.5 53.5t-47.5 146.5z" />
<glyph horiz-adv-x="846" d="M-50 1401v142h929v-142h-77v-958h-142v127q-27 64 -73.5 119.5t-107.5 97.5t-131.5 71t-145.5 41l-31 80l150 160q-9 -2 -19 -2h-17q-39 0 -77 14.5t-68.5 40.5t-49 59t-18.5 68q0 20 8.5 41.5t27.5 40.5h-158zM213 1332q0 -20 13.5 -38t34.5 -31t48 -20.5t55 -7.5 q38 0 72 15.5t53 49.5l67 -111q-31 -29 -56 -53t-49 -47.5t-50 -49.5t-58 -60q44 -16 76 -27t57 -21t45 -21.5t40.5 -27t44 -38.5t54.5 -56v613h-409q-20 -16 -29 -33.5t-9 -35.5z" />
<glyph horiz-adv-x="747" d="M-26 1401v142h888q66 0 114.5 -9.5t80.5 -32.5t47.5 -62t15.5 -98q0 -49 -22.5 -92t-61 -75.5t-90.5 -51.5t-110 -19q-65 0 -127.5 29t-126.5 68q-49 -136 -49 -221q0 -158 97 -158q37 0 63 6.5t50 29t50.5 66.5t65.5 116q127 -62 194.5 -159t67.5 -236 q0 -167 -100.5 -251t-296.5 -84q-101 0 -191 46t-165.5 122t-136 175t-103 205t-65 211t-22.5 196l142 27q0 -85 21 -180.5t58 -188.5t89 -178t114.5 -150.5t133.5 -104t147 -38.5q235 0 235 201q0 123 -75 197q-52 -81 -115.5 -125.5t-136.5 -44.5q-59 0 -106.5 21 t-82 58.5t-52.5 88.5t-18 110q0 105 37 217.5t111 226.5h-569zM654 1314q35 -32 77.5 -50.5t88.5 -18.5q24 0 52.5 7.5t51.5 21t38.5 30t15.5 37.5q0 83 -111 83q-54 -2 -107 -28t-106 -82z" />
<glyph horiz-adv-x="852" d="M-50 1401v142h949v-142h-611v-79q36 -46 61.5 -75t54 -47.5t65.5 -28t95 -17.5q106 -15 143 -38q31 -18 55 -51.5t24 -83.5q0 -79 -51.5 -165.5t-140.5 -182.5q-178 -186 -320 -186q-31 0 -51.5 7.5t-35 18t-24 23t-17.5 21.5v884h-196zM288 589q45 0 102.5 40.5 t137.5 125.5q39 41 62 72.5t35 57t15.5 47.5t3.5 47q0 47 -72 63q-40 12 -80 16t-76.5 11t-68.5 22t-59 48v-550z" />
<glyph horiz-adv-x="741" d="M-69 1401v142h845v-142h-430v-87q44 -76 114.5 -145t154.5 -120t176.5 -81.5t181.5 -30.5q11 -23 17 -48.5t6 -56.5q0 -77 -25 -157t-68.5 -155.5t-103 -141.5t-128 -116t-142.5 -79t-147 -29q-89 50 -133.5 104t-44.5 135v1008h-273zM346 396q0 -50 13.5 -75t44.5 -25 q47 0 99 23t102 62t95 91t79.5 108.5t55 116t20.5 113.5q-312 50 -509 306v-720z" />
<glyph horiz-adv-x="1114" d="M-34 1401v142h1203v-142h-887q24 -42 51 -65.5t63 -38.5q21 -2 53.5 -7.5t67.5 -10.5t70 -9t62 -4h18q9 0 16 3q43 0 81.5 -21t67 -56t45.5 -82.5t17 -99.5q0 -50 -18.5 -99.5t-53.5 -92.5t-85 -77.5t-115 -54.5q60 -30 100.5 -49.5t70 -35t54 -30.5t52 -36.5t62.5 -52 t87 -76.5l-67 -141q-62 72 -147 135.5t-181.5 110.5t-197 73t-194.5 26h-15v142h141q95 5 164 35t113.5 69t66 82t21.5 77q0 16 -2.5 33.5t-11 33.5t-24 28t-42.5 16l-42 8q-5 -57 -32 -106t-68 -85.5t-92 -57.5t-103 -21q-29 0 -62.5 12t-64 31t-50.5 42.5t-20 48.5v403 h-172zM279 1050q13 -20 27 -32t31 -12q29 0 55 8t47 23t34 36.5t13 48.5q0 32 -32 36h-56q-43 0 -65.5 17.5t-53.5 57.5v-183z" />
<glyph horiz-adv-x="905" d="M-72 1401v142h1090v-142h-282q23 -93 124 -144t282 -51q-17 -48 -28 -73t-18.5 -38.5t-11.5 -18.5t-8 -12q-173 0 -295 62.5t-198 200.5q-47 -53 -75.5 -87t-42.5 -62t-18 -53t-4 -57q0 -87 98 -87q69 0 222 87q43 -19 75.5 -53t53.5 -77t31 -93.5t10 -103.5 q0 -65 -25.5 -123.5t-72.5 -103t-113 -71t-147 -26.5q-108 0 -188.5 36.5t-139 100t-98.5 149t-65.5 185.5t-41 207.5t-26.5 215.5l142 21q1 -89 12 -180.5t32.5 -178t54.5 -161.5t79.5 -131.5t107.5 -89t136 -32.5q53 0 93 17t66 46.5t39 67.5t13 81q0 17 -3.5 41t-10 47 t-16 42.5t-23.5 30.5q-50 -48 -101.5 -70t-103.5 -22q-51 0 -93.5 16.5t-74.5 50t-49.5 83t-17.5 116.5q0 27 14.5 70.5t36 88t48.5 83t51 53.5h-520z" />
<glyph horiz-adv-x="1161" d="M-50 1401v142h786v-603q31 -17 72 -58t97 -106v941h141v-174h172v-142h-172v-848h-141v49q-17 28 -31 48t-32.5 37.5t-43 35.5t-62.5 42v-322h-142v174q-16 36 -46.5 74t-70.5 74.5t-85.5 67.5t-94.5 55.5t-97.5 38t-91.5 13.5l-53 141q114 96 249 165.5t290 111.5v43 h-644zM248 1050q50 -9 102 -28.5t99.5 -48.5t85 -67t59.5 -83v391q-24 -3 -75.5 -22t-106 -44.5t-101 -52.5t-63.5 -45z" />
<glyph horiz-adv-x="1523" d="M51 1021q0 66 13 132t36 116l132 -19q-25 -81 -32 -143.5t-7 -108.5q0 -49 17 -79.5t42.5 -46.5t57.5 -22t60 -6q13 0 51.5 0.5t83 2t88 2t67.5 0.5q30 0 57 -10.5t52 -27.5t48.5 -36.5t45.5 -36.5v628q0 10 -5.5 22t-13.5 23t-17.5 17.5t-19.5 6.5q-35 0 -63 -8 q-29 -8 -66 -36.5t-71.5 -65t-58 -75t-23.5 -66.5q0 -22 9.5 -38.5t32.5 -16.5q20 0 37 8.5t29 23.5l66 -97q-35 -31 -79 -54t-98 -23q-44 0 -71 18t-42.5 46t-20.5 61t-5 62q0 36 20 79t52 87.5t74 87t86.5 75.5t87 53.5t77.5 20.5q52 0 93.5 -13t70.5 -48.5t44.5 -99 t15.5 -163.5q60 58 100.5 95t73 58.5t61.5 29t65 7.5q43 0 81 -17t65.5 -45t44 -67.5t16.5 -83.5q0 -100 -85 -177q93 -101 93 -196q0 -105 -52 -153.5t-152 -48.5q-39 0 -84.5 15.5t-88 40.5t-79 56.5t-59.5 64.5v-381h-141q0 156 -75 209q-37 27 -158.5 34.5t-331.5 7.5 q-71 4 -118.5 29.5t-75.5 68t-40.5 99.5t-12.5 122zM1004 1010q26 -31 61 -68t73.5 -69.5t79 -54.5t77.5 -22q27 0 43.5 6.5t25.5 16t11.5 20.5t2.5 21q0 38 -9.5 61.5t-27 37t-42.5 18t-56 4.5q-21 0 -40.5 -0.5t-37.5 -4.5v155q19 -4 36.5 -4.5t39.5 -0.5q32 0 56.5 3.5 t40.5 15t24 31.5t8 54t-18 52.5t-51 18.5q-55 0 -127 -59t-170 -178v-54z" />
<glyph horiz-adv-x="834" d="M-76 1894q0 61 68 140l124 -58q-50 -59 -50 -108q0 -17 15 -27t37 -15.5t48.5 -7t49.5 -1.5h45l301 26q52 0 99.5 -25t84 -65.5t57 -92.5t20.5 -106v-11h95v-142h-625v-654q0 -54 17.5 -81t45.5 -27q58 0 114 38t101 98.5t72 132.5t27 140q0 71 -58 71q-15 0 -34 -6.5 t-45 -23.5l-58 114q35 31 70 44.5t69 13.5q33 0 68 -13.5t64 -41t47 -69t18 -98.5q0 -55 -19.5 -116.5t-52.5 -122t-77.5 -115.5t-95 -96.5t-104.5 -66.5t-106 -25q-39 0 -75.5 21.5t-65.5 56t-46.5 78.5t-17.5 88v660h-196v142h728q8 28 8 55q0 52 -45 76t-134 27l-304 -26 q-80 0 -134.5 16.5t-87.5 44.5t-47.5 68.5t-14.5 89.5z" />
<glyph horiz-adv-x="799" d="M-24 1401v142h325q-77 93 -110.5 173t-33.5 150q0 120 109 258l116 -56q-31 -39 -48 -66t-25 -46t-9.5 -33t-1.5 -29q0 -23 9 -56t30.5 -76t59.5 -98t96 -121h348v-142h-274q28 -47 48.5 -80t34.5 -58.5t24 -46.5l20 -42q31 -68 49 -144t18 -157q0 -75 -25 -157.5 t-74 -151.5t-120.5 -113.5t-164.5 -44.5q-68 0 -131.5 29t-112 78.5t-77.5 113.5t-29 133q0 38 17 65t42.5 47t57 37t60.5 37q57 40 90 87t49 97t20 98t4 88q0 38 -17.5 58.5t-28.5 26.5h-345zM169 771q0 -110 51 -166.5t153 -56.5q51 0 96 32t78 83t53 116.5t20 133.5 q0 85 -29 167t-87 167q0 -79 -26 -155.5t-71 -141t-106.5 -112t-131.5 -67.5z" />
<glyph horiz-adv-x="1111" d="M-82 1401v142h1235v-142h-564v-345q0 -46 39 -46q25 0 63 28t75 66.5t67.5 78t42.5 62.5q37 -25 71 -64t61 -87.5t43.5 -105t16.5 -117.5q0 -77 -37 -152.5t-99.5 -136t-142.5 -96.5t-167 -36q-102 0 -182 39t-141 105.5t-105 154.5t-76 184t-51.5 193.5t-31.5 187.5h142 q24 -196 69.5 -334t104 -224t129.5 -125.5t148 -39.5q58 0 112 26t95 68.5t66 97.5t25 113q0 42 -13 74.5t-42 74.5q-21 -32 -49 -63.5t-61 -57t-70.5 -41t-73.5 -15.5q-39 0 -71 14t-54 34.5t-33.5 45t-11.5 44.5v395h-529z" />
<glyph horiz-adv-x="807" d="M-85 1401v142h934v-142h-603v-746q0 -33 4 -51.5t12 -29.5t21 -16.5t32 -9.5q59 7 115 51t100 107t71 139.5t27 149.5q0 35 -14.5 55.5t-43.5 20.5q-27 0 -77 -34l-62 110q85 65 144 65q31 0 65.5 -10t63 -35t47 -68t18.5 -109q0 -60 -19.5 -126t-52.5 -131t-78 -124.5 t-95.5 -104t-104 -71.5t-104.5 -27q-38 0 -76 21t-67.5 55.5t-48.5 78.5t-19 88v752h-189z" />
<glyph horiz-adv-x="572" d="M32 1161q0 80 28.5 155.5t79 134t121 93.5t153.5 35q57 0 111.5 -22t103.5 -61t90 -94.5t72 -121.5v-224q-7 27 -30 66t-55 81.5t-70.5 84.5t-76.5 75t-72.5 54t-58.5 21q-116 0 -185 -71.5t-69 -202.5q0 -212 185 -212l28 2l48 -131q-27 -6 -53.5 -9.5t-49.5 -3.5 q-61 0 -115.5 29t-95.5 77.5t-65 112t-24 132.5z" />
<glyph horiz-adv-x="942" d="M30 1311q0 57 26 100t68.5 72.5t94.5 44.5t105 15t104 -16t91 -49.5t65 -83t25 -117.5q0 -47 -19 -94.5t-50 -86t-72 -66t-86 -35.5q50 -19 93 -38t82.5 -42.5t76.5 -55t73 -76.5v934h142v-174h161v-142h-161v-958h-142v143q-71 78 -129 131.5t-117.5 88t-128.5 55.5 t-161 35l-89 152q125 17 200.5 44t116.5 59t54.5 67.5t13.5 72.5q0 45 -39 77.5t-109 32.5q-65 0 -106.5 -19t-41.5 -50q0 -20 14.5 -27.5t35.5 -7.5q4 0 9.5 1.5t12.5 4.5v-147h-72q-24 0 -49 11.5t-45 31.5t-33.5 48.5t-13.5 63.5z" />
<glyph horiz-adv-x="842" d="M-66 1401v142h973v-142h-534v-383q219 166 596 237l79 -103q-16 -67 -26 -130.5t-12.5 -126t3 -126t20.5 -130.5h-141q-9 55 -15 114.5t-6 120.5t8.5 120.5t27.5 113.5q-132 -18 -275.5 -93.5t-287.5 -191.5l-113 53v525h-297z" />
<glyph horiz-adv-x="854" d="M89 1026l182 138q-47 12 -75.5 40.5t-44.5 62t-21.5 66t-5.5 52.5q0 35 13.5 66t40.5 55t66 37.5t91 13.5q39 0 75 -27t63 -84l-77 -88q-11 24 -28 41t-44 17q-15 0 -25.5 -7.5t-18 -18t-11 -23.5t-3.5 -24q0 -31 35.5 -46t107.5 -33l238 132v147h302v-142h-161v-958 h-141v169q-65 64 -121 114t-113.5 90t-122.5 71t-147 55zM282 1018q51 -26 86.5 -42.5t61.5 -29.5t48 -25t44.5 -29t52.5 -40.5t72 -60.5v451q-7 -3 -12.5 -5.5t-10.5 -5.5q-53 -27 -98 -50.5t-85.5 -48t-79 -52t-79.5 -62.5z" />
<glyph horiz-adv-x="522" d="M-124 1401v142h968v-1054h-142v202q-77 155 -154 241t-161 86q-60 0 -92 -39t-32 -89q0 -35 61 -99l-92 -78q-110 78 -110 191q0 54 20 101.5t56.5 81t85.5 53.5t106 20q146 0 312 -212v453h-826z" />
<glyph horiz-adv-x="921" d="M208 1277q12 62 51 116t94 94t119 63t127 23q256 0 477 -262v232h548v-142h-406v-453h-139v160q-31 42 -106 122l-434 -396l-80 89q38 26 55 60.5t17 72.5q0 29 -9.5 56t-27 49t-42 34.5t-54.5 12.5q-21 0 -45 -6.5t-49 -24.5zM385 1324q50 0 95.5 -14.5t80 -43t57 -69.5 t26.5 -94q59 51 118.5 105t124.5 111q-154 130 -248 130q-179 0 -254 -125z" />
<glyph horiz-adv-x="1156" d="M-50 1401v142h1274v-142h-905q125 -83 198 -193v-74q-47 -46 -101 -92t-115 -94q57 -19 103 -38t85.5 -44.5t75.5 -60t74 -83.5v616q8 1 22 2t29 1h28h20q80 0 153 -18.5t129 -60.5t89 -108t33 -162q0 -29 -11 -63t-30.5 -62.5t-48.5 -47t-65 -18.5q-15 0 -52 5t-67 17 l39 137q16 -18 38 -18q55 0 55 71q0 99 -52.5 139t-167.5 40v-791h-141v135q-25 57 -77 111.5t-118 100.5t-139.5 79t-141.5 46l-58 72q73 57 140.5 112t131.5 109q-34 50 -102 109.5t-170 125.5h-155z" />
<glyph horiz-adv-x="747" d="M-50 1401v142h910v-142h-130v-1000h-141v174q-9 30 -35 68.5t-63 78t-83 77.5t-93.5 68.5t-92.5 48.5t-82 18h-16q-7 0 -11 -2l-66 107q126 96 260 166.5t282 113.5v82h-639zM246 1021q37 -3 90 -25.5t103.5 -55.5t91.5 -71.5t58 -74.5v380q-33 -6 -82 -23t-100 -38.5 t-95.5 -46t-65.5 -45.5z" />
<glyph horiz-adv-x="1095" d="M-47 1401v142h1186v-142h-1186zM-4 1285l142 -27q36 -142 90.5 -256t123.5 -195t149.5 -124.5t168.5 -43.5q52 0 97.5 20t78 57t51 90t18.5 117q0 27 -16 59t-50 63q-57 -93 -123 -135t-146 -42q-56 0 -104 21.5t-82 59.5t-52.5 87t-18.5 106q0 32 10 61.5t29 52t44.5 36 t57.5 13.5q22 0 57 -14.5t88 -43.5l-29 -136q-33 27 -43.5 40t-22.5 13q-29 0 -39.5 -15t-10.5 -23q0 -30 3.5 -51.5t14.5 -35.5t32.5 -21.5t57.5 -7.5q37 0 66 10t55.5 36.5t54 73t62.5 120.5q57 -39 103 -75.5t78 -78.5t49 -91t17 -111q0 -99 -33 -173t-87 -124t-122 -75 t-137 -25q-131 0 -233 46.5t-183 143.5t-145 245.5t-121 352.5z" />
<glyph horiz-adv-x="1261" d="M-63 1401v142h1360v-142h-268q39 -70 57 -143.5t18 -146.5q0 -59 -21 -112.5t-58 -95.5t-87.5 -66t-111.5 -24q-58 0 -126 22t-147 83q-160 121 -213 121q-89 0 -89 -49q0 -67 68 -67h12q5 0 12 3l-14 -142q-19 -1 -29 -4q-6 -1 -10 -1q-36 0 -69 18t-57.5 46.5t-39.5 65 t-15 72.5q0 38 16.5 70t44 56t62.5 39.5t72 19.5v21q0 20 -9 49.5t-22.5 60.5t-28 59t-28.5 45h-279zM364 1401q27 -31 49.5 -93t40.5 -147q-2 0 16.5 -15t48 -38t68 -50t77.5 -49.5t75 -38.5t63 -16q161 0 161 183q0 73 -25 140.5t-73 123.5h-501z" />
<glyph horiz-adv-x="838" d="M-61 1401v142h979v-142h-124v-1000h-142v150q-32 55 -87 107t-121 94t-137 71t-136 40l-91 113q52 50 123 111.5t167 131.5q-3 5 -21 20.5t-45 36t-58 43t-59.5 40.5t-50 30t-28.5 12h-169zM261 963q54 -17 93 -29t69.5 -24t56 -26.5t50.5 -35t54 -50t68 -70.5v673h-304 q30 -20 57 -40t51.5 -42.5t46.5 -49.5t41 -61q-92 -71 -160.5 -132.5t-122.5 -112.5z" />
<glyph horiz-adv-x="3" d="M-649 1667l784 670l89 -105l-786 -670z" />
<glyph horiz-adv-x="780" d="M-119 1401v142h1422v-142h-219v-643h-142v184q-36 77 -73 124.5t-83 47.5q-38 0 -54.5 -23t-16.5 -46q0 -27 17 -56t42 -52l-104 -80q-57 87 -97.5 141t-77 83.5t-73 39.5t-82.5 10q-34 0 -64 -21t-54 -53t-37.5 -72.5t-13.5 -79.5q0 -46 22.5 -85.5t77.5 -56.5l-100 -93 q-68 41 -104.5 108.5t-36.5 163.5q0 69 28 129t75.5 105.5t109 71t127.5 25.5q59 0 118.5 -33t123.5 -98q32 51 78 82t98 31q42 0 80.5 -24t73.5 -78v248h-1061z" />
<glyph horiz-adv-x="927" d="M-42 1401v142h105q79 0 152 -14t133 -48.5t101 -91.5t55 -142q35 131 105.5 196.5t181.5 65.5q58 -6 100 -28.5t76.5 -56.5t65.5 -77.5t70 -93.5v530h142v-240h262v-142h-262v-768h-142v335q0 24 -13.5 63.5t-38 84t-55.5 89.5t-67.5 81.5t-74 59.5t-74.5 23 q-69 0 -112 -68t-43 -212q0 -32 14 -61t38 -50t54 -33.5t63 -12.5q46 0 88 31l66 -119q-43 -31 -84 -42t-76 -11q-83 0 -148 38t-112 123q-20 -42 -49 -76t-63 -58t-70.5 -37t-71.5 -13q-47 0 -91.5 19t-88.5 65l72 113q19 -19 43.5 -35.5t53.5 -16.5h14q28 5 52.5 24t42 45 t27.5 56.5t10 59.5q0 71 -28.5 127t-76.5 95t-111 60t-132 21h-103z" />
<glyph horiz-adv-x="1134" d="M-258 1401v142h1442v-142h-316q27 -38 40.5 -87t13.5 -106q0 -78 -40.5 -151t-105.5 -129.5t-145 -91t-158 -34.5q-60 0 -111.5 23.5t-89.5 63.5t-60 93t-22 113q0 97 36.5 176.5t108.5 129.5h-593zM332 1100q0 -29 11 -57.5t29 -50t43.5 -35t54.5 -13.5q102 -10 191 58 l-276 245q-27 -39 -40 -75.5t-13 -71.5zM459 1308l263 -247q29 35 43.5 71.5t14.5 75.5q0 27 -8 53.5t-25 48t-42 36.5t-58 17q-27 0 -70.5 -6.5t-117.5 -48.5z" />
<glyph horiz-adv-x="1335" d="M-113 1401v142h1567v-142h-240q23 -27 41 -67.5t18 -100.5q0 -59 -21 -108t-55.5 -94.5t-98 -73.5t-154.5 -21q-66 10 -107 39t-82 68.5t-76.5 98.5t-61.5 130q-47 -184 -113.5 -272.5t-147.5 -88.5q-29 0 -65.5 19.5t-71 48.5t-61.5 63.5t-39 63.5l69 108 q16 -27 37 -55.5t42 -52t41.5 -38.5t37.5 -15q27 0 52.5 28.5t45.5 72t32.5 95t12.5 97.5q0 15 -1.5 27.5t-4.5 27.5h-596zM709 1401q10 -54 32 -106.5t49.5 -95.5t82 -84t136.5 -38q130 20 122 181q0 23 -13 64.5t-50 78.5h-359z" />
<glyph horiz-adv-x="871" d="M-50 1401v142h949v-142h-949zM80 915q37 -12 65 -20t51.5 -12.5t45 -7t46.5 -2.5q20 0 43 1t54 4q54 4 102.5 20t85 43t58 62t21.5 76q0 33 -22.5 60t-55.5 46t-71.5 29t-71.5 10q-62 0 -104 -26t-42 -69q0 -22 15 -41.5t40 -42.5l-102 -82q-48 31 -71.5 72.5 t-23.5 101.5q0 48 29 90t73 73t95 48.5t95 17.5q52 0 115 -18t117 -54.5t90.5 -90.5t36.5 -124q0 -65 -18.5 -114.5t-55 -87t-91.5 -65.5t-128 -52q81 -55 147 -104.5t121.5 -96.5t102.5 -96t91 -104l-76 -108q-335 371 -763 512z" />
<glyph horiz-adv-x="1037" d="M-50 1401v142h1103v-142h-517v-340q0 -39 11.5 -62.5t43.5 -30.5q12 1 30.5 17.5t40 41.5t44 54.5t42 58t33 51.5t18.5 33q33 -20 72 -53t72 -75.5t55.5 -94.5t22.5 -111q0 -114 -38 -197t-101 -136t-144.5 -79t-167.5 -26q-95 0 -172 39.5t-137.5 106t-106.5 155.5 t-77 189t-48 204t-21 203l142 -27q3 -134 37 -264.5t92 -233.5t137 -166.5t173 -63.5q63 0 116.5 25.5t92 65.5t60 88.5t21.5 94.5q0 47 -17 87t-52 79q-27 -59 -58 -99t-64 -64.5t-66 -34.5t-66 -10q-36 0 -66 23.5t-51.5 58t-33 74t-11.5 71.5v348h-444zM462 248 q0 48 31.5 79.5t78.5 31.5q50 0 80.5 -31.5t30.5 -79.5q0 -50 -30.5 -80t-80.5 -30q-47 0 -78.5 30t-31.5 80z" />
<glyph horiz-adv-x="807" d="M-85 1401v142h953v-142h-636v-804q0 -25 2 -39.5t8 -25t19 -17t35 -11.5q63 4 120 45t100 101t68 129t25 128q0 72 -58 72q-15 0 -34 -5.5t-44 -21.5l-61 106q74 62 147 62q36 0 70.5 -13.5t61.5 -40.5t43.5 -67t16.5 -94q0 -50 -15 -109.5t-42.5 -120.5t-67.5 -117 t-89.5 -100t-108 -70t-124.5 -26q-43 0 -82.5 21.5t-68.5 56t-46 77t-17 85.5v799h-175zM219 171q0 26 9.5 49t27 40t40.5 26.5t50 9.5q24 0 45.5 -10.5t38 -28t25.5 -40.5t9 -48q0 -52 -36.5 -87t-87.5 -35q-25 0 -47.5 10t-38.5 27t-25.5 40t-9.5 47z" />
<glyph horiz-adv-x="846" d="M-42 1401v142h961v-142h-144v-1000h-142v150q-139 224 -478 312l-89 113q58 61 128.5 121.5t153.5 121.5q-104 103 -197.5 142.5t-166.5 39.5h-26zM219 551q0 25 9.5 48t27 40t40.5 26.5t50 9.5q24 0 45.5 -10t38 -27.5t25.5 -40.5t9 -49q0 -27 -9 -49t-26 -40t-40 -27 t-49 -9q-25 0 -47.5 10t-38.5 27.5t-25.5 40.5t-9.5 50zM240 963q79 -22 128 -39t89 -40t79.5 -57.5t96.5 -90.5v665h-318q68 -42 120 -89t87 -98q-89 -77 -160.5 -139t-121.5 -112z" />
<glyph horiz-adv-x="3" d="M-649 1667l784 670l89 -105l-786 -670z" />
<glyph horiz-adv-x="747" d="M-50 1401v142h910v-142h-130v-1000h-141v174q-9 30 -35 68.5t-63 78t-83 77.5t-93.5 68.5t-92.5 48.5t-82 18h-16q-7 0 -11 -2l-66 107q126 96 260 166.5t282 113.5v82h-639zM66 691l61 132q53 -12 105.5 -37.5t99.5 -62t85.5 -80.5t63.5 -92l-67 -114q-25 44 -63.5 85 t-84 75.5t-96.5 58.5t-104 35zM243 1021q39 -3 91.5 -26t103.5 -56t92.5 -72t58.5 -76v383q-33 -6 -82 -23t-100.5 -38.5t-96 -46t-67.5 -45.5z" />
<glyph horiz-adv-x="483" d="M-802 796q0 52 34 89t96 57l75 -77q-25 -8 -44 -31t-19 -43q0 -17 18 -29.5t64 -12.5q51 0 98 15t81 42.5t54.5 65.5t20.5 82q0 15 -4 34t-9 38.5t-10 38t-7 33.5q69 -26 129 -72.5t104.5 -104.5t70.5 -123t26 -128q0 -48 -15.5 -89t-50 -76t-90 -64t-135.5 -51 q90 0 191.5 -46.5t223.5 -138.5v1584h142v-241h298v-141h-298v-1476h-142v105q-51 44 -93 75.5t-80.5 55t-79.5 41t-92.5 32.5t-118.5 28.5t-156 29.5l-119 175q25 -3 41 -3h23q77 0 150.5 17.5t131 48t92.5 71t35 87.5q0 19 -9.5 49.5t-32.5 69.5q-88 -102 -174 -154 t-174 -52q-34 0 -76.5 9t-80.5 30t-63.5 57.5t-25.5 92.5z" />
<glyph horiz-adv-x="802" d="M-657 630q10 9 92.5 64t240.5 158l-69 82l105 92l114 -144l-8 -96l-277 -172q292 -96 486 -266v879q146 8 161 8q101 0 190.5 -24t156.5 -70t106 -111t39 -146q0 -55 -18.5 -103t-50.5 -83t-74.5 -56t-88.5 -21q-30 0 -59 6.5t-60 27.5l8 163q15 -27 41.5 -41t53.5 -14 q41 0 74 28t33 80q0 56 -26 99t-67 71t-94.5 42.5t-108.5 14.5q-19 0 -37 -1t-37 -5v-1111h-142v180q-174 241 -575 320zM-182 1401v142h1018v-142h-1018z" />
<glyph horiz-adv-x="876" d="M-220 894q362 286 744 388v119h-614v142h1040v-142h-284v-1401h-142v243q-26 57 -70.5 117t-100 115.5t-119 104.5t-129.5 85.5t-130.5 57.5t-123.5 21zM-27 868q81 -20 164.5 -61.5t158.5 -94.5t134.5 -114.5t93.5 -122.5v670q-31 -10 -79.5 -30t-104 -45t-114.5 -54 t-109.5 -56.5t-89 -51.5t-54.5 -40z" />
<glyph horiz-adv-x="410" d="M-454 -55q0 39 21.5 75.5t56.5 64.5t81 45t94 17q80 0 152.5 -40t139.5 -112v1406h-184v142h531v-142h-205v-1802h-142v150q0 46 -34.5 92t-84.5 82t-104.5 59t-95.5 23q-12 0 -26.5 -6t-27.5 -16t-22 -22t-9 -24q0 -14 10.5 -25.5t26 -20t34 -13.5t36.5 -5l-46 -111 q-40 0 -76.5 13.5t-65 37.5t-44.5 57.5t-16 74.5z" />
<glyph horiz-adv-x="478" d="M-463 553q0 45 21 81t56.5 61t81 38.5t93.5 13.5q-75 137 -137 190l87 89q69 -63 118.5 -137t76.5 -161q11 -7 42.5 -31.5t66 -52.5t63 -54.5t34.5 -36.5v848h-328v142h675v-142h-205v-1401h-142v306q0 23 -26 64.5t-87 102.5q-49 48 -84 76.5t-64.5 44t-56 19.5t-57.5 4 q-12 0 -27.5 -6t-28.5 -16t-21.5 -22.5t-8.5 -24.5q0 -69 108 -89l-48 -111q-44 0 -81 15.5t-64 42.5t-42 65t-15 82z" />
<glyph horiz-adv-x="671" d="M-85 1401v142h784v-142h-163q-92 -100 -136 -190.5t-44 -181.5l81 -636q0 -91 -19.5 -158.5t-68.5 -122t-133.5 -99t-212.5 -87.5l-39 132q105 31 170.5 63t101 76.5t48 107t12.5 157.5q0 19 -6.5 62t-15 98.5t-19.5 118t-19.5 120.5t-14.5 105.5t-6 72.5q0 106 35 195.5 t104 166.5h-439z" />
<glyph horiz-adv-x="1990" d="M-79 1401v142h2089v-142h-2089zM98 747q0 97 80 324l113 -81q-53 -171 -53 -307q0 -77 16.5 -129.5t54 -84.5t99 -46t152.5 -14q19 0 71.5 0.5t115 2t123 2t93.5 0.5q80 0 148 -24t129 -71v797q0 92 -102 92q-29 0 -70.5 -19.5t-89 -52t-93.5 -75t-83.5 -89t-60.5 -94.5 t-23 -90q0 -50 24 -70.5t72 -20.5h17q8 0 19 2l-55 -140l-19 -3q-42 0 -78.5 18.5t-63.5 50t-42.5 75.5t-15.5 96q0 50 29 110.5t77 122.5t108.5 120t124 103t123.5 72t108 27q121 0 178 -79.5t57 -240.5v-91q151 91 287 91q57 0 106 -26t87 -69.5t59.5 -98t21.5 -109.5 q0 -52 -24 -100t-68 -95l-96 111q48 17 48 78q-6 50 -20.5 83t-37 51.5t-53 26t-66.5 7.5q-61 0 -120.5 -32.5t-123.5 -100.5v-760h-141q0 76 -17.5 128.5t-62.5 85.5t-123 48t-198 15q-147 0 -259.5 5.5t-195 22.5t-138 48.5t-88 84t-46.5 129t-14 183.5z" />
<glyph horiz-adv-x="1816" d="M-9 1401v142h1867v-142h-667v-127q108 -10 206 -50.5t173 -107t119.5 -157t44.5 -202.5q0 -46 -17 -95t-47.5 -90t-71.5 -67.5t-91 -26.5q-39 0 -102 24t-122 78l88 108q39 -35 69 -51.5t47 -16.5q24 0 43.5 14.5t32.5 37.5t19.5 49.5t6.5 49.5q0 74 -35 140t-91.5 116 t-127 78.5t-139.5 28.5h-5v-1134h-140v243q-17 46 -56.5 100.5t-93.5 110.5t-119 109t-132.5 93.5t-133.5 65.5t-122 25h-16t-16 -3l-76 150q185 143 377.5 236t387.5 144v127h-1060zM22 398q0 54 12.5 113.5t39.5 121.5l127 -33q-39 -122 -39 -172q0 -76 20.5 -128.5 t66 -86t113 -51.5t139.5 -10q71 4 99.5 9t55 11t51.5 9t49 3q81 0 154 -33t140 -85v628h142v-960h-142v147q-28 33 -66.5 62t-81 51t-86.5 35t-81 13q-17 0 -49.5 -7.5t-77.5 -16t-127 -10.5q-111 0 -196.5 29t-143.5 81t-88.5 123.5t-30.5 156.5zM494 868q69 -13 153.5 -53 t164 -94.5t144 -119t95.5 -126.5v659q-23 -3 -69.5 -18.5t-104 -39t-119 -52.5t-115.5 -58t-94 -54.5t-55 -43.5z" />
<glyph horiz-adv-x="1424" d="M58 379q0 57 13.5 114.5t39.5 120.5l129 -34q-19 -60 -28 -102.5t-9 -68.5q0 -76 19.5 -129t64.5 -86t118.5 -48.5t180.5 -15.5q22 0 49 5t54.5 12.5t54.5 13t50 5.5q81 0 153 -33.5t140 -85.5v180q-18 46 -63 100t-105 108.5t-131.5 106.5t-142.5 94t-136 69.5 t-113 32.5l-58 135q41 5 92 17t102 31t99.5 45t86 59t59.5 73t22 86q0 36 -17 72t-54 71q-31 -62 -62 -110t-68.5 -81t-86 -52t-115.5 -23q-48 0 -90.5 15t-75 41t-51 63.5t-18.5 83.5q0 102 60 171l111 -63q-23 -30 -27 -56.5t-4 -41.5q0 -6 6 -17.5t19 -24t32 -21t43 -8.5 q30 0 57 9.5t57 42.5t66.5 95.5t85.5 169.5q49 -20 98 -57t89 -85t65 -103t25 -109q0 -64 -31 -123.5t-80.5 -108t-110 -82t-119.5 -45.5q216 -82 484 -345v1319h143v-238h233v-142h-233v-1686h-143v147q-29 33 -67 61t-81 50.5t-86 35.5t-81 13q-16 0 -51 -5.5t-74 -11.5 t-75.5 -11t-54.5 -5q-111 0 -196.5 30t-143.5 82t-88.5 123.5t-30.5 154.5z" />
<glyph horiz-adv-x="1437" d="M61 440q0 54 14 113t41 122l127 -36q-19 -59 -28.5 -102t-9.5 -70q0 -74 19.5 -126.5t65 -86t119 -49t180.5 -15.5q23 0 50 5.5t54.5 11.5t54.5 11.5t51 5.5q81 0 154 -33t139 -83v873q-233 428 -498 428q-46 0 -96 -20t-91.5 -54.5t-68.5 -79t-27 -94.5q0 -45 29 -45 q18 0 55.5 11.5t79 25t78.5 25t53 11.5q45 0 84 -14t68 -41t46 -65.5t17 -87.5q0 -37 -25 -81.5t-67.5 -94.5t-98 -105t-116.5 -111l-116 89l156 148q64 64 94 108.5t32 60.5q0 38 -22.5 52t-66.5 14q-5 0 -23 -6t-43 -15.5t-54.5 -21t-57 -21t-49.5 -15.5t-35 -6 q-37 0 -67 14t-51 39t-31.5 57.5t-10.5 69.5q0 78 35.5 150t94.5 126t136 86.5t159 32.5q89 0 156.5 -21.5t125 -64t109.5 -108t107 -151.5v549h142v-212h215v-142h-215v-1628h-142v150q-28 31 -66.5 59.5t-81 50.5t-86 35.5t-80.5 13.5q-17 0 -52 -5t-74.5 -11.5t-76 -11 t-52.5 -4.5q-113 0 -198.5 29t-144 81t-89 123.5t-30.5 156.5z" />
<glyph horiz-adv-x="1400" d="M-14 1401v142h1418v-142h-206v-1691h-140v147q-43 54 -72 85.5t-57 47t-57.5 19.5t-71.5 4q-51 -8 -104 -19.5t-104.5 -23t-103.5 -18.5t-102 -7q-73 0 -133 31.5t-103 85t-65.5 121.5t-22.5 141q0 61 16.5 120.5t55.5 114.5l127 -34q-29 -43 -43.5 -91.5t-14.5 -98.5 q0 -47 13.5 -92t40 -79t65.5 -54.5t91 -20.5q39 0 105 10t133.5 23t126 23t83.5 10q34 0 54.5 -4t40.5 -16t42.5 -34.5t59.5 -58.5v138q-39 90 -105.5 167t-152 136.5t-184.5 100t-203 57.5l-44 111l215 227q-12 -3 -24 -4.5t-25 -1.5q-59 0 -113.5 22.5t-97 60t-68.5 87.5 t-26 107q0 38 11.5 75.5t38.5 75.5h-294zM372 1269q0 -38 22.5 -67t58 -48.5t80 -29.5t90.5 -10q61 0 103.5 19t89.5 70l89 -100q-83 -81 -172.5 -168t-180.5 -183q93 -35 159 -63.5t121.5 -63.5t108 -82.5t117.5 -117.5v976h-614q-40 -35 -56 -68t-16 -64z" />
<glyph horiz-adv-x="1422" d="M-16 1401v142h1460v-142h-857v-168q50 -65 87 -106.5t76 -67t91 -39.5t133 -25q73 -11 124 -23t78 -27q43 -27 76.5 -73t33.5 -115q0 -109 -72 -231q-18 -30 -38 -60v-1055h-141v146q-43 56 -72 87.5t-56.5 47t-57.5 19.5t-72 4q-51 -8 -103.5 -19.5t-104.5 -21.5 t-104 -17.5t-102 -7.5q-73 0 -134 31.5t-103.5 83.5t-66 119.5t-23.5 140.5q0 64 18.5 122.5t57.5 114.5l127 -34q-30 -42 -44 -91.5t-14 -99.5q0 -48 13.5 -92.5t39.5 -79t65.5 -55t90.5 -20.5q26 0 65 5t83.5 13t90.5 16t87 16t73.5 13t48.5 5q34 0 55.5 -4t41 -16.5 t42.5 -34.5t58 -59v547q-10 -10 -20 -21q-123 -131 -234.5 -197.5t-207.5 -66.5h-5q-39 23 -69.5 49.5t-53.5 53.5v1293h-461zM587 147q65 0 146 58t192 177q109 119 163 211.5t54 158.5q0 62 -99 92q-56 13 -121 28t-126.5 36t-116 50.5t-92.5 75.5v-887z" />
<glyph horiz-adv-x="1395" d="M-14 1401v142h1455v-142h-1056v-58q35 -56 73.5 -91.5t86.5 -54.5q30 -2 75.5 -9t94.5 -15t98.5 -14t88.5 -6q11 0 23 1.5t21 3.5q63 0 116.5 -29t94 -79t64.5 -116t24 -140q0 -69 -36 -137t-96.5 -128.5t-141.5 -109.5t-172 -79q84 -31 145.5 -58.5t110.5 -56t91 -59.5 t87 -70t99 -89t127 -115l-93 -100q-55 63 -121 122v-470h-142v150q-28 31 -66 60t-80.5 51t-86.5 35.5t-82 13.5q-16 0 -51.5 -5.5t-75.5 -12.5t-75.5 -12.5t-52.5 -5.5q-112 0 -197.5 29.5t-144.5 81.5t-89 124.5t-30 157.5q0 54 14 113t41 122l128 -37q-21 -61 -30 -103.5 t-9 -67.5q0 -75 20.5 -127.5t65.5 -85.5t118.5 -48t180.5 -15q23 0 49 5t54 11t54 11.5t49 5.5q81 0 155.5 -34t140.5 -85v250q-94 66 -197 117q-135 68 -277.5 107.5t-274.5 39.5h-16v145h193q113 0 216.5 33t182.5 87t126 124t47 144q0 45 -7.5 77t-26.5 54t-52 37t-85 27 l-61 8q-7 -80 -43.5 -157.5t-94 -139t-129 -100t-145.5 -38.5q-39 0 -77.5 17t-69 44t-50 61t-19.5 67v621h-257zM385 796q32 -63 79 -63q38 0 84.5 29.5t87 73t67.5 91.5t27 86q0 44 -47 48h-74q-139 0 -224 105v-370z" />
<glyph horiz-adv-x="1700" d="M-29 1401v142h1752v-142h-885q32 -79 75 -129q44 -52 98.5 -81t118.5 -39t137 -10q42 0 91.5 2t124.5 9l69 -92q-31 -92 -56 -171t-42.5 -150.5t-27 -139t-9.5 -136.5q0 -47 11.5 -113t29 -141t40 -151.5t43.5 -140.5l-132 -42q-1 3 -2 5q-52 32 -120 50q-71 19 -139 19 q-64 0 -125.5 -22.5t-123 -49.5t-123.5 -49t-130 -22q-96 0 -169.5 35t-122.5 94t-75 135t-26 159q0 22 1 44t5 45h137q-2 -15 -2 -29v-27q0 -61 14 -118t43 -101t75 -70.5t111 -26.5q64 0 128.5 22.5t129 50t129 50t127.5 22.5q102 0 205 -36q-19 68 -35 138 q-20 85 -33 165.5t-13 141.5q0 127 21 245.5t76 253.5h-58q-151 0 -246.5 15t-159 51t-106 95t-87.5 150q-42 -20 -74.5 -54.5t-55.5 -76t-35 -88t-12 -92.5q0 -33 11.5 -65t32 -56t48 -38.5t59.5 -14.5q116 0 169 95l103 21q60 -52 96.5 -90t57 -71t27 -68t6.5 -83 q0 -79 -33.5 -152.5t-90.5 -129t-131 -88.5t-154 -33q-204 0 -364 185q-61 69 -110.5 142.5t-83.5 170t-53 226.5t-19 313h142q0 -50 0.5 -92.5t2.5 -83t4.5 -79t8.5 -80.5q16 -111 62.5 -213t112 -179.5t142.5 -123.5t153 -46q50 0 99 21.5t87 57.5t61.5 82.5t23.5 96.5 q0 100 -78 166q-52 -51 -112.5 -78t-133.5 -27q-62 0 -114.5 26t-91 69.5t-60.5 100t-22 116.5q0 268 208 403h-633z" />
<glyph horiz-adv-x="1404" d="M-10 1401v142h1139q4 20 7.5 39t3.5 35q0 73 -61.5 107.5t-186.5 37.5l-429 -34q-69 0 -130.5 22.5t-107.5 62t-73 95.5t-27 124q0 85 92 200l116 -81q-34 -44 -48.5 -81.5t-14.5 -70.5q0 -64 64.5 -96t200.5 -32l426 31q73 0 133.5 -25.5t103 -71t66 -109t23.5 -137.5 v-16h133v-142h-832v-918q0 -148 85 -148q53 0 106 25t102 67.5t90.5 99t72.5 120.5t49 131.5t18 131.5q0 100 -84 100q-38 0 -108 -45l-80 93q100 84 193 84q46 0 86 -17.5t69.5 -49t46.5 -77t17 -99.5q0 -78 -23 -161q-16 -55 -38 -109v-1064h-140v147q-43 56 -72 87.5 t-57 47t-57.5 19.5t-71.5 4q-51 -8 -104 -20t-105 -23t-104 -18t-102 -7q-74 0 -134 31.5t-102.5 84t-66 121t-23.5 141.5q0 60 17.5 120t56.5 114l128 -32q-29 -43 -43.5 -92.5t-14.5 -99.5q0 -48 13.5 -93.5t40 -80t65.5 -54.5t90 -20q26 0 65 5.5t84 13t90.5 16t87 16 t73.5 13t49 5.5q33 0 55 -3.5t41.5 -15.5t42.5 -34.5t58 -60.5v507q-47 -55 -100 -98q-64 -52 -134.5 -82.5t-142.5 -30.5q-54 0 -96.5 21t-72 58.5t-45 89.5t-15.5 113v926h-454z" />
<glyph horiz-adv-x="1397" d="M-6 1401v142h666q-113 131 -168.5 241.5t-55.5 212.5q0 81 38.5 171.5t111.5 187.5l104 -77q-40 -56 -62.5 -93.5t-32.5 -64.5t-12 -48t-2 -41q0 -53 10.5 -101.5t39.5 -104t80.5 -123.5t133.5 -160h558v-142h-494q84 -129 138 -221.5t81 -150.5q43 -97 71 -202.5 t28 -220.5q0 -97 -33 -195v-1036h-141v147q-43 54 -72 86t-56.5 47.5t-57.5 19.5t-72 4q-51 -8 -102 -19.5t-103 -23t-105 -19t-104 -7.5q-73 0 -132.5 31.5t-102 85t-66 121.5t-23.5 141q0 61 17.5 121t55.5 114l127 -34q-30 -43 -44 -91.5t-14 -98.5q0 -47 13.5 -91.5 t39.5 -79t65.5 -55t91.5 -20.5q39 0 104.5 10.5t133 23t126.5 22.5t83 10q34 0 55.5 -3t41 -15.5t42.5 -34.5t58 -60v460q-57 -63 -127 -106q-87 -53 -183 -53q-95 0 -173 32.5t-135 90t-88.5 137.5t-31.5 178q0 54 13.5 81.5t38.5 44.5t58.5 31.5t74.5 43.5 q82 55 134.5 107t84 117t43.5 149t12 204q0 52 -9.5 97t-24.5 80h-746zM455 462q0 -312 282 -312q72 0 135.5 44t110 115.5t73.5 162.5t27 185q0 234 -166 472q0 -112 -35 -219.5t-97 -198t-146.5 -156t-183.5 -93.5z" />
<glyph horiz-adv-x="1564" d="M-38 1401v142h1609v-142h-776v-541q0 -31 11 -46t38 -15q22 0 54.5 17.5t70 45.5t76 62.5t71.5 68t58 64t35 49.5q94 -62 150.5 -171.5t56.5 -264.5q0 -102 -43 -194q-37 -80 -97 -142v-796h-142v147q-29 33 -67 61.5t-81 50.5t-86 35t-81 13q-16 0 -52 -5.5t-75.5 -11.5 t-74.5 -11t-52 -5q-112 0 -197.5 30t-143.5 82t-88 123.5t-30 154.5q0 57 13 114.5t40 120.5l127 -33q-42 -118 -42 -172q0 -75 20.5 -128.5t66 -86.5t120 -48.5t181.5 -15.5q23 0 49 5.5t54 12.5t54 12.5t49 5.5q81 0 155.5 -33.5t140.5 -85.5v358q-23 -12 -47 -22 q-98 -40 -210 -40q-87 0 -170.5 34t-156 90t-131.5 130t-98 155q-61 123 -101.5 300t-60.5 410h141q32 -254 82 -438t121.5 -304t166 -178.5t215.5 -58.5q76 0 147 34t125 88.5t86.5 125.5t32.5 145q0 57 -18.5 109.5t-53.5 104.5q-27 -42 -71.5 -87.5t-98.5 -82.5 t-110 -61.5t-105 -24.5q-29 0 -59 19t-53.5 47.5t-38.5 61.5t-15 61v555h-691z" />
<glyph horiz-adv-x="1426" d="M-2 1401v142h1441v-142h-829v-1103q0 -44 3 -71t12.5 -42.5t26 -22.5t40.5 -12q57 5 111 35.5t103 77t90.5 106.5t71.5 127.5t47 138.5t17 139q0 105 -82 105q-42 0 -108 -45l-84 95q119 92 203 92q41 0 79.5 -24t68.5 -60.5t47 -81.5t17 -87q0 -82 -23 -171 q-20 -75 -52 -148v-1051h-140v146q-43 55 -72 86.5t-57 47.5t-57.5 20t-71.5 4q-51 -8 -104 -19.5t-104.5 -22t-103.5 -18t-102 -7.5q-73 0 -134 32t-103.5 84.5t-66 120t-23.5 139.5q0 63 18 122t57 113l127 -33q-29 -42 -43.5 -91t-14.5 -100q0 -48 13.5 -92.5t40 -79 t65.5 -54.5t91 -20q39 0 105 10t133.5 23t126 23t83.5 10q34 0 54.5 -3.5t40.5 -15.5t42 -34l60 -60v493q-42 -50 -87 -91q-64 -57 -134.5 -90t-141.5 -33q-54 0 -96.5 21t-72.5 59t-45.5 90t-15.5 112v1111h-467z" />
<glyph horiz-adv-x="1541" d="M-24 1401v142h1572v-142h-1572zM116 705q0 75 13 152t32 158l121 -20q-24 -116 -24 -257q0 -351 238 -351l491 50q109 0 213 -100v771q-46 95 -97 95q-32 0 -74.5 -21.5t-88 -57t-90 -80t-80.5 -89t-59.5 -87t-27.5 -72.5q12 -71 64 -71q35 0 91 46l67 -99 q-42 -42 -85.5 -65.5t-89.5 -23.5q-44 0 -79 17t-59 46.5t-36.5 69.5t-12.5 86q0 53 28 113.5t75 120.5t107 115.5t122.5 98t124 68t111.5 25.5q35 0 66 -17t57 -41t45.5 -52.5t33 -52.5t21 -39t7.5 -12v-1160h-141q0 159 -58 243t-185 84q-21 0 -58.5 -3.5t-81 -9.5 t-91.5 -12t-92 -12.5t-80 -9.5t-56 -3q-85 0 -155 34.5t-120.5 95.5t-78.5 145t-28 184z" />
<glyph horiz-adv-x="1618" d="M-32 1401v142h1673v-142h-1673zM142 193q0 111 53 235l128 -32q-21 -61 -30 -104.5t-9 -67.5q0 -76 20.5 -129t65.5 -87t118.5 -48.5t180.5 -14.5q23 0 49 5t54 11.5t54 11.5t49 5q81 0 155.5 -32t140.5 -84v297q-3 -2 -7 -3q-96 -51 -222 -51q-141 0 -244 46 t-177.5 124.5t-125 183t-85.5 221t-59 239.5t-44 239l-12 69h142l13 -77q18 -100 38 -206t48.5 -206.5t69 -190t98 -156.5t135 -106t181.5 -39q101 0 175.5 39t123 103t71.5 146t23 168q0 85 -22.5 168t-65.5 148t-106.5 105.5t-145.5 40.5q-40 0 -78.5 -13.5t-68.5 -38.5 t-49.5 -59.5t-19.5 -76.5q0 -19 8.5 -43t27.5 -54l-119 -69q-29 57 -43.5 108t-14.5 95q0 60 28 113.5t75.5 93.5t112.5 62.5t141 22.5q117 0 207 -52.5t150.5 -138t91.5 -193.5t31 -219q0 -113 -32.5 -220.5t-96.5 -191.5q-5 -7 -11 -15v-745h-142v146q-28 32 -66 61 t-80.5 51.5t-86.5 35.5t-82 13q-16 0 -51.5 -5.5t-75.5 -11.5t-75.5 -11t-52.5 -5q-112 0 -197.5 29t-143.5 80.5t-88 123t-30 156.5z" />
<glyph horiz-adv-x="1436" d="M61 351q0 57 14 115.5t38 119.5l127 -33q-19 -60 -28 -103.5t-9 -67.5q0 -76 20 -128.5t66 -85.5t119.5 -48t180.5 -15q21 0 48 5t55 11t55 11.5t50 5.5q81 0 153.5 -33t138.5 -86v183q-99 110 -180 193t-165 143t-180.5 98t-225.5 58l-122 155q174 24 289 52.5 t182.5 68.5t95 93t27.5 126q0 53 -23 92t-60 65.5t-84.5 39.5t-97.5 13q-44 0 -90.5 -13t-85 -36.5t-63 -54.5t-24.5 -68q0 -42 20.5 -63.5t48.5 -21.5q7 0 16.5 1.5t17.5 3.5v-141q-11 -3 -23 -3h-22q-40 0 -76 15.5t-63.5 44t-43 67.5t-15.5 86q0 80 37 141.5t95.5 102.5 t132.5 62t147 21q74 0 145.5 -23t127.5 -69.5t90.5 -116.5t34.5 -165q0 -66 -32.5 -131.5t-84 -119.5t-115 -92t-126.5 -50q143 -54 267.5 -143t227.5 -216v1369h145v-243h223v-142h-223v-1713h-145v146q-28 32 -66.5 62t-81 52t-85.5 35.5t-81 13.5q-16 0 -51 -5.5 t-74.5 -12.5t-76 -12.5t-53.5 -5.5q-111 0 -196.5 29.5t-143.5 81.5t-88.5 123.5t-30.5 155.5z" />
<glyph horiz-adv-x="1487" d="M-7 1401v142h1505v-142h-927v-646q141 185 311.5 287.5t379.5 121.5l121 -91q-66 -123 -95 -270t-29 -302q0 -123 14 -245t41 -237l-127 -24q-49 37 -119.5 63.5t-137.5 35.5h-35q-57 0 -112 -14.5t-110 -32t-111 -32.5t-113 -15h-18q-9 0 -18 3q-88 9 -153 47t-109 94.5 t-65.5 127.5t-21.5 145q0 69 21 136l135 -14q-9 -49 -9 -104q0 -53 11 -103t36 -90t65.5 -65.5t98.5 -29.5q7 -3 13.5 -3.5t13.5 -0.5q58 0 117 14t117 32t116 32t114 14h18q11 0 19 -3q100 -8 192 -56q-5 26 -8 51q-15 124 -15 251q0 135 17.5 267.5t56.5 254.5 q-180 -23 -339 -156.5t-297 -381.5l-127 137v802h-437z" />
<glyph horiz-adv-x="1386" d="M19 370q0 54 12.5 113.5t39.5 121.5l127 -33q-39 -122 -39 -172q0 -76 20.5 -128.5t66 -86t120 -48.5t177.5 -12q26 3 54.5 8t55 11t51.5 9t49 3q81 0 154 -33t140 -85v628h142v-960h-142v147q-28 33 -66.5 62t-81 51t-86.5 35t-81 13q-17 0 -49.5 -7.5t-77.5 -16 t-127 -10.5q-111 0 -196.5 29t-143.5 81t-88.5 123.5t-30.5 156.5zM264 815l311 253q-261 61 -261 254q0 48 18.5 92t50.5 76.5t74.5 52t91.5 19.5q117 0 197 -155l-108 -69q-15 35 -39 58.5t-63 23.5q-21 0 -35.5 -10t-25 -25.5t-15 -32.5t-4.5 -30q0 -37 21.5 -63t58 -46 t82.5 -34.5t94 -28.5l335 188v205h369v-142h-227v-1401h-142v238q-92 90 -169.5 161t-157.5 127t-170.5 99t-207.5 77zM477 807q72 -35 126 -62.5t97 -52t81 -49.5t77 -54.5t84.5 -68t104.5 -89.5v743q-328 -159 -570 -367z" />
<glyph horiz-adv-x="1394" d="M-11 1401v142h1422v-142h-221v-1401h-142v533q-15 65 -49.5 142t-84.5 144.5t-114 112.5t-138 45q-65 0 -118.5 -25t-92 -66t-59.5 -94.5t-21 -108.5q0 -57 22 -111t71 -99l-90 -109q-76 53 -110 130.5t-34 162.5q0 83 29 166t83 148.5t128 106.5t166 41q135 0 239 -69.5 t173 -211.5v563h-1059zM20 219q0 54 12.5 113.5t39.5 121.5l127 -33q-39 -122 -39 -172q0 -76 20.5 -128.5t66 -86t120 -48.5t177.5 -12q26 3 54.5 8t55 11t51.5 9t49 3q81 0 154 -33t140 -85v628h142v-960h-142v147q-28 33 -66.5 62t-81 51t-86.5 35t-81 13 q-17 0 -49.5 -7.5t-77.5 -16t-127 -10.5q-111 0 -196.5 29t-143.5 81t-88.5 123.5t-30.5 156.5z" />
<glyph horiz-adv-x="1449" d="M-85 1401v142h1586v-142h-293q35 -66 50.5 -124t15.5 -105q0 -49 -20.5 -99.5t-54.5 -91.5t-76 -67.5t-84 -26.5q-74 0 -229 131q-77 65 -142.5 89t-116.5 24q-43 0 -74 -31t-31 -74q0 -27 14 -38t41 -23l-84 -92q-113 52 -113 188q0 46 21 84.5t56.5 67t82 44t98.5 15.5 q125 0 229 -64q8 -5 40.5 -33.5t73.5 -61t82.5 -58.5t65.5 -26q16 6 31 22.5t26.5 36.5t17.5 42t6 42q0 85 -25 143.5t-75 85.5h-1119zM65 749q0 54 12.5 113.5t39.5 121.5l127 -33q-39 -122 -39 -172q0 -76 20.5 -128.5t66 -86t120 -48.5t177.5 -12q26 3 54.5 8t55 11 t51.5 9t49 3q81 0 154 -33t140 -85v628h142v-960h-142v147q-28 33 -66.5 62t-81 51t-86.5 35t-81 13q-17 0 -49.5 -7.5t-77.5 -16t-127 -10.5q-111 0 -196.5 29t-143.5 81t-88.5 123.5t-30.5 156.5z" />
<glyph horiz-adv-x="1494" d="M104 1158q15 68 64.5 132t117.5 114t147 80.5t153 30.5q366 0 562 -359v615h142v-228h237v-142h-237v-1401h-142v868q0 8 -10 31.5t-26.5 54t-36 64.5t-37 63t-31.5 49t-20 26q-75 -81 -203.5 -215t-313.5 -319l-100 93q103 108 103 198q0 32 -9.5 63t-28 55.5t-44 38.5 t-57.5 14q-6 0 -132 -26zM120 493q0 54 12.5 113.5t39.5 121.5l127 -33q-39 -122 -39 -172q0 -76 20.5 -128.5t66 -86t120 -48.5t177.5 -12q26 3 54.5 8t55 11t51.5 9t49 3q81 0 154 -33t140 -85v628h142v-960h-142v147q-28 33 -66.5 62t-81 51t-86.5 35t-81 13 q-17 0 -49.5 -7.5t-77.5 -16t-127 -10.5q-111 0 -196.5 29t-143.5 81t-88.5 123.5t-30.5 156.5zM304 1216q65 0 111 -12t79 -41.5t56.5 -81t43.5 -129.5q65 61 141.5 137t165.5 172q-53 42 -97 64t-79 33t-62 13t-47 2q-31 0 -72 -9t-84.5 -27t-84.5 -48.5t-71 -72.5z" />
<glyph horiz-adv-x="1723" d="M-52 363q0 54 12.5 113.5t39.5 121.5l127 -33q-39 -122 -39 -172q0 -76 20.5 -128.5t66 -86t120 -48.5t177.5 -12q26 3 54.5 8t55 11t51.5 9t49 3q81 0 154 -33t140 -85v628h142v-960h-142v147q-28 33 -66.5 62t-81 51t-86.5 35t-81 13q-17 0 -49.5 -7.5t-77.5 -16 t-127 -10.5q-111 0 -196.5 29t-143.5 81t-88.5 123.5t-30.5 156.5zM-9 1401v142h1751v-142h-1275q173 -114 283 -270v-105q-69 -63 -146 -126.5t-162 -131.5q160 -51 294 -145.5t240 -229.5v923q21 3 42 3h43q112 0 214 -32t180.5 -94t124.5 -153.5t46 -210.5 q0 -43 -17.5 -81t-48 -67t-69.5 -46t-81 -17q-23 0 -55.5 7.5t-71.5 23.5l69 137q15 -14 29 -20t26 -6q77 0 77 97q0 69 -27 126.5t-75 98t-115.5 62.5t-148.5 22v-1166h-142v193q-21 51 -62.5 102.5t-94.5 100t-116.5 92t-130.5 78.5t-135 60.5t-130 37.5l-80 101 q101 77 196.5 155.5t184.5 155.5q-47 69 -142.5 151t-238.5 174h-236z" />
<glyph horiz-adv-x="1427" d="M-29 1401v142h1455v-142h-201v-1632h-142v147q-28 33 -66.5 62t-81 51t-86.5 35t-81 13q-17 0 -49.5 -7.5t-77.5 -16t-127 -10.5q-111 0 -196.5 29t-143.5 81t-88.5 123.5t-30.5 156.5q0 54 12.5 113.5t39.5 121.5l127 -33q-39 -122 -39 -172q0 -76 20.5 -128.5t66 -86 t120 -48.5t177.5 -12q26 3 54.5 8t55 11t51.5 9t49 3q81 0 154 -33t140 -85v145q-12 42 -48.5 95t-89 109t-116 109.5t-129.5 96t-129.5 68t-114.5 25.5q-11 0 -20.5 -1t-17.5 -4l-92 150q348 268 757 388v119h-1112zM545 868q36 -4 86 -23.5t105 -50.5t110 -69.5t103 -80 t84 -82t50 -73.5v653q-29 -7 -75 -24.5t-98.5 -41t-108.5 -52t-106 -56.5t-90 -54t-60 -46z" />
<glyph horiz-adv-x="1559" d="M-29 1401v142h1606v-142h-1606zM109 771q0 42 10.5 98t33.5 126l135 -41q-18 -63 -27.5 -113t-9.5 -89q0 -88 31 -150t79 -101t104 -57.5t106 -18.5l417 26q66 0 125.5 -19.5t106.5 -75.5v642q-270 -235 -455 -235q-66 0 -121 22t-94 62.5t-60.5 96.5t-21.5 124 q0 40 18 78t48.5 67t69 46.5t80.5 17.5q101 0 147 -100l-61 -119q-35 81 -70 81q-15 0 -29.5 -8t-25.5 -20.5t-18 -28.5t-7 -32q0 -140 158 -140q46 0 86.5 13t90 47t113.5 94.5t156 154.5l135 -61v-1158h-124q-14 81 -37 137.5t-60 92.5t-93 52t-134 16q-16 0 -55.5 -2 t-84.5 -4t-88.5 -3t-67.5 -1q-120 0 -214.5 32t-159.5 94.5t-98.5 152t-33.5 204.5z" />
<glyph horiz-adv-x="1584" d="M-13 1401v142h1659v-142h-1659zM108 1160l135 40q51 -196 128 -355t173 -272t208.5 -174.5t234.5 -61.5q74 0 137 35.5t108.5 92t71.5 128t26 143.5q0 65 -23 123t-70 104q-77 -131 -170.5 -190.5t-203.5 -59.5q-80 0 -146 21.5t-113.5 62.5t-73.5 102t-26 140 q0 46 14 87.5t39.5 73t62 50.5t82.5 19q114 -1 200 -82l-54 -118q-76 58 -115 58q-42 0 -65 -29t-23 -83q0 -81 53 -120.5t154 -39.5q50 0 90.5 13.5t78 50.5t77.5 102.5t89 167.5q78 -54 132.5 -108t88.5 -114t49 -127.5t15 -148.5q0 -96 -38 -185t-103 -158t-150.5 -110.5 t-182.5 -41.5q-147 0 -278 58.5t-246 187t-212 330t-154 388.5zM217 168q0 54 12.5 113.5t39.5 121.5l127 -33q-39 -122 -39 -172q0 -76 20.5 -128.5t66 -86t120 -48.5t177.5 -12q26 3 54.5 8t55 11t51.5 9t49 3q81 0 154 -33t140 -85v628h142v-960h-142v147 q-28 33 -66.5 62t-81 51t-86.5 35t-81 13q-17 0 -49.5 -7.5t-77.5 -16t-127 -10.5q-111 0 -196.5 29t-143.5 81t-88.5 123.5t-30.5 156.5z" />
<glyph horiz-adv-x="1385" d="M-6 1401v142h1398v-142h-206v-1401h-142v478q0 28 -17.5 72t-47 93.5t-67.5 98.5t-78.5 89t-79.5 65t-72 25q-148 0 -234 -78.5t-86 -225.5q0 -220 234 -266l-63 -121h-11q-61 0 -115 38t-96 95t-66 123t-24 123q0 378 383 455q-18 48 -43.5 82.5t-72.5 61.5t-122 50.5 t-190 49.5v93h-182zM16 125q0 54 12.5 113.5t39.5 121.5l127 -33q-39 -122 -39 -172q0 -76 20.5 -128.5t66 -86t120 -48.5t177.5 -12q26 3 54.5 8t55 11t51.5 9t49 3q81 0 154 -33t140 -85v628h142v-960h-142v147q-28 33 -66.5 62t-81 51t-86.5 35t-81 13q-17 0 -49.5 -7.5 t-77.5 -16t-127 -10.5q-111 0 -196.5 29t-143.5 81t-88.5 123.5t-30.5 156.5zM392 1401q80 -27 137 -56.5t100 -70t74 -95t56 -129.5q81 -27 152.5 -94.5t132.5 -172.5v618h-652z" />
<glyph horiz-adv-x="1429" d="M-12 1401v142h1453v-142h-212v-1401h-144v211q-47 78 -124 151t-169 131.5t-192 99.5t-193 56l-124 156q73 73 173 159t231 183q-4 7 -29 28.5t-62.5 50t-80.5 59t-83 57t-69.5 43t-40.5 16.5h-334zM56 379q0 57 14.5 114.5t38.5 120.5l127 -34q-19 -60 -28.5 -102.5 t-9.5 -68.5q0 -76 20 -129t66 -86t119.5 -48.5t180.5 -15.5q22 0 49 5t54.5 12.5t54.5 13t50 5.5q81 0 154 -33.5t139 -85.5v628h144v-960h-144v147q-28 33 -66.5 61t-81 50.5t-86 35.5t-81.5 13q-16 0 -51 -5.5t-75 -11.5t-76.5 -11t-52.5 -5q-111 0 -196.5 30t-143.5 82 t-88.5 123.5t-30.5 154.5zM477 788q76 -23 135.5 -44.5t108.5 -45t91.5 -51t85 -63t87.5 -80.5t100 -103v1000h-504q42 -28 82.5 -56.5t78.5 -59.5t71.5 -68t60.5 -83q-254 -202 -397 -346z" />
<glyph horiz-adv-x="1476" d="M-23 1382v156q30 4 58.5 4.5t57.5 0.5q79 0 152 -14t133 -48.5t101 -91.5t55 -142q35 131 105.5 196.5t181.5 65.5q58 -6 100 -28.5t76.5 -56.5t65.5 -77.5t70 -93.5v518h142v-228h222v-142h-222v-1401h-142v968q0 24 -13.5 62.5t-38 83t-55.5 90t-67.5 82t-74 59.5 t-74.5 23q-69 0 -112 -67.5t-43 -211.5q0 -32 14 -61t38 -50t54 -33.5t63 -12.5q46 0 88 31l66 -119q-43 -31 -84 -42.5t-76 -11.5q-83 0 -148 38.5t-112 123.5q-20 -42 -49 -75t-63 -57t-70.5 -36.5t-71.5 -12.5q-47 0 -91.5 17.5t-88.5 63.5l72 113q19 -19 45.5 -35.5 t65.5 -16.5q28 5 52.5 24t42 45t27.5 56.5t10 59.5q0 71 -28.5 127t-76.5 95t-111 60t-132 21q-58 0 -114 -19zM105 450q0 54 12.5 113.5t39.5 121.5l127 -33q-39 -122 -39 -172q0 -76 20.5 -128.5t66 -86t120 -48.5t177.5 -12q26 3 54.5 8t55 11t51.5 9t49 3q81 0 154 -33 t140 -85v628h142v-960h-142v147q-28 33 -66.5 62t-81 51t-86.5 35t-81 13q-17 0 -49.5 -7.5t-77.5 -16t-127 -10.5q-111 0 -196.5 29t-143.5 81t-88.5 123.5t-30.5 156.5z" />
<glyph horiz-adv-x="1291" d="M-58 1401v142h1407v-142h-193v-1401h-141v177q-92 131 -169.5 218t-153.5 139.5t-155 75.5t-173 26l-116 160q40 48 131 130t238 200q-76 57 -193.5 124.5t-280.5 150.5h-201zM16 329q0 61 19 121t57 114l127 -33q-30 -44 -43 -92.5t-13 -98.5q0 -47 13 -91.5t38.5 -79 t65 -55t90.5 -20.5q39 0 105 10.5t133.5 23t126.5 23t83 10.5q34 0 55.5 -3.5t41 -15.5t42.5 -34.5t58 -60.5v739h141v-1071h-141v147q-43 54 -72 86t-56.5 47.5t-57.5 19.5t-72 4q-51 -8 -102.5 -19.5l-103 -23t-104.5 -19t-104 -7.5q-73 0 -133 31.5t-103.5 85t-67 121.5 t-23.5 141zM423 1401q98 -39 246 -144t346 -281v425h-592zM437 771q169 -19 314 -107t264 -244v337q-35 50 -106.5 121.5t-175.5 163.5q-93 -69 -166 -136.5t-130 -134.5z" />
<glyph horiz-adv-x="1491" d="M-15 1401v142h1519v-142h-205v-1401h-143v678q-10 31 -38 80t-64.5 96.5t-75.5 81t-73 33.5q-40 0 -74 -34.5t-66 -85.5t-64.5 -110.5t-70.5 -111t-85 -85.5t-107 -34q-69 0 -146 73.5t-167 220.5l123 66q13 -26 30.5 -63.5t40.5 -72t51 -59t60 -24.5q27 0 59 29t59 69 t45.5 81t21.5 66q-13 94 -35.5 159.5t-72 111.5t-137 79t-230.5 64v93h-155zM129 323q0 54 12.5 113.5t39.5 121.5l127 -33q-39 -122 -39 -172q0 -76 20.5 -128.5t66 -86t120 -48.5t177.5 -12q26 3 54.5 8t55 11t51.5 9t49 3q81 0 154 -33t140 -85v628h142v-960h-142v147 q-28 33 -66.5 62t-81 51t-86.5 35t-81 13q-17 0 -49.5 -7.5t-77.5 -16t-127 -10.5q-111 0 -196.5 29t-143.5 81t-88.5 123.5t-30.5 156.5zM359 1401q81 -32 138 -63t99.5 -71.5t74.5 -96.5t60 -139q84 80 180 80q109 0 245 -190v480h-797z" />
<glyph horiz-adv-x="1335" d="M-113 1401v142h1567v-142h-240q23 -27 40.5 -67.5t17.5 -100.5q0 -59 -21 -108t-57.5 -85.5t-86.5 -56.5t-107 -20q-64 0 -123 21.5t-108 62t-87.5 97.5t-64.5 128q-47 -184 -113.5 -271.5t-147.5 -87.5q-29 0 -65.5 19.5t-71 48.5t-61.5 62.5t-39 62.5q19 23 36.5 50 t32.5 58q16 -27 37 -55.5t42 -52t41.5 -38.5t37.5 -15q27 0 52.5 28.5t45.5 72t32.5 95t12.5 97.5q0 15 -1.5 27.5t-4.5 27.5h-596zM105 662q0 61 16 121t55 115l127 -33q-58 -90 -58 -191q0 -48 13.5 -93.5t40 -80t66 -55.5t91.5 -21q39 0 105 11t133.5 24.5t126 24.5 t83.5 11q32 0 53.5 -4t42 -16.5t42.5 -34.5t58 -59v735h141v-1067h-141v143q-44 57 -73 88.5t-56 47t-56.5 19t-71.5 3.5q-53 -7 -105 -18t-103 -22t-103 -18.5t-103 -7.5q-75 0 -134 32t-102 84.5t-65.5 120.5t-22.5 141zM707 1401q0 -51 22 -103.5t57.5 -96t81.5 -71 t95 -27.5q168 0 168 155q0 23 -16 58t-47 83q-7 1 -11 1.5t-7 0.5h-5h-338z" />
<glyph horiz-adv-x="1253" d="M-9 1401v142h1327v-142h-1327zM43 172q0 54 12.5 113.5t39.5 121.5l127 -33q-39 -122 -39 -172q0 -76 20.5 -128.5t66 -86t120 -48.5t177.5 -12q26 3 54.5 8t55 11t51.5 9t49 3q81 0 154 -33t140 -85v269h142v-601h-142v147q-28 33 -66.5 62t-81 51t-86.5 35t-81 13 q-17 0 -49.5 -7.5t-77.5 -16t-127 -10.5q-111 0 -196.5 29t-143.5 81t-88.5 123.5t-30.5 156.5zM173 725q260 -92 423 -92q76 0 144.5 25.5t120.5 69.5t83 101.5t31 122.5q0 48 -31 95.5t-78 85t-102 60.5t-102 23q-43 0 -88.5 -14t-83 -39t-62 -61.5t-24.5 -80.5 q0 -27 20.5 -55t55.5 -59l-85 -116q-133 82 -133 240q0 62 40.5 121t101.5 105t132.5 73.5t132.5 27.5q73 0 152.5 -33.5t145 -90.5t108 -130.5t42.5 -151.5q0 -309 -413 -446q232 -127 405.5 -266.5t296.5 -294.5l-104 -92q-236 259 -500.5 436.5t-567.5 277.5z" />
<glyph horiz-adv-x="1398" d="M-53 1401v142h1470v-142h-220v-1401h-141v246q-12 42 -48.5 95t-88.5 109t-116.5 109.5t-130 96t-129.5 68t-115 25.5q-11 0 -20.5 -1t-17.5 -4l-92 150q349 268 758 388v119h-1109zM34 470q0 108 55 229l124 -29q-39 -125 -39 -169q0 -76 20.5 -128t66 -84.5t119.5 -47 t179 -14.5q21 0 47.5 5.5t53.5 11.5t53.5 11.5t49.5 5.5q81 0 154 -33.5t139 -84.5v617h141v-942h-141v143q-29 32 -66.5 61t-79.5 50t-85 34t-81 13q-16 0 -51.5 -5.5t-75 -11.5t-76 -11.5t-52.5 -5.5q-110 0 -195 29t-143 80.5t-87.5 121.5t-29.5 154zM517 868 q36 -4 86 -23.5t105 -50.5t111 -69.5t103 -80t83 -82t51 -73.5v208l-376 279q-54 -31 -98.5 -58.5t-64.5 -49.5zM818 1045l238 -177v274q-39 -8 -102.5 -35t-135.5 -62z" />
<glyph horiz-adv-x="1227" d="M-36 1401v142h1363v-142h-180v-1401h-141v246q-12 42 -48.5 95t-88.5 109t-116.5 109.5t-129.5 96t-128.5 68t-115.5 25.5q-10 0 -20.5 -1t-18.5 -4l-92 150q349 268 758 388v119h-1042zM8 221q0 61 17.5 121t56.5 114l129 -36q-30 -42 -44 -91.5t-14 -98.5 q0 -48 13.5 -92.5t39.5 -79t65 -54.5t91 -20q27 0 65.5 5.5t83 12.5t90.5 16t87 16.5t73.5 13t48.5 5.5q34 0 55.5 -4t41 -16.5t42 -34.5t57.5 -59v736h141v-1071h-141v148q-42 54 -71.5 85.5t-57 47t-57 19.5t-71.5 4q-51 -8 -103.5 -19.5t-104.5 -21.5t-104 -17.5 t-102 -7.5q-74 0 -134.5 31.5t-103 85t-66 121.5t-23.5 141zM277 464l82 127q74 -17 148.5 -53.5t141 -86.5t120.5 -111.5t88 -128.5l-94 -106q-35 61 -88.5 119.5t-118.5 106.5t-136.5 83.5t-142.5 49.5zM467 868q37 -4 86.5 -23.5t104.5 -50.5t111 -69.5t103 -80t83 -82 t51 -73.5v653q-30 -7 -76 -24.5t-98.5 -41t-108.5 -52t-106 -56.5t-90 -54t-60 -46z" />
<glyph horiz-adv-x="1836" d="M-119 1401v142h2055v-142h-703v-245q129 -7 199.5 -13t82.5 -9q42 -12 83.5 -42.5t74.5 -73.5t53.5 -95t20.5 -105q0 -115 -61.5 -177.5t-176.5 -62.5q-67 0 -127 39l67 130q14 -15 31.5 -22t36.5 -7q89 0 89 105q0 88 -70 143t-195 55q2 0 -25 -1.5t-83 -4.5v-1023h-141 v343q-35 75 -83 138t-102 107.5t-112 69.5t-112 25q-27 -9 -41 -16t-23 -18t-15 -29t-15 -50q-25 14 -54.5 34.5t-67.5 44.5q0 35 28.5 73t79.5 77q19 7 49.5 13t69.5 14v34q0 66 -28.5 119.5t-75.5 90.5t-110.5 57t-133.5 20q-42 0 -59.5 -25.5t-17.5 -60.5 q0 -11 0.5 -20.5t4.5 -19.5l-144 16q-3 10 -4.5 21.5t-1.5 22.5q0 33 11.5 64t32.5 56t50 43t64 25q0 43 -28.5 78t-79.5 62h-293zM64 425q0 54 12.5 113.5t39.5 121.5l127 -33q-39 -122 -39 -172q0 -76 20.5 -128.5t66 -86t120 -48.5t177.5 -12q26 3 54.5 8t55 11t51.5 9 t49 3q81 0 154 -33t140 -85v628h142v-960h-142v147q-28 33 -66.5 62t-81 51t-86.5 35t-81 13q-17 0 -49.5 -7.5t-77.5 -16t-127 -10.5q-111 0 -196.5 29t-143.5 81t-88.5 123.5t-30.5 156.5zM351 1401q30 -31 42.5 -63.5t15.5 -63.5q81 0 157.5 -35.5t135 -96.5t94.5 -141 t36 -169v-19t-3 -17q93 -43 156.5 -103t106.5 -137v459l-119 22q-48 9 -96 46t-85 89t-61 113t-24 116h-356zM863 1401q0 -51 14 -96t43 -78.5t72 -52t100 -18.5v245h-229z" />
<glyph horiz-adv-x="1573" d="M-63 1401v142h1714v-142h-680v-127q105 -13 197.5 -50t161.5 -92.5t109.5 -126.5t40.5 -150q0 -34 -14.5 -64t-37.5 -53t-52.5 -36.5t-61.5 -13.5q-11 0 -21.5 1.5t-20.5 4.5q20 -14 45 -41.5t47 -60.5t37 -69t15 -67q0 -48 -15.5 -88.5t-44 -70.5t-67 -46t-83.5 -16 l10 142q56 0 56 71q0 42 -26.5 82.5t-69.5 75t-97 59.5t-108 34v-865h-142v246q-64 56 -110.5 97.5t-86 70.5t-75 50t-75 37.5t-88 31t-112.5 31.5l-94 114l213 132q-58 43 -117.5 75.5t-120.5 51.5l-89 116q127 127 317.5 224t437.5 166v124h-892zM277 873 q65 -33 128 -70.5t128 -80.5q43 23 117 52t179 64v301q-69 -20 -152.5 -53t-162.5 -70t-144 -75t-93 -68zM396 512q59 -22 101.5 -39t75.5 -33t60 -33.5t55.5 -40.5t61.5 -55.5t79 -78.5v462q-93 -30 -200.5 -75t-232.5 -107zM971 834q31 -6 95.5 -32t166.5 -69q25 51 25 74 l14 -2q66 0 66 89q0 9 -13 30.5t-36.5 49.5t-55.5 57t-70 53t-81.5 39.5t-89.5 15.5h-11q-4 0 -10 -2v-303z" />
<glyph horiz-adv-x="1297" d="M-33 1401v142h947q12 19 6 53q-31 85 -220 85q-19 0 -53.5 -3t-102 -8.5t-185 -8t-211.5 62.5t-94 186q0 43 17 95t44 113l131 -55q-50 -101 -50 -150q0 -111 188 -111q54 0 101 3.5t91.5 7t90.5 7t99 3.5q78 0 132.5 -16t88.5 -49t49 -86t15 -129h253v-142h-536v-60 q69 -9 138 -44.5t124.5 -89.5t90.5 -121.5t35 -137.5q0 -100 -55.5 -149.5t-152.5 -49.5q-86 0 -171 77l63 122q27 -39 108 -58q20 4 33.5 6.5t20.5 9.5t9.5 17.5t2.5 30.5q0 195 -246 257q0 -131 -39 -267.5t-116 -283.5q-55 -55 -100 -116q-37 -51 -67.5 -114t-30.5 -124 q0 -39 15.5 -70t40.5 -53t58.5 -33.5t70.5 -11.5q12 0 22.5 0.5t24.5 4.5q58 23 108 59.5t87.5 81t59.5 94t22 100.5q0 31 -15 53t-45 22q-20 0 -38 -31t-36 -74l-96 103q57 143 165 143q208 0 208 -251q0 -81 -44.5 -161t-114 -143t-154 -102.5t-162.5 -39.5 q-72 0 -130.5 24t-100.5 66.5t-65 102.5t-23 131q0 145 166 331q-81 222 -271 255l-35 106q185 265 494 328v60h-660zM304 1003q117 -43 209 -215q107 173 111 426q-194 -79 -320 -211z" />
<glyph horiz-adv-x="1219" d="M-144 113q0 54 12.5 113.5t39.5 121.5l127 -33q-39 -122 -39 -172q0 -76 20.5 -128.5t66 -86t120 -48.5t177.5 -12q26 3 54.5 8t55 11t51.5 9t49 3q81 0 154 -33t140 -85v628h142v-960h-142v147q-28 33 -66.5 62t-81 51t-86.5 35t-81 13q-17 0 -49.5 -7.5t-77.5 -16 t-127 -10.5q-111 0 -196.5 29t-143.5 81t-88.5 123.5t-30.5 156.5zM-33 1401v142h947q12 19 6 53q-31 85 -220 85q-19 0 -53.5 -3t-102 -8.5t-185 -8t-211.5 62.5t-94 186q0 43 17 95t44 113l131 -55q-50 -101 -50 -150q0 -111 188 -111q54 0 101 3.5t91.5 7t90.5 7t99 3.5 q78 0 132.5 -16t88.5 -49t49 -86t15 -129h253v-142h-536v-60q69 -9 138 -44.5t124.5 -89.5t90.5 -121.5t35 -137.5q0 -100 -55.5 -149.5t-152.5 -49.5q-86 0 -171 77l63 122q27 -39 108 -58q20 4 33.5 6.5t20.5 9.5t9.5 17.5t2.5 30.5q0 195 -246 257q0 -131 -39 -267.5 t-116 -283.5q-55 -55 -100 -116q-37 -51 -67.5 -114t-30.5 -124q0 -39 15.5 -70t40.5 -53t58.5 -33.5t70.5 -11.5q12 0 22.5 0.5t24.5 4.5q58 23 108 59.5t87.5 81t59.5 94t22 100.5q0 31 -15 53t-45 22q-20 0 -38 -31t-36 -74l-96 103q57 143 165 143q208 0 208 -251 q0 -81 -44.5 -161t-114 -143t-154 -102.5t-162.5 -39.5q-72 0 -130.5 24t-100.5 66.5t-65 102.5t-23 131q0 145 166 331q-81 222 -271 255l-35 106q185 265 494 328v60h-660zM304 1003q117 -43 209 -215q107 173 111 426q-194 -79 -320 -211z" />
<glyph horiz-adv-x="1825" d="M-108 1401v142h1974v-142h-1974zM91 1216l130 23q65 -224 140 -398t157.5 -293.5t171.5 -181.5t183 -62q61 0 116.5 16t97.5 44.5t66 67t24 82.5q0 115 -138 143q-83 -39 -190 -32l38 135q54 0 99 15.5t77.5 44.5t50 71t17.5 96q0 100 -72 155t-194 55q-60 0 -113 -16 t-92 -46.5t-62 -72t-23 -91.5q0 -39 80 -87l-72 -104q-148 50 -148 215q0 74 34.5 136t93.5 107.5t137 71t165 25.5q73 0 137 -19t114 -54.5t84.5 -86t49.5 -114.5q51 34 108 52t122 18q54 0 102.5 -26t84 -70.5t56.5 -102t21 -119.5q0 -57 -13.5 -113t-44 -92t-74 -57.5 t-101 -18t-102.5 45.5l50 116q12 -8 40.5 -19t62.5 8q61 30 42 143q-7 69 -39.5 112.5t-105.5 51.5q-124 -4 -198 -83q0 -105 -87 -163q145 -62 145 -224q0 -79 -38.5 -144.5t-102 -112.5t-144.5 -73.5t-166 -26.5q-154 0 -289.5 105t-254.5 331q-46 88 -113 259t-120 358z " />
<glyph horiz-adv-x="1308" d="M-53 1401v142h1399v-142h-563v-69q84 0 154.5 -30t122 -80t80.5 -115t29 -134q0 -46 -17 -86.5t-46 -70.5t-66.5 -48.5t-79.5 -18.5q-105 0 -145 164l100 44q21 -67 53 -67q20 9 32.5 24.5t18.5 30t8 25t2 11.5q0 102 -65.5 156.5t-180.5 54.5v-590h-136v105h2 q-43 58 -79.5 94.5t-81 57t-104 28t-146.5 7.5h-48l-110 145q6 5 13.5 10t14.5 9q61 50 112 84.5t110 63.5t134 58t183 68v69h-700zM31 683l140 42q25 -128 85.5 -244.5t139.5 -204t169 -139.5t173 -52q60 0 112.5 19t92.5 53.5t63 82.5t23 106q0 39 -14.5 78.5t-39.5 71.5 t-58.5 51.5t-72.5 19.5q-57 0 -94 -32.5t-37 -86.5q0 -25 11.5 -47t27.5 -45l-119 -71q-61 77 -61 163q0 65 22.5 113.5t61 81t91 48.5t113.5 16q73 0 131 -33t97 -86t60 -119.5t21 -131.5q0 -83 -37 -154.5t-99 -124.5t-143 -83t-168 -30q-93 0 -177.5 35.5t-156.5 95 t-132 136t-106 158.5t-76.5 163t-42.5 150zM248 1015q87 0 149 -6.5t108 -23t79.5 -42.5t62.5 -64v274v39q-15 0 -47.5 -10t-73 -26.5t-84.5 -36.5t-83 -39.5t-68.5 -37t-42.5 -27.5z" />
<glyph horiz-adv-x="1825" d="M-108 1401v142h1974v-142h-1974zM91 1216l130 23q65 -224 140 -398t157.5 -293.5t171.5 -181.5t183 -62q61 0 116.5 16t97.5 44.5t66 67t24 82.5q0 115 -138 143q-83 -39 -190 -32l38 135q54 0 99 15.5t77.5 44.5t50 71t17.5 96q0 100 -72 155t-194 55q-60 0 -113 -16 t-92 -46.5t-62 -72t-23 -91.5q0 -39 80 -87l-72 -104q-148 50 -148 215q0 74 34.5 136t93.5 107.5t137 71t165 25.5q73 0 137 -19t114 -54.5t84.5 -86t49.5 -114.5q51 34 108 52t122 18q54 0 102.5 -26t84 -70.5t56.5 -102t21 -119.5q0 -57 -13.5 -113t-44 -92t-74 -57.5 t-101 -18t-102.5 45.5l50 116q12 -8 40.5 -19t62.5 8q61 30 42 143q-7 69 -39.5 112.5t-105.5 51.5q-124 -4 -198 -83q0 -105 -87 -163q145 -62 145 -224q0 -79 -38.5 -144.5t-102 -112.5t-144.5 -73.5t-166 -26.5q-154 0 -289.5 105t-254.5 331q-46 88 -113 259t-120 358z M546 -16q211 215 489 348h141v-867h-142v126q-37 70 -79 120t-92.5 81t-113.5 46t-142 15zM731 -24q185 -39 303 -174v375q-95 -43 -170.5 -93.5t-132.5 -107.5z" />
<glyph horiz-adv-x="1308" d="M-53 1401v142h1399v-142h-563v-69q84 0 154.5 -30t122 -80t80.5 -115t29 -134q0 -46 -17 -86.5t-46 -70.5t-66.5 -48.5t-79.5 -18.5q-105 0 -145 164l100 44q21 -67 53 -67q20 9 32.5 24.5t18.5 30t8 25t2 11.5q0 102 -65.5 156.5t-180.5 54.5v-590h-136v105h2 q-43 58 -79.5 94.5t-81 57t-104 28t-146.5 7.5h-48l-110 145q6 5 13.5 10t14.5 9q61 50 112 84.5t110 63.5t134 58t183 68v69h-700zM31 683l140 42q25 -128 85.5 -244.5t139.5 -204t169 -139.5t173 -52q60 0 112.5 19t92.5 53.5t63 82.5t23 106q0 39 -14.5 78.5t-39.5 71.5 t-58.5 51.5t-72.5 19.5q-57 0 -94 -32.5t-37 -86.5q0 -25 11.5 -47t27.5 -45l-119 -71q-61 77 -61 163q0 65 22.5 113.5t61 81t91 48.5t113.5 16q73 0 131 -33t97 -86t60 -119.5t21 -131.5q0 -83 -37 -154.5t-99 -124.5t-143 -83t-168 -30q-93 0 -177.5 35.5t-156.5 95 t-132 136t-106 158.5t-76.5 163t-42.5 150zM248 1015q87 0 149 -6.5t108 -23t79.5 -42.5t62.5 -64v274v39q-15 0 -47.5 -10t-73 -26.5t-84.5 -36.5t-83 -39.5t-68.5 -37t-42.5 -27.5zM396 -227q211 215 489 348h141v-867h-142v126q-37 70 -79 120t-92.5 81t-113.5 46 t-142 15zM581 -235q185 -39 303 -174v375q-95 -43 -170.5 -93.5t-132.5 -107.5z" />
<glyph horiz-adv-x="1825" d="M-108 1401v142h1974v-142h-1974zM81 1223l140 16q65 -224 140 -398t157.5 -293.5t171.5 -181.5t183 -62q61 0 116.5 16t97.5 44.5t66 67t24 82.5q0 115 -138 143q-36 -32 -190 -32l38 135q54 0 99 15.5t77.5 44.5t50 71t17.5 96q0 100 -72 155t-194 55q-60 0 -113 -16 t-92 -46.5t-62 -72t-23 -91.5q0 -39 80 -87l-72 -104q-148 50 -148 215q0 74 34.5 136t93.5 107.5t137 71t165 25.5q73 0 137 -19t114 -54.5t84.5 -86t49.5 -114.5q51 34 108 52t122 18q54 0 102.5 -26t84 -70.5t56.5 -102t21 -119.5q0 -57 -19 -108.5t-52 -89t-77.5 -60 t-94.5 -22.5q-35 4 -53.5 12.5t-39.5 18.5l51 131l54 -26q91 26 91 157q0 69 -38.5 116.5t-106.5 47.5q-32 0 -51 -1.5t-38 -9t-43 -24.5t-66 -48q0 -105 -87 -163q145 -62 145 -224q0 -48 -14 -91v-943h-144v147q-28 32 -66.5 60.5t-81 50.5t-86 35t-81.5 13 q-16 0 -51 -5.5t-75 -11.5t-76.5 -10.5t-52.5 -4.5q-110 0 -196 29.5t-144 81.5t-88.5 123.5t-30.5 155.5q0 57 14.5 114t38.5 121l127 -34q-19 -61 -28.5 -103.5t-9.5 -67.5q0 -76 20.5 -129.5t66 -86.5t119 -48.5t180.5 -15.5q22 0 49 5.5t54.5 13t54.5 13t50 5.5 q81 0 154 -34t139 -85v432q-57 -38 -127 -61q-81 -26 -166 -26q-154 0 -289.5 105t-254.5 331q-46 88 -113 259t-130 365z" />
<glyph horiz-adv-x="1308" d="M-53 1401v142h1399v-142h-563v-69q84 0 154.5 -30t122 -80t80.5 -115t29 -134q0 -46 -17 -86.5t-46 -70.5t-66.5 -48.5t-79.5 -18.5q-105 0 -145 164l100 44q21 -67 53 -67q20 9 32.5 24.5t18.5 30t8 25t2 11.5q0 102 -65.5 156.5t-180.5 54.5v-590h-136v105h2 q-43 58 -79.5 94.5t-81 57t-104 28t-146.5 7.5h-48l-110 145q6 5 13.5 10t14.5 9q61 50 112 84.5t110 63.5t134 58t183 68v69h-700zM80 180q0 71 17.5 132.5t40.5 115.5l125 -30q-21 -69 -31.5 -120t-10.5 -82q0 -46 17 -83t47 -64t69.5 -42t85.5 -15q28 0 55 8t53.5 18 t53 18.5t53.5 8.5q69 0 127 -30t105 -65v501q0 111 -82 111q-34 0 -72.5 -24.5t-71 -60.5t-54 -75.5t-21.5 -72.5q0 -13 2.5 -24.5t10.5 -22.5l-104 -86q-49 54 -49 136q0 57 37 121.5t92 120t120 92t120 36.5q40 0 78.5 -21t68.5 -56t48.5 -81t18.5 -96v-757h-142v116 q-112 96 -248 96q-17 0 -46 -9t-62 -19t-66.5 -19t-60.5 -9q-61 0 -119 27t-103.5 73t-73.5 106t-28 127zM248 1015q87 0 149 -6.5t108 -23t79.5 -42.5t62.5 -64v274v39q-15 0 -47.5 -10t-73 -26.5t-84.5 -36.5t-83 -39.5t-68.5 -37t-42.5 -27.5z" />
<glyph horiz-adv-x="1324" d="M-36 1401v142h1399v-142h-564v-69q84 0 155.5 -30t123.5 -80t81.5 -115t29.5 -134q0 -46 -17.5 -86.5t-46.5 -70.5t-66.5 -48.5t-79.5 -18.5q-104 0 -147 164l100 44q10 -34 23.5 -50.5t28.5 -16.5q20 9 32.5 24.5t18.5 30t8 25t2 11.5q0 102 -65.5 156.5t-180.5 54.5 v-590h-135v105h3q-43 58 -79.5 94.5t-81 57t-104.5 28t-148 7.5h-46l-111 145q8 5 14 10t13 9q61 50 113 84.5t111.5 63.5t134.5 58t181 68v69h-700zM16 -24q0 54 14.5 112.5t38.5 122.5l127 -37q-19 -58 -28.5 -101t-9.5 -70q0 -75 20 -127.5t66 -85.5t119.5 -48.5 t180.5 -15.5q22 0 49 5.5t54.5 11.5t54.5 11.5t50 5.5q81 0 154 -32.5t139 -83.5v627h144v-962h-144v150q-28 31 -66.5 59t-81 50.5t-86 36t-81.5 13.5q-16 0 -51 -5.5t-75 -11.5t-76.5 -10.5t-52.5 -4.5q-111 0 -196.5 29t-143.5 81t-88.5 123.5t-30.5 156.5zM47 683 l141 42q24 -128 84.5 -244.5t139.5 -204t169 -139.5t174 -52q59 0 111.5 19t92.5 53.5t63 82.5t23 106q0 39 -14 78.5t-38.5 71.5t-58.5 51.5t-71 19.5q-58 0 -94 -32.5t-36 -86.5q0 -25 11 -47t27 -45l-119 -71q-31 39 -47 80t-16 83q0 65 22 113.5t60.5 81t91 48.5 t113.5 16q74 0 132 -33t98.5 -86t61.5 -119.5t21 -131.5q0 -83 -37 -154.5t-99.5 -124.5t-143.5 -83t-168 -30q-93 0 -177.5 35.5t-156.5 95t-132 136t-106 158.5t-77 163t-45 150zM266 1015q86 0 148.5 -6.5t107.5 -23t78.5 -42.5t63.5 -64v274v39q-15 0 -47 -10 t-72.5 -26.5t-85.5 -36.5t-84 -39.5t-68.5 -37t-40.5 -27.5z" />
<glyph horiz-adv-x="1708" d="M-65 1401v142h1785v-142h-668v-127q108 -10 206 -50.5t173 -107t118.5 -157t43.5 -202.5q0 -46 -16.5 -95t-46.5 -90t-71 -67.5t-90 -26.5q-39 0 -101.5 24t-122.5 78l88 108q77 -68 116 -68q24 0 44 14.5t32.5 37.5t19.5 49.5t7 49.5q0 74 -35.5 140t-92 115.5 t-126.5 78t-139 28.5h-7v-1133h-142v243q-16 46 -55 100.5t-93 110.5t-119 109t-131.5 93.5t-133 70.5t-156.5 17l-73 150q182 143 374.5 236t386.5 144v127h-975zM190 108q0 53 24.5 103.5t65 90t94 64t111.5 24.5q128 0 228 -71.5t197 -202.5v263h142v-565h-142v33 q-169 401 -432 401q-28 0 -54.5 -10.5t-46.5 -30t-32.5 -45.5t-12.5 -54q0 -24 4 -42t16.5 -32.5t36.5 -29t65 -31.5l-39 -116q-53 1 -95 21.5t-70 53.5t-44 78t-16 98zM357 868q46 -9 99 -30t108 -51t108 -67t100 -77.5t82.5 -83t55.5 -84.5v658q-23 -3 -68.5 -18.5 t-102.5 -39t-118.5 -52.5t-115.5 -57.5t-93.5 -54t-54.5 -43.5z" />
<glyph horiz-adv-x="1602" d="M-97 1401v142h1725v-142h-238v-1443h-140q0 60 -23.5 122.5t-64 121.5t-94 110.5t-113.5 90t-124 61t-124 22.5q-95 0 -95 -72q0 -44 106 -68l-58 -114q-40 0 -75.5 14.5t-61 39t-39.5 60t-14 77.5q0 37 13.5 71.5t37.5 61t56.5 42.5t69.5 16v93h2q-43 58 -79.5 94.5 t-81 57t-104 28t-146.5 7.5h-48l-110 145q6 5 150.5 107.5t416.5 185.5v69h-744zM248 1015q87 0 149 -6.5t108 -23t79.5 -42.5t62.5 -64v274v39q-15 0 -96 -25t-185.5 -83.5t-117.5 -68.5zM783 620q74 -8 143.5 -36.5t129.5 -72.5t109.5 -100.5t84.5 -122.5v1113h-467v-69 q77 0 147 -34t123.5 -90t84.5 -128.5t31 -147.5q0 -46 -17 -86.5t-46 -71t-66.5 -49t-79.5 -18.5q-105 0 -145 164l100 44q21 -66 53 -66q20 10 32.5 24.5t18.5 29.5t8 26t2 13q0 56 -17 101.5t-49.5 79t-77.5 51.5t-102 18v-572z" />
<glyph horiz-adv-x="1708" d="M-65 1401v142h1785v-142h-668v-127q108 -10 206 -50.5t173 -107t118.5 -157t43.5 -202.5q0 -46 -16.5 -95t-46.5 -90t-71 -67.5t-90 -26.5q-39 0 -101.5 24t-122.5 78l88 108q77 -68 116 -68q24 0 44 14.5t32.5 37.5t19.5 49.5t7 49.5q0 74 -35.5 140t-92 115.5 t-126.5 78t-139 28.5h-7v-1133h-142v243q-16 46 -55 100.5t-93 110.5t-119 109t-131.5 93.5t-133 70.5t-156.5 17l-73 150q182 143 374.5 236t386.5 144v127h-975zM90 37q0 53 26.5 106t69 95t94.5 67.5t104 25.5q69 0 135.5 -39t132.5 -112q23 43 58 66.5t81 23.5 q54 0 119 -65v578h142v-926h-142v111q0 37 -3 44q-4 18 -11 39t-18.5 37.5t-27.5 28t-38 11.5q-20 0 -33 -8t-21 -21t-11.5 -28.5t-3.5 -31.5q0 -19 4.5 -38t12.5 -33l-116 -42q-14 54 -38.5 102t-56.5 83.5t-70 56.5t-78 21q-36 0 -66 -12t-53 -33.5t-36.5 -51t-13.5 -61.5 t7.5 -54.5t25.5 -37.5t50.5 -24t82.5 -16l44 -126q-36 -7 -50 -8q-9 -1 -17 -3q-62 0 -114 20t-90 55.5t-59.5 86t-21.5 113.5zM357 868q46 -9 99 -30t108 -51t108 -67t100 -77.5t82.5 -83t55.5 -84.5v658q-23 -3 -68.5 -18.5t-102.5 -39t-118.5 -52.5t-115.5 -57.5 t-93.5 -54t-54.5 -43.5z" />
<glyph horiz-adv-x="1836" d="M-119 1401v142h2055v-142h-703v-245q129 -7 199.5 -13t82.5 -9q42 -12 83.5 -42.5t74.5 -73.5t53.5 -95t20.5 -105q0 -115 -61.5 -177.5t-176.5 -62.5q-67 0 -127 39l67 130q14 -15 31.5 -22t36.5 -7q89 0 89 105q0 88 -70 143t-195 55q2 0 -25 -1.5t-83 -4.5v-1023h-141 v343q-35 75 -83 138t-102 107.5t-112 69.5t-112 25q-27 -9 -41 -16t-23 -18t-15 -29t-15 -50q-25 14 -54.5 34.5t-67.5 44.5q0 35 28.5 73t79.5 77q19 7 49.5 13t69.5 14v34q0 66 -28.5 119.5t-75.5 90.5t-110.5 57t-133.5 20q-42 0 -59.5 -25.5t-17.5 -60.5 q0 -11 0.5 -20.5t4.5 -19.5l-144 16q-3 10 -4.5 21.5t-1.5 22.5q0 33 11.5 64t32.5 56t50 43t64 25q0 43 -28.5 78t-79.5 62h-293zM351 1401q30 -31 42.5 -63.5t15.5 -63.5q81 0 157.5 -35.5t135 -96.5t94.5 -141t36 -169v-19t-3 -17q93 -43 156.5 -103t106.5 -137v459 l-119 22q-48 9 -96 46t-85 89t-61 113t-24 116h-356zM863 1401q0 -51 14 -96t43 -78.5t72 -52t100 -18.5v245h-229z" />
<glyph horiz-adv-x="2193" d="M-19 1401v142h1620v-142h-368v-243q133 14 243 -7t173.5 -82.5t80.5 -122.5t17 -128q0 -115 -61.5 -177.5t-176.5 -62.5q-67 0 -127 39l67 130q14 -15 31.5 -22t36.5 -7q89 0 89 105q9 91 -62 144.5t-203 50.5q2 0 -25 0t-83 -10v-683q21 -1 40 -4q26 -3 53 -5 q133 -23 248 -96t276 -225v1776h142v-228h205v-142h-205v-1802h-142v170q-54 75 -156 163t-152 124t-153 81.5t-153 35.5q-64 -6 -91 -23t-37.5 -42t-21.5 -65q23 -46 43 -56.5t38.5 -15.5t36.5 -5l-35 -133q-117 4 -170 52t-76.5 126.5t33.5 185.5q50 83 136 106v32 q-35 75 -83 138t-92.5 106.5t-99.5 77t-132 30.5q-32 -5 -49.5 -16.5t-25 -26t-12 -31t-1.5 -41.5l-145 24q6 83 38.5 133.5t77.5 69.5q30 16 64 20t62 -1v34q0 66 -28.5 119.5t-71.5 92t-107 61t-141 14.5q-40 -3 -57.5 -28.5t-19.5 -57.5l5 -40l-147 5q0 21 -1.5 32.5 t-1.5 22.5q0 33 11.5 64t32.5 56t50 43t64 25q0 43 -28.5 78t-79.5 62h-193zM351 1401q30 -31 42.5 -63.5t15.5 -63.5q81 0 157.5 -35.5t135 -96.5t94.5 -141t36 -169v-19v-18q85 -33 151 -97.5t109 -141.5v455q-24 -1 -54 3.5t-66 15.5q-58 19 -100.5 54.5t-79.5 87.5 t-60 113t-23 116h-358zM859 1401q2 -51 17 -96t44 -78.5t72 -52t100 -18.5v245h-233z" />
<glyph horiz-adv-x="2172" d="M-119 1401v142h2296v-142h-205v-1802h-142v150q0 46 -119 158.5t-169 148.5t-153 81.5t-153 35.5q-64 -6 -91 -23t-37.5 -42t-21.5 -65q23 -46 43 -56.5t38.5 -15.5t36.5 -5l-35 -133q-117 4 -170 52t-76.5 126.5t33.5 185.5q50 83 136 106v32q-35 75 -83 138t-102 107.5 t-112 69.5t-112 25q-27 -9 -41 -16t-23 -18t-15 -29t-15 -50q-25 14 -54.5 34.5t-67.5 44.5q0 35 28.5 73t79.5 77q19 7 49.5 13t69.5 14v34q0 66 -28.5 119.5t-75.5 90.5t-110.5 57t-133.5 20q-42 0 -59.5 -25.5t-17.5 -60.5l5 -40l-147 5q0 21 -1.5 32.5t-1.5 22.5 q0 33 11.5 64t32.5 56t50 43t64 25q0 43 -28.5 78t-79.5 62h-293zM351 1401q30 -31 42.5 -63.5t15.5 -63.5q81 0 157.5 -35.5t135 -96.5t94.5 -141t36 -169v-19q0 -8 -3 -17q93 -43 156.5 -103t106.5 -137v459l-119 22q-48 9 -96 46t-85 89t-61 113t-24 116h-356zM863 1401 q0 -51 14 -96t43 -78.5t72 -52t100 -18.5v245h-229zM1233 325q21 -1 40 -4q26 -3 53 -5q133 -23 248 -96t256 -225v1406h-597v-245q129 -7 199.5 -13t82.5 -9q42 -12 83.5 -42.5t74.5 -73.5t53.5 -95t20.5 -105q0 -115 -61.5 -177.5t-176.5 -62.5q-67 0 -127 39l67 130 q14 -15 31.5 -22t36.5 -7q89 0 89 105q0 88 -70 143t-195 55q2 0 -25 -1.5t-83 -4.5v-690z" />
<glyph horiz-adv-x="1750" d="M-63 1401v142h1846v-142h-229v-1591h-141v298q-27 38 -61 72.5t-70.5 61.5t-72 43t-62.5 16q-64 0 -131 -31t-140 -99q-73 -64 -129 -92.5t-95 -28.5q-43 0 -82 11t-77.5 39t-80 77.5t-88.5 126.5l116 63q91 -177 220 -177q23 0 46.5 13t45.5 31t41.5 39t35.5 36 q-215 378 -636 498l-101 177q204 127 387.5 208t346.5 127v82h-889zM304 940q62 -18 134 -58.5t143 -95t136 -120t112 -133.5v644q-123 -32 -254.5 -89t-270.5 -148zM965 414q62 15 103.5 22t62.5 7q31 0 71.5 -9t80 -29.5t68.5 -41t62 -62.5v1100h-448v-82 q80 -23 149 -61.5t120 -90.5t80 -115.5t29 -136.5q0 -47 -13.5 -93t-37.5 -82.5t-58 -59.5t-76 -23q-31 0 -74 15t-80 68l61 109q19 -19 38 -34.5t44 -15.5q19 0 37.5 28t18.5 78q0 89 -60 153t-178 119v-763z" />
<glyph horiz-adv-x="1339" d="M79 1131q0 81 33 152t90 123.5t131 83t158 30.5q337 0 506 -314v583h141v-246h226v-142h-226v-1412h-141v285q0 113 -31.5 209t-86.5 165t-127.5 107.5t-155.5 38.5q-270 0 -305 -288q92 47 160 70t114 23q45 0 84 -12.5t68.5 -35.5t46.5 -57.5t17 -76.5q0 -43 -27 -94.5 t-71.5 -110t-102 -122t-117.5 -129.5l-102 100q50 54 101 106.5t91 99t68 85t33 65.5q-12 56 -70 56q-24 0 -65.5 -17t-84 -38.5t-79 -40.5t-49.5 -23q-32 0 -60.5 16t-49.5 41.5t-33 57.5t-12 64q0 74 29.5 138.5t82 113.5t125 83t158.5 50l16 16q3 22 4 31q2 6 2 11 q0 82 -114 82q-17 0 -50 -13.5t-68 -29t-67.5 -29t-48.5 -13.5q-30 0 -55.5 13.5t-44.5 35.5t-30 50t-11 59zM222 1108q30 14 60.5 29t60.5 27t61.5 20t63.5 8q229 0 229 -211q0 -16 -1 -35t-4 -41q89 -23 166.5 -71t138.5 -121v169q0 55 -21.5 113.5t-58.5 115.5t-87 107 t-105.5 87.5t-114 60t-114.5 22.5q-235 0 -274 -280z" />
<glyph horiz-adv-x="2097" d="M75 1150q0 81 33 152t88 124.5t127.5 83.5t152.5 30q85 0 166.5 -27.5t151 -76t125 -116t87.5 -146.5v369h1110v-142h-970v-638q144 186 314 284t378 117l123 -91q-33 -39 -56 -107t-37 -150t-21 -169t-7 -161q0 -57 4 -119.5t11 -124.5t18 -119.5t25 -103.5l-151 -19 q-11 46 -19.5 110.5t-14.5 135t-9.5 141.5t-3.5 130q0 50 3.5 115.5t11.5 132.5t21 129t33 106q-362 -44 -639 -538l-124 137v316q-205 492 -514 492q-54 0 -107 -22t-94 -59t-66.5 -87t-25.5 -108v-12q0 -8 2 -27q9 3 37 22t68 39.5t85 37.5t87 17t80 -13.5t65 -37.5 t43 -58t16 -76q0 -110 -104 -258q-13 -14 -58.5 -65.5t-122.5 -140.5l-104 90q87 99 137.5 157t77 94.5t34.5 61t8 56.5q0 27 -25 48t-52 21q-16 0 -52 -19.5t-75 -42.5t-73 -42.5t-45 -19.5q-153 0 -153 187z" />
</font>
</defs>
</svg>
